<svg xmlns="http://www.w3.org/2000/svg" viewBox="0 0 1024 1024"><symbol id="icon-houtaiguanli" viewBox="0 0 1024 1024"><path d="M146.285714 0h731.428572a146.285714 146.285714 0 0 1 146.285714 146.285714v731.428572a146.285714 146.285714 0 0 1-146.285714 146.285714H146.285714a146.285714 146.285714 0 0 1-146.285714-146.285714V146.285714a146.285714 146.285714 0 0 1 146.285714-146.285714z" fill="#35BA2E" opacity=".2"/><path d="M694.857143 731.428571H329.142857a36.571429 36.571429 0 0 0 0 73.142858h365.714286a36.571429 36.571429 0 0 0 0-73.142858z m36.571428-512H292.571429a73.142857 73.142857 0 0 0-73.142858 73.142858v292.571428a73.142857 73.142857 0 0 0 73.142858 73.142857h438.857142a73.142857 73.142857 0 0 0 73.142858-73.142857V292.571429a73.142857 73.142857 0 0 0-73.142858-73.142858z m-329.142857 292.571429a36.571429 36.571429 0 0 1-73.142857 0v-146.285714a36.571429 36.571429 0 0 1 73.142857 0v146.285714z m146.285715 0a36.571429 36.571429 0 0 1-73.142858 0v-73.142857a36.571429 36.571429 0 0 1 73.142858 0v73.142857z m146.285714 0a36.571429 36.571429 0 0 1-73.142857 0v-73.142857a36.571429 36.571429 0 0 1 73.142857 0v73.142857z" fill="#35BA2E"/></symbol><use xlink:href="#icon-houtaiguanli" xmlns:xlink="http://www.w3.org/1999/xlink"/></svg>