<svg xmlns="http://www.w3.org/2000/svg" viewBox="0 0 1024 1024"><symbol id="icon-qiyeshezhi" viewBox="0 0 1024 1024"><path d="M146.285714 0h731.428572a146.285714 146.285714 0 0 1 146.285714 146.285714v731.428572a146.285714 146.285714 0 0 1-146.285714 146.285714H146.285714a146.285714 146.285714 0 0 1-146.249143-146.285714V146.285714A146.285714 146.285714 0 0 1 146.285714 0z" fill="#307CFB" fill-opacity=".2"/><path d="M831.926857 550.582857l-111.652571 215.369143c-12.361143 23.808-35.364571 38.619429-60.050286 38.619429H363.812571c-24.722286 0-47.725714-14.811429-60.050285-38.619429l-111.652572-215.369143a84.992 84.992 0 0 1 0-77.202286l111.652572-215.369142c12.288-23.844571 35.291429-38.619429 60.050285-38.619429h296.411429c24.685714 0 47.689143 14.774857 60.050286 38.619429l111.652571 215.369142c6.144 11.922286 9.216 25.270857 9.216 38.582858 0 13.348571-3.072 26.697143-9.216 38.619428zM512 402.285714a109.714286 109.714286 0 1 0 0 219.428572 109.714286 109.714286 0 0 0 0-219.428572z" fill="#307CFB"/></symbol><use xlink:href="#icon-qiyeshezhi" xmlns:xlink="http://www.w3.org/1999/xlink"/></svg>