<svg width="547" height="525" xmlns="http://www.w3.org/2000/svg" xmlns:xlink="http://www.w3.org/1999/xlink" overflow="hidden"><defs><clipPath id="clip0"><rect x="364" y="101" width="547" height="525"/></clipPath></defs><g clip-path="url(#clip0)" transform="translate(-364 -101)"><path d="M364 614.5C364 608.701 456.677 604 571 604 685.323 604 778 608.701 778 614.5 778 620.299 685.323 625 571 625 456.677 625 364 620.299 364 614.5Z" fill="#2F2F2F" fill-rule="evenodd" fill-opacity="0.4"/><path d="M623.167 532 573 535.324 522.667 532 519 594 573 594 627 594 623.167 532Z" fill="#B7B7B7" fill-rule="evenodd"/><path d="M627.333 594 573.333 594 519.333 594 503 605 573.333 605 644 605 627.333 594Z" fill="#E6E7E8" fill-rule="evenodd"/><path d="M573.333 605 503 605 503 614 573.333 614 644 614 644 605 573.333 605Z" fill="#C9C9C9" fill-rule="evenodd"/><path d="M777.845 538C391.155 538 391.155 538 391.155 538 379.364 538 370 528.635 370 516.841 370 260.159 370 260.159 370 260.159 370 248.365 379.364 239 391.155 239 777.845 239 777.845 239 777.845 239 789.636 239 799 248.365 799 260.159 799 516.841 799 516.841 799 516.841 799 528.635 789.636 538 777.845 538" fill="#E6E7E8" fill-rule="evenodd"/><path d="M758.219 508C410.128 508 410.128 508 410.128 508 398.698 508 389 498.324 389 486.92 389 274.735 389 274.735 389 274.735 389 263.331 398.698 254 410.128 254 758.219 254 758.219 254 758.219 254 769.648 254 779 263.331 779 274.735 779 486.92 779 486.92 779 486.92 779 498.324 769.648 508 758.219 508" fill="#1EC0D1" fill-rule="evenodd"/><rect x="389" y="288" width="106" height="219" fill="#14ADC1"/><rect x="409" y="310" width="52" height="64" fill="#0084AD"/><path d="M414.333 386C408.667 386 408.667 386 408.667 386 408.333 386 408 386 408 387 408 387.5 408.333 388 408.667 388 414.333 388 414.333 388 414.333 388 415 388 415 387.5 415 387 415 386 415 386 414.333 386" fill="#3FD2DE" fill-rule="evenodd"/><path d="M424.333 386C421.667 386 421.667 386 421.667 386 421.333 386 421 386 421 387 421 387.5 421.333 388 421.667 388 424.333 388 424.333 388 424.333 388 424.667 388 425 387.5 425 387 425 386 424.667 386 424.333 386" fill="#3FD2DE" fill-rule="evenodd"/><path d="M451.324 386C428.676 386 428.676 386 428.676 386 428.338 386 428 386 428 387 428 387.5 428.338 388 428.676 388 451.324 388 451.324 388 451.324 388 451.662 388 452 387.5 452 387 452 386 451.662 386 451.324 386" fill="#3FD2DE" fill-rule="evenodd"/><path d="M467.316 386C455.684 386 455.684 386 455.684 386 455.342 386 455 386 455 387 455 387.5 455.342 388 455.684 388 467.316 388 467.316 388 467.316 388 467.658 388 468 387.5 468 387 468 386 467.658 386 467.316 386" fill="#3FD2DE" fill-rule="evenodd"/><path d="M459.4 394C457.6 394 457.6 394 457.6 394 457.3 394 457 394.5 457 395 457 395.5 457.3 396 457.6 396 459.4 396 459.4 396 459.4 396 459.7 396 460 395.5 460 395 460 394.5 459.7 394 459.4 394" fill="#3FD2DE" fill-rule="evenodd"/><path d="M467.273 394C464.727 394 464.727 394 464.727 394 464.364 394 464 394.5 464 395 464 395.5 464.364 396 464.727 396 467.273 396 467.273 396 467.273 396 467.636 396 468 395.5 468 395 468 394.5 467.636 394 467.273 394" fill="#3FD2DE" fill-rule="evenodd"/><path d="M420.297 394C408.703 394 408.703 394 408.703 394 408.351 394 408 394.5 408 395 408 395.5 408.351 396 408.703 396 420.297 396 420.297 396 420.297 396 420.649 396 421 395.5 421 395 421 394.5 420.649 394 420.297 394" fill="#3FD2DE" fill-rule="evenodd"/><path d="M426.25 394C424.75 394 424.75 394 424.75 394 424.375 394 424 394.5 424 395 424 395.5 424.375 396 424.75 396 426.25 396 426.25 396 426.25 396 426.625 396 427 395.5 427 395 427 394.5 426.625 394 426.25 394" fill="#3FD2DE" fill-rule="evenodd"/><path d="M452.312 394C431.688 394 431.688 394 431.688 394 431.344 394 431 394.5 431 395 431 395.5 431.344 396 431.688 396 452.312 396 452.312 396 452.312 396 453 396 453 395.5 453 395 453 394.5 453 394 452.312 394" fill="#3FD2DE" fill-rule="evenodd"/><path d="M412.375 403C408.625 403 408.625 403 408.625 403 408.312 403 408 403.5 408 404 408 404.5 408.312 405 408.625 405 412.375 405 412.375 405 412.375 405 412.688 405 413 404.5 413 404 413 403.5 412.688 403 412.375 403" fill="#3FD2DE" fill-rule="evenodd"/><path d="M435.323 403C415.677 403 415.677 403 415.677 403 415.339 403 415 403.5 415 404 415 404.5 415.339 405 415.677 405 435.323 405 435.323 405 435.323 405 436 405 436 404.5 436 404 436 403.5 436 403 435.323 403" fill="#3FD2DE" fill-rule="evenodd"/><path d="M443.385 403C440.615 403 440.615 403 440.615 403 440.308 403 440 403.5 440 404 440 404.5 440.308 405 440.615 405 443.385 405 443.385 405 443.385 405 444 405 444 404.5 444 404 444 403.5 444 403 443.385 403" fill="#3FD2DE" fill-rule="evenodd"/><path d="M462.289 403C447.711 403 447.711 403 447.711 403 447.356 403 447 403.5 447 404 447 404.5 447.356 405 447.711 405 462.289 405 462.289 405 462.289 405 463 405 463 404.5 463 404 463 403.5 463 403 462.289 403" fill="#3FD2DE" fill-rule="evenodd"/><path d="M416.308 412C408.692 412 408.692 412 408.692 412 408.346 412 408 412.25 408 412.5 408 412.75 408.346 413 408.692 413 416.308 413 416.308 413 416.308 413 417 413 417 412.75 417 412.5 417 412.25 417 412 416.308 412" fill="#3FD2DE" fill-rule="evenodd"/><path d="M424.375 412C420.625 412 420.625 412 420.625 412 420.312 412 420 412.25 420 412.5 420 412.75 420.312 413 420.625 413 424.375 413 424.375 413 424.375 413 424.688 413 425 412.75 425 412.5 425 412.25 424.688 412 424.375 412" fill="#3FD2DE" fill-rule="evenodd"/><path d="M447.296 412C429.704 412 429.704 412 429.704 412 429.352 412 429 412.25 429 412.5 429 412.75 429.352 413 429.704 413 447.296 413 447.296 413 447.296 413 447.648 413 448 412.75 448 412.5 448 412.25 447.648 412 447.296 412" fill="#3FD2DE" fill-rule="evenodd"/><rect x="731" y="302" width="30" height="30" fill="#54DDE7"/><path d="M766.351 351C755.649 351 755.649 351 755.649 351 755.324 351 755 351.25 755 351.5 755 351.75 755.324 352 755.649 352 766.351 352 766.351 352 766.351 352 766.676 352 767 351.75 767 351.5 767 351.25 766.676 351 766.351 351" fill="#0084AD" fill-rule="evenodd"/><path d="M750.5 351C749.5 351 749.5 351 749.5 351 749.25 351 749 351.25 749 351.5 749 351.75 749.25 352 749.5 352 750.5 352 750.5 352 750.5 352 750.75 352 751 351.75 751 351.5 751 351.25 750.75 351 750.5 351" fill="#0084AD" fill-rule="evenodd"/><path d="M744.281 351C722.719 351 722.719 351 722.719 351 722.359 351 722 351.25 722 351.5 722 351.75 722.359 352 722.719 352 744.281 352 744.281 352 744.281 352 744.641 352 745 351.75 745 351.5 745 351.25 744.641 351 744.281 351" fill="#0084AD" fill-rule="evenodd"/><path d="M718.2 351C715.8 351 715.8 351 715.8 351 715.4 351 715 351.25 715 351.5 715 351.75 715.4 352 715.8 352 718.2 352 718.2 352 718.2 352 718.6 352 719 351.75 719 351.5 719 351.25 718.6 351 718.2 351" fill="#0084AD" fill-rule="evenodd"/><path d="M710.273 351C707.727 351 707.727 351 707.727 351 707.364 351 707 351.25 707 351.5 707 351.75 707.364 352 707.727 352 710.273 352 710.273 352 710.273 352 710.636 352 711 351.75 711 351.5 711 351.25 710.636 351 710.273 351" fill="#0084AD" fill-rule="evenodd"/><path d="M766.375 360C762.625 360 762.625 360 762.625 360 762.312 360 762 360.25 762 360.5 762 361 762.312 361 762.625 361 766.375 361 766.375 361 766.375 361 766.688 361 767 361 767 360.5 767 360.25 766.688 360 766.375 360" fill="#0084AD" fill-rule="evenodd"/><path d="M759.323 360C739.677 360 739.677 360 739.677 360 739.339 360 739 360.25 739 360.5 739 361 739.339 361 739.677 361 759.323 361 759.323 361 759.323 361 759.661 361 760 361 760 360.5 760 360.25 759.661 360 759.323 360" fill="#0084AD" fill-rule="evenodd"/><path d="M735.231 360C731.769 360 731.769 360 731.769 360 731.385 360 731 360.25 731 360.5 731 361 731.385 361 731.769 361 735.231 361 735.231 361 735.231 361 735.615 361 736 361 736 360.5 736 360.25 735.615 360 735.231 360" fill="#0084AD" fill-rule="evenodd"/><path d="M727.289 360C712.711 360 712.711 360 712.711 360 712.356 360 712 360.25 712 360.5 712 361 712.356 361 712.711 361 727.289 361 727.289 361 727.289 361 727.644 361 728 361 728 360.5 728 360.25 727.644 360 727.289 360" fill="#0084AD" fill-rule="evenodd"/><path d="M766.308 369C758.692 369 758.692 369 758.692 369 758.346 369 758 369.25 758 369.5 758 369.75 758.346 370 758.692 370 766.308 370 766.308 370 766.308 370 766.654 370 767 369.75 767 369.5 767 369.25 766.654 369 766.308 369" fill="#0084AD" fill-rule="evenodd"/><path d="M754.375 369C750.625 369 750.625 369 750.625 369 750.312 369 750 369.25 750 369.5 750 369.75 750.312 370 750.625 370 754.375 370 754.375 370 754.375 370 754.688 370 755 369.75 755 369.5 755 369.25 754.688 369 754.375 369" fill="#0084AD" fill-rule="evenodd"/><path d="M745.333 369C728.667 369 728.667 369 728.667 369 728.333 369 728 369.25 728 369.5 728 369.75 728.333 370 728.667 370 745.333 370 745.333 370 745.333 370 745.667 370 746 369.75 746 369.5 746 369.25 745.667 369 745.333 369" fill="#0084AD" fill-rule="evenodd"/><path d="M766.333 342C760.667 342 760.667 342 760.667 342 760.333 342 760 342.5 760 343 760 343.5 760.333 344 760.667 344 766.333 344 766.333 344 766.333 344 766.667 344 767 343.5 767 343 767 342.5 766.667 342 766.333 342" fill="#0084AD" fill-rule="evenodd"/><path d="M753.333 342C750.667 342 750.667 342 750.667 342 750.333 342 750 342.5 750 343 750 343.5 750.333 344 750.667 344 753.333 344 753.333 344 753.333 344 753.667 344 754 343.5 754 343 754 342.5 753.667 342 753.333 342" fill="#0084AD" fill-rule="evenodd"/><path d="M747.296 342C723.704 342 723.704 342 723.704 342 723.352 342 723 342.5 723 343 723 343.5 723.352 344 723.704 344 747.296 344 747.296 344 747.296 344 747.648 344 748 343.5 748 343 748 342.5 747.648 342 747.296 342" fill="#0084AD" fill-rule="evenodd"/><path d="M719.316 342C707.684 342 707.684 342 707.684 342 707.342 342 707 342.5 707 343 707 343.5 707.342 344 707.684 344 719.316 344 719.316 344 719.316 344 719.658 344 720 343.5 720 343 720 342.5 719.658 342 719.316 342" fill="#0084AD" fill-rule="evenodd"/><path d="M703.294 342C698.706 342 698.706 342 698.706 342 698.353 342 698 342.5 698 343 698 343.5 698.353 344 698.706 344 703.294 344 703.294 344 703.294 344 703.647 344 704 343.5 704 343 704 342.5 703.647 342 703.294 342" fill="#0084AD" fill-rule="evenodd"/><path d="M695.308 342C687.692 342 687.692 342 687.692 342 687.346 342 687 342.5 687 343 687 343.5 687.346 344 687.692 344 695.308 344 695.308 344 695.308 344 695.654 344 696 343.5 696 343 696 342.5 695.654 342 695.308 342" fill="#0084AD" fill-rule="evenodd"/><path d="M766.309 377C748.691 377 748.691 377 748.691 377 748.345 377 748 377.5 748 378 748 378.5 748.345 379 748.691 379 766.309 379 766.309 379 766.309 379 766.655 379 767 378.5 767 378 767 377.5 766.655 377 766.309 377" fill="#0084AD" fill-rule="evenodd"/><path d="M745.333 377C740.667 377 740.667 377 740.667 377 740.333 377 740 377.5 740 378 740 378.5 740.333 379 740.667 379 745.333 379 745.333 379 745.333 379 746 379 746 378.5 746 378 746 377.5 746 377 745.333 377" fill="#0084AD" fill-rule="evenodd"/><path d="M738.333 377C737.667 377 737.667 377 737.667 377 737.333 377 737 377.5 737 378 737 378.5 737.333 379 737.667 379 738.333 379 738.333 379 738.333 379 738.667 379 739 378.5 739 378 739 377.5 738.667 377 738.333 377" fill="#0084AD" fill-rule="evenodd"/><path d="M733.316 377C721.684 377 721.684 377 721.684 377 721.342 377 721 377.5 721 378 721 378.5 721.342 379 721.684 379 733.316 379 733.316 379 733.316 379 733.658 379 734 378.5 734 378 734 377.5 733.658 377 733.316 377" fill="#0084AD" fill-rule="evenodd"/><path d="M766.333 386C757.667 386 757.667 386 757.667 386 757.333 386 757 386.25 757 386.5 757 386.75 757.333 387 757.667 387 766.333 387 766.333 387 766.333 387 766.667 387 767 386.75 767 386.5 767 386.25 766.667 386 766.333 386" fill="#0084AD" fill-rule="evenodd"/><path d="M754.29 386C744.71 386 744.71 386 744.71 386 744.355 386 744 386.25 744 386.5 744 386.75 744.355 387 744.71 387 754.29 387 754.29 387 754.29 387 754.645 387 755 386.75 755 386.5 755 386.25 754.645 386 754.29 386" fill="#0084AD" fill-rule="evenodd"/><path d="M739.333 386C736.667 386 736.667 386 736.667 386 736.333 386 736 386.25 736 386.5 736 386.75 736.333 387 736.667 387 739.333 387 739.333 387 739.333 387 739.667 387 740 386.75 740 386.5 740 386.25 739.667 386 739.333 386" fill="#0084AD" fill-rule="evenodd"/><path d="M732.333 386C727.667 386 727.667 386 727.667 386 727.333 386 727 386.25 727 386.5 727 386.75 727.333 387 727.667 387 732.333 387 732.333 387 732.333 387 732.667 387 733 386.75 733 386.5 733 386.25 732.667 386 732.333 386" fill="#0084AD" fill-rule="evenodd"/><path d="M766.333 395C748.667 395 748.667 395 748.667 395 748.333 395 748 395.25 748 395.5 748 395.75 748.333 396 748.667 396 766.333 396 766.333 396 766.333 396 766.667 396 767 395.75 767 395.5 767 395.25 766.667 395 766.333 395" fill="#0084AD" fill-rule="evenodd"/><path d="M740.314 395C729.686 395 729.686 395 729.686 395 729.343 395 729 395.25 729 395.5 729 395.75 729.343 396 729.686 396 740.314 396 740.314 396 740.314 396 740.657 396 741 395.75 741 395.5 741 395.25 740.657 395 740.314 395" fill="#0084AD" fill-rule="evenodd"/><path d="M725.4 395C723.6 395 723.6 395 723.6 395 723.3 395 723 395.25 723 395.5 723 395.75 723.3 396 723.6 396 725.4 396 725.4 396 725.4 396 725.7 396 726 395.75 726 395.5 726 395.25 725.7 395 725.4 395" fill="#0084AD" fill-rule="evenodd"/><rect x="409" y="266" width="45" height="13" fill="#71E6EB"/><rect x="459" y="266" width="21" height="13" fill="#71E6EB"/><rect x="695" y="274" width="66" height="5" fill="#71E6EB"/><path d="M529.294 387 456.384 412.326 409 507.669 552.819 508 566 479.033 566 415.471 547.313 392.793 529.294 387Z" fill="#1A6D8C" fill-rule="evenodd"/><path d="M621.814 376.799C680.245 379.568 680.245 379.568 680.245 379.568 738.676 436.671 738.676 436.671 738.676 436.671 792.957 337 792.957 337 792.957 337 822 366.417 822 366.417 822 366.417 765.644 511.771 765.644 511.771 765.644 511.771 765.644 511.771 760.112 518 748.702 513.847 737.293 509.694 690.617 477.163 690.617 477.163 684.048 508.31 684.048 508.31 684.048 508.31 596.92 508.31 596.92 508.31 596.92 508.31 596.92 508.31 562 469.895 562 467.818 562 465.396 567.186 414.176 567.532 411.753 567.878 409.331 576.521 401.717 576.521 401.717 590.005 385.797 590.005 385.797 590.005 385.797 621.814 376.799 621.814 376.799 621.814 376.799" fill="#1A6D8C" fill-rule="evenodd"/><path d="M796.331 322.913C787.693 303.869 787.693 303.869 787.693 303.869 772.837 281.363 772.837 281.363 772.837 281.363 772.837 281.363 769.727 275.131 768 273.746 768 273.746 772.837 265.782 779.401 270.63 785.966 275.131 795.64 288.634 798.749 290.019 801.859 291.404 819.479 276.169 820.861 273.746 822.589 271.322 829.153 229.772 831.226 225.271 833.299 221.116 836.409 218 839.864 219.039 843.664 220.424 842.973 225.964 842.628 227.695 842.628 229.08 835.372 272.707 835.372 272.707 835.372 272.707 837.1 275.131 839.518 274.092 867.504 222.501 867.504 222.501 867.504 222.501 867.504 222.501 871.304 218.692 875.796 220.77 880.633 222.501 878.905 227.695 878.905 227.695 852.647 282.056 852.647 282.056 852.647 282.056 852.647 282.056 854.029 284.133 855.757 284.826 893.762 251.24 893.762 251.24 893.762 251.24 893.762 251.24 898.944 249.162 901.708 251.932 904.127 254.702 901.708 259.55 901.708 259.55 865.085 294.174 865.085 294.174 865.085 294.174 865.085 294.174 864.049 296.944 868.195 300.061 905.163 286.211 905.163 286.211 905.163 286.211 905.163 286.211 908.618 286.557 909.309 289.327 910 292.097 907.236 294.174 907.236 294.174 867.849 313.218 867.849 313.218 867.849 313.218 867.849 313.218 846.083 339.533 831.226 350.266 816.715 361 814.297 344.38 814.297 344.38 795.294 327.414 795.294 327.414 795.294 327.414 796.331 322.913 796.331 322.913 796.331 322.913" fill="#FFD286" fill-rule="evenodd"/><path d="M520.245 258.935C520.245 258.935 517.528 252 513.453 252.347 509.038 252.694 507 262.403 509.717 270.726 512.094 278.702 516.17 289.798 519.566 292.573 522.962 295 525 291.532 525 287.718 524.66 283.903 520.245 258.935 520.245 258.935" fill="#E5AC63" fill-rule="evenodd"/><path d="M640.811 258.463C640.811 258.463 646.585 254 648.623 261.552 651 269.448 645.226 288.672 642.509 293.478 639.453 297.94 637.076 300 635.038 297.94 633 295.881 633.34 284.896 633.34 284.896 640.811 258.463 640.811 258.463 640.811 258.463" fill="#E5AC63" fill-rule="evenodd"/><path d="M611.922 332.148C612.268 333.183 612.268 333.183 612.268 333.183 614 366.646 614 366.646 614 366.646 567.593 387 567.593 387 567.593 387 535.385 374.236 535.385 374.236 535.385 374.236 534 308 534 308 534 308 566.9 337.668 566.9 337.668 566.9 337.668 566.9 337.668 590.104 340.773 590.797 340.428 591.489 339.738 611.922 332.148 611.922 332.148" fill="#E5AC63" fill-rule="evenodd"/><path d="M520.079 267.852C530.126 321.481 530.126 321.481 530.126 321.481 559.575 359.886 559.575 359.886 559.575 359.886 601.843 363 601.843 363 601.843 363 630.945 322.519 630.945 322.519 630.945 322.519 645.843 258.511 645.843 258.511 645.843 258.511 645.843 258.511 650 226.679 650 225.987 650 224.949 628.866 210.072 625.402 209.034 621.937 207.996 566.85 201.076 563.386 200.038 560.268 199 539.134 201.076 536.709 201.768 533.937 202.46 523.89 211.802 523.543 212.494 522.85 213.186 518.346 219.759 518 220.451 518 221.489 519.386 260.241 519.386 260.241 520.079 267.852 520.079 267.852 520.079 267.852" fill="#FFD286" fill-rule="evenodd"/><path d="M567.621 281.217C569 256.174 569 256.174 569 256.174 569 256.174 566.241 252 560.724 254.783 559 279.826 559 279.826 559 279.826 559 279.826 562.103 284 567.621 281.217Z" fill="#54211C" fill-rule="evenodd"/><path d="M562.6 257.034C562.6 257.034 562 263.241 562 263.931 562.3 264.621 563.5 266 564.7 264.621 565 257.034 565 257.034 565 257.034 565 257.034 564.7 256 563.5 256 562.6 256 562.6 257.034 562.6 257.034Z" fill="#FFFFFF" fill-rule="evenodd"/><path d="M608.621 284.217C610 259.174 610 259.174 610 259.174 610 259.174 607.241 255 601.724 257.783 600 282.478 600 282.478 600 282.478 600 282.478 603.103 287 608.621 284.217Z" fill="#54211C" fill-rule="evenodd"/><path d="M602.4 260.034C602.4 260.034 602 266.241 602 266.931 602 267.621 604 269 605.6 267.621 606 260.034 606 260.034 606 260.034 606 260.034 605.6 259 604 259 602.4 259 602.4 260.034 602.4 260.034Z" fill="#FFFFFF" fill-rule="evenodd"/><path d="M597 289.019C597 289.019 601.828 289.358 601.828 296.491 601.828 303.623 598.034 306 598.034 306 598.034 306 606.655 303.623 607 296.83 607 290.038 599.069 288 597 289.019Z" fill="#C18544" fill-rule="evenodd"/><path d="M604 316.084C603.315 317.482 602.629 319.928 601.944 322.723 600.916 327.265 599.888 332.506 599.545 334.952 599.203 335.651 599.203 336 599.203 336 599.203 336 568.021 334.253 565.28 333.554 562.881 332.506 560.483 331.108 560.483 331.108 558.769 328.663 558.084 326.217 557.056 323.771 556.371 320.976 555.685 318.53 555.685 316.084 555 310.843 556.028 307 556.028 307 556.028 307 557.399 311.542 558.769 311.892 560.483 311.892 604 315.386 604 316.084Z" fill="#77000E" fill-rule="evenodd"/><path d="M572 342 592 343.111 588.5 347 572 342Z" fill="#C18544" fill-rule="evenodd"/><path d="M573 239.163C570.949 243 570.949 243 570.949 243 570.949 243 561.721 233.93 547.709 243 546 238.116 546 238.116 546 238.116 546 238.116 556.595 228 573 239.163Z" fill="#9B5A50" fill-rule="evenodd"/><path d="M602 242.927C603.355 246 603.355 246 603.355 246 603.355 246 612.839 238.829 620.629 246 623 242.585 623 242.585 623 242.585 623 242.585 615.548 232 602 242.927" fill="#9B5A50" fill-rule="evenodd"/><path d="M604 316.244C603.315 317.667 602.629 320.156 601.944 323 595.091 322.644 572.133 322.289 563.909 320.511 560.14 319.444 557.399 318.022 555.685 316.244 555 310.911 556.028 307 556.028 307 556.028 307 557.399 311.622 558.769 311.978 560.483 311.978 604 315.533 604 316.244Z" fill="#FFFFFF" fill-rule="evenodd"/><path d="M544.5 213.882C544.5 213.882 616.154 255.688 663.577 224.938 659.769 222.865 659.769 222.865 659.769 222.865 666 218.719 666 218.719 666 218.719 666 218.719 662.885 213.191 661.5 206.972 660.115 200.407 648.346 160.329 594 155.146 549 151 528.577 170.003 524.423 185.205 524.423 185.205 495 209.736 519.577 259.834 520.962 274 520.962 274 520.962 274 524.423 246.014 524.423 246.014 524.423 246.014 524.423 246.014 538.269 234.267 544.5 213.882" fill="#9B5A50" fill-rule="evenodd"/><path d="M643 231.15 643 268 654 227 643 231.15Z" fill="#9B5A50" fill-rule="evenodd"/><path d="M548 404.402 560.092 429 578.144 427.661 587 401.892 567.074 387 548 404.402Z" fill="#EC4963" fill-rule="evenodd"/><path d="M601 508 577.912 427 560.305 428.333 552 508 601 508Z" fill="#EC4963" fill-rule="evenodd"/><path d="M495 508 485.774 472 484 508 495 508Z" fill="#025068" fill-rule="evenodd"/><path d="M796.697 323 790 336.699 825.936 374 831 350.068 796.697 323Z" fill="#04607C" fill-rule="evenodd"/><path d="M857 306C857 306 848 286.095 830 284 831.385 287.143 831.385 287.143 831.385 287.143 831.385 287.143 846.269 287.492 857 306Z" fill="#C98C49" fill-rule="evenodd"/><path d="M817.667 323C817.667 323 819.333 307.685 815 297 817.333 298.068 817.333 298.068 817.333 298.068 817.333 298.068 821 310.89 817.667 323Z" fill="#C98C49" fill-rule="evenodd"/><path d="M600 334.923C599.653 335.641 599.653 336 599.653 336 599.653 336 568.097 334.205 565.323 333.487 562.895 332.41 560.468 330.974 560.468 330.974 558.734 328.462 558.04 325.949 557 323.436 577.46 322 592.718 329.897 600 334.923Z" fill="#CE0019" fill-rule="evenodd"/><path d="M613.641 366 567 386.586 588.231 406 622 376.544 613.641 366Z" fill="#04607C" fill-rule="evenodd"/><path d="M567 386.833 547.496 409 529 386.833 534.549 374 567 386.833Z" fill="#04607C" fill-rule="evenodd"/><path d="M513.028 207C513.028 207 505 232.041 520.009 258.11 521.057 266 521.057 266 521.057 266 523.151 244.39 523.151 244.39 523.151 244.39 523.151 244.39 536.066 233.756 542 215.576 542 215.576 541.651 215.576 540.953 215.576 537.113 215.576 521.755 215.233 513.028 207" fill="#783830" fill-rule="evenodd"/><path d="M651 232 644.622 234.609 644 262 651 232Z" fill="#783830" fill-rule="evenodd"/><path d="M537 199C537.688 205.923 544.228 212.154 544.228 212.154 580.025 232.231 609.971 235 623.739 235 628.902 235 632 234.654 632 234.654 578.993 231.538 537 199 537 199" fill="#783830" fill-rule="evenodd"/><path d="M645 218C645 218 650.333 221.667 658.333 223 664 219 664 219 664 219 664 219 662.333 219.333 659.667 219.333 656 219.333 650.667 219 645 218" fill="#783830" fill-rule="evenodd"/><path d="M539 169C539 169 530.95 171.72 525 186 530.95 184.98 530.95 184.98 530.95 184.98 530.95 184.98 530.95 175.8 539 169" fill="#783830" fill-rule="evenodd"/><path d="M544.762 217C544.762 217 540.61 234.636 525.038 247.084 524 254 524 254 524 254 524 254 538.188 246.738 547.877 224.607 547.877 224.607 573.83 239.131 604.974 241.206 608.088 239.131 610.856 238.439 613.279 238.439 616.393 238.439 618.815 239.822 620.545 240.86 627.466 240.168 634.733 238.785 642 236.019 642 236.019 635.771 238.093 623.314 238.093 607.05 238.093 580.405 234.29 544.762 217" fill="#FFBC61" fill-rule="evenodd"/><path d="M613.533 238C611.044 238 608.2 238.75 605 241 607.489 241 609.622 241 611.756 241 614.956 241 617.8 241 621 240.625 619.222 239.5 616.733 238 613.533 238" fill="#783830" fill-rule="evenodd"/><path d="M535 332 536.841 372.46 548.559 378 548.559 360.876 557.263 368.263 602.961 369.606 611.163 358.19 612 351.81 602.459 364.737 558.77 361.883 535 332Z" fill="#D78B40" fill-rule="evenodd"/><path d="M524.177 261 522 273.5 531.042 320.167 559.674 358.333 601.033 361 630 322.333 601.033 356.833 561.684 354.167 534.558 317.167 524.177 261Z" fill="#FFBC61" fill-rule="evenodd"/><path d="M513.743 253C511.686 253 511 255.092 511 255.092 511 255.092 512.371 259.275 515.8 270.083 519.229 280.541 518.2 288.908 518.2 288.908 519.571 290.651 520.6 291 521.629 291 522.657 291 523 290.303 523 290.303 517.857 259.972 517.857 259.972 517.857 259.972 514.771 253.349 514.771 253.349 514.771 253.349 514.429 253 514.086 253 513.743 253" fill="#D78B40" fill-rule="evenodd"/><path d="M643.476 274C637 298 637 298 637 298 637 298 643.095 293.765 645 285.294 645 285.294 643.476 279.294 643.476 274" fill="#D78B40" fill-rule="evenodd"/><path d="M536.32 376 532 386.569 540 396 548 381.203 536.32 376Z" fill="#023D57" fill-rule="evenodd"/><path d="M457 416 414 507 425.333 507 457 416Z" fill="#0C4867" fill-rule="evenodd"/><path d="M567.326 389C552 406.304 552 406.304 552 406.304 560.708 427 560.708 427 560.708 427 565.933 427 565.933 427 565.933 427 565.933 427 559.315 416.482 564.888 406.304 567.326 402.232 570.809 401.214 573.944 401.214 578.82 401.214 583 403.929 583 403.929 567.326 389 567.326 389 567.326 389" fill="#E22A40" fill-rule="evenodd"/><path d="M566 430 561.714 430 554 507 561.714 507 566 430Z" fill="#E22A40" fill-rule="evenodd"/><path d="M814.511 365C755.125 493.366 755.125 493.366 755.125 493.366 684 440.915 684 440.915 684 440.915 688.834 471.627 688.834 471.627 688.834 471.627 748.22 510.62 748.22 510.62 748.22 510.62 748.22 510.62 752.363 512 756.161 512 759.269 512 762.376 511.31 763.412 508.204 766.174 500.613 819 369.486 819 369.486 814.511 365 814.511 365 814.511 365" fill="#145D7B" fill-rule="evenodd"/><path d="M907.925 288C907.925 288 906.541 290.743 905.503 291.429 862.959 308.229 862.959 308.229 862.959 308.229 862.959 308.229 851.544 334.971 826.986 334.971 821.798 334.971 815.572 333.6 809 330.514 831.483 348 831.483 348 831.483 348 831.483 348 858.116 325.714 867.11 310.971 906.887 292.457 906.887 292.457 906.887 292.457 906.887 292.457 910 290.057 907.925 288" fill="#FFBC61" fill-rule="evenodd"/><path d="M822.92 345 816 360.07 825.655 371 830 350.796 822.92 345Z" fill="#03506B" fill-rule="evenodd"/><path d="M736.861 509C721 509 721 509 721 509 721 509 730.869 521.857 750.959 524 751.311 524 751.664 524 752.016 524 760.475 524 764 515.429 764 515.429 761.885 516.857 759.418 517.214 756.951 517.214 754.131 517.214 750.959 516.5 748.139 515.429 743.91 514 736.861 509 736.861 509" fill="#B4B6B9" fill-rule="evenodd"/><path d="M622.669 539 524.662 539 524 547 623 547 622.669 539Z" fill="#929292" fill-rule="evenodd"/><path d="M834.908 178C715.092 178 715.092 178 715.092 178 693.968 178 677 160.5 677 139.5 677 118.5 693.968 101 715.092 101 834.908 101 834.908 101 834.908 101 856.032 101 873 118.5 873 139.5 873 160.5 856.032 178 834.908 178Z" fill="#FFD34D" fill-rule="evenodd"/><path d="M712.5 171 682 215 743 174.191 712.5 171Z" fill="#FFD34D" fill-rule="evenodd"/><path d="M731.863 125 731.863 136.96 746.137 136.96 746.137 125 750 125 750 154 746.137 154 746.137 140.401 731.863 140.401 731.863 154 728 154 728 125 731.863 125Z" fill="#D38E2A" fill-rule="evenodd"/><path d="M758.333 143.688C758.667 148.844 761.667 150.906 765.333 150.906 768 150.906 769.667 150.562 771 149.875 771.667 152.625 771.667 152.625 771.667 152.625 770.333 153.312 768.333 154 765 154 758.667 154 755 149.875 755 143.344 755 137.156 758.667 132 764.333 132 771 132 773 138.188 773 141.969 773 142.656 772.667 143.344 772.667 143.688L758.333 143.688ZM769.333 140.938C769.333 138.531 768.333 134.75 764.333 134.75 760.333 134.75 758.667 138.531 758.667 140.938L769.333 140.938Z" fill="#D38E2A" fill-rule="evenodd"/><rect x="778" y="123" width="4" height="31" fill="#D38E2A"/><rect x="788" y="123" width="4" height="31" fill="#D38E2A"/><path d="M818 143C818 150.562 812.4 154 807.15 154 801.55 154 797 149.875 797 143.344 797 136.125 801.9 132 807.5 132 813.8 132 818 136.469 818 143ZM800.85 143C800.85 147.812 803.65 151.25 807.5 151.25 811.35 151.25 813.8 147.812 813.8 143 813.8 139.562 812.05 135.094 807.5 135.094 802.95 135.094 800.85 139.219 800.85 143Z" fill="#D38E2A" fill-rule="evenodd"/><path d="M533.333 530C530 517 530 517 530 517 531.667 517 531.667 517 531.667 517 533.333 523.5 533.333 523.5 533.333 523.5 533.667 525.125 534 526.75 534.333 528.05 534.333 528.05 534.333 528.05 534.333 528.05 534.667 526.75 535 525.125 535.333 523.5 537 517 537 517 537 517 539 517 539 517 539 517 540.667 523.5 540.667 523.5 540.667 523.5 541 525.125 541.333 526.75 541.667 528.05 541.667 528.05 541.667 528.05 541.667 528.05 541.667 526.75 542.333 525.125 542.667 523.5 544.333 517 544.333 517 544.333 517 546 517 546 517 546 517 542.333 530 542.333 530 542.333 530 540.667 530 540.667 530 540.667 530 539 523.175 539 523.175 539 523.175 538.333 521.55 538.333 520.25 538 518.95 538 518.95 538 518.95 538 518.95 537.667 520.25 537.333 521.55 537 523.175 535 530 535 530 535 530L533.333 530Z" fill="#606060" fill-rule="evenodd"/><path d="M555.333 523.892 550.167 523.892 550.167 528.747 556 528.747 556 530 548 530 548 517 555.667 517 555.667 518.41 550.167 518.41 550.167 522.639 555.333 522.639 555.333 523.892Z" fill="#606060" fill-rule="evenodd"/><path d="M558 517C558.72 517 559.8 517 561.24 517 563.04 517 564.12 517.325 565.2 517.975 565.92 518.3 566.28 518.95 566.28 520.25 566.28 521.225 565.56 522.525 563.76 522.85 563.76 522.85 563.76 522.85 563.76 522.85 565.2 523.175 567 524.475 567 526.1 567 527.4 566.28 528.375 565.56 528.7 564.84 529.675 563.04 530 560.88 530 559.44 530 558.36 530 558 530L558 517ZM559.8 522.525C561.24 522.525 561.24 522.525 561.24 522.525 563.4 522.525 564.48 521.55 564.48 520.25 564.48 518.625 563.04 518.3 561.24 518.3 560.52 518.3 559.8 518.3 559.8 518.3L559.8 522.525ZM559.8 528.7C560.16 528.7 560.52 528.7 561.24 528.7 563.04 528.7 564.84 528.05 564.84 526.1 564.84 524.475 563.4 523.825 561.24 523.825 559.8 523.825 559.8 523.825 559.8 523.825L559.8 528.7Z" fill="#606060" fill-rule="evenodd"/><rect x="570" y="517" width="1" height="13" fill="#606060"/><path d="M574 530C574 517 574 517 574 517 575.833 517 575.833 517 575.833 517 580.6 523.5 580.6 523.5 580.6 523.5 581.7 525.125 582.433 526.425 583.167 527.725 583.167 527.725 583.167 527.725 583.167 527.725 583.167 526.1 583.167 524.475 583.167 522.525 583.167 517 583.167 517 583.167 517 585 517 585 517 585 517 585 530 585 530 585 530 583.167 530 583.167 530 583.167 530 578.4 523.5 578.4 523.5 578.4 523.5 577.3 521.875 576.2 520.575 575.467 518.95 575.467 518.95 575.467 518.95 575.467 518.95 575.833 520.575 575.833 522.2 575.833 524.475 575.833 530 575.833 530 575.833 530L574 530Z" fill="#606060" fill-rule="evenodd"/><path d="M590 525.775C588.667 530 588.667 530 588.667 530 587 530 587 530 587 530 591.333 517 591.333 517 591.333 517 593.667 517 593.667 517 593.667 517 598 530 598 530 598 530 596.333 530 596.333 530 596.333 530 594.667 525.775 594.667 525.775 594.667 525.775L590 525.775ZM594.333 524.475C593 520.9 593 520.9 593 520.9 592.667 519.925 592.667 519.275 592.333 518.625 592.333 518.625 592.333 518.625 592.333 518.625 592.333 519.275 592 519.925 591.667 520.9 590.333 524.475 590.333 524.475 590.333 524.475L594.333 524.475Z" fill="#606060" fill-rule="evenodd"/><path d="M600 517C601.038 517 602.077 517 603.462 517 605.192 517 606.577 517.325 607.269 517.975 607.962 518.625 608.654 519.275 608.654 520.575 608.654 522.2 607.269 523.175 605.885 523.825 605.885 523.825 605.885 523.825 605.885 523.825 606.923 524.15 607.615 525.125 607.962 526.425 608.308 528.05 608.654 529.35 609 530 607.269 530 607.269 530 607.269 530 606.923 529.675 606.577 528.375 606.231 526.75 605.885 525.125 605.192 524.475 603.462 524.475 601.731 524.475 601.731 524.475 601.731 524.475 601.731 530 601.731 530 601.731 530 600 530 600 530 600 530L600 517ZM601.731 523.175C603.462 523.175 603.462 523.175 603.462 523.175 605.538 523.175 606.577 522.2 606.577 520.575 606.577 518.95 605.538 518.3 603.462 518.3 602.769 518.3 602.077 518.3 601.731 518.3L601.731 523.175Z" fill="#606060" fill-rule="evenodd"/></g></svg>