<svg width="510" height="511" xmlns="http://www.w3.org/2000/svg" xmlns:xlink="http://www.w3.org/1999/xlink" overflow="hidden"><defs><clipPath id="clip0"><rect x="385" y="124" width="510" height="511"/></clipPath></defs><g clip-path="url(#clip0)" transform="translate(-385 -124)"><path d="M704.2 453.26C702.2 460.476 700 467.29 697.6 473.703 686.8 501.762 672 517.194 656 517.194 640.2 517.194 625.4 501.762 614.4 473.703 612 467.29 609.8 460.476 607.8 453.461 607.6 453.461 607.4 453.461 607.2 453.661 609.2 461.678 611.8 469.494 614.4 476.509 625.4 504.568 640.2 520 656 520 672 520 686.8 504.568 697.6 476.509 700.4 469.494 702.8 461.678 704.8 453.661 704.6 453.461 704.4 453.461 704.2 453.26M713.4 397.544C713.2 397.744 713.2 397.744 713.2 397.744 711.8 415.582 709.4 432.417 705.6 447.649 705.8 447.649 706 447.649 706.4 447.849 709.8 432.417 712.2 415.381 713.4 397.544M598.8 397.544C599.8 415.381 602.2 432.417 605.8 447.849 606 447.649 606.2 447.649 606.4 447.649 602.8 432.417 600.2 415.582 599 397.744 598.8 397.744 598.8 397.744 598.8 397.544M598 372.892C598 373.293 598 373.895 598 374.295 598 379.707 598.2 385.118 598.4 390.329 598.4 390.329 598.4 390.529 598.4 390.529 598.2 384.717 598 378.705 598 372.892M714 372.892C714 378.705 713.8 384.717 713.6 390.529 713.6 390.529 713.6 390.329 713.8 390.329 714 385.118 714 379.707 714 374.295 714 373.895 714 373.293 714 372.892M604.4 339.422C604.4 339.422 604.2 339.422 604.2 339.623 603.2 349.844 602.8 360.667 602.8 371.49 602.8 371.89 602.8 372.291 602.8 372.892 602.8 361.469 603.4 350.245 604.4 339.422M707.6 339.422C708.6 350.245 709.2 361.469 709.2 372.892 709.2 372.291 709.2 371.89 709.2 371.49 709.2 360.667 708.8 349.844 707.8 339.623 707.8 339.422 707.8 339.422 707.6 339.422M699 288.917C698.8 288.917 698.6 289.117 698.4 289.117 702 302.145 705 316.575 706.8 331.807 707 332.007 707 332.007 707.2 332.207 705.4 316.575 702.8 302.145 699 288.917M613 288.917C609.4 302.145 606.6 316.575 605 332.207 605 332.007 605.2 332.007 605.2 331.807 607.2 316.575 610 302.145 613.8 289.117 613.6 289.117 613.2 288.917 613 288.917M671.4 236.808C671 237.409 670.6 238.01 670 238.612 678.6 244.825 686.6 257.05 693.2 273.885 694.4 276.892 695.4 280.098 696.6 283.506 696.8 283.305 697.2 283.305 697.4 283.305 696 278.896 694.6 274.888 693.2 270.879 687 255.046 679.6 243.422 671.4 236.808M646.2 233C636 238.211 626.4 251.439 619 270.879 617.4 274.888 616 278.896 614.6 283.305 615 283.305 615.2 283.305 615.6 283.506 616.6 280.098 617.8 276.892 619 273.885 626.8 253.643 636.8 240.215 647.2 235.405 646.8 234.603 646.4 233.802 646.2 233" fill="#D9D9D9" fill-rule="evenodd"/><path d="M656 517C640.2 517 625.4 501.6 614.4 473.6 603.8 446.2 598 410 598 371.6 598 333 603.8 296.8 614.4 269.6 625.4 241.4 640.2 226 656 226 672 226 686.8 241.4 697.6 269.6 708.2 296.8 714 333 714 371.6 714 410 708.2 446.2 697.6 473.6 686.8 501.6 672 517 656 517M656 230.8C642.4 230.8 629 245.6 619 271.2 608.6 298 602.8 333.6 602.8 371.6 602.8 409.4 608.6 445 619 471.8 629 497.4 642.4 512.2 656 512.2 669.6 512.2 683.2 497.4 693.2 471.8 703.6 445 709.2 409.4 709.2 371.6 709.2 333.6 703.6 298 693.2 271.2 683.2 245.6 669.6 230.8 656 230.8" fill="#0A3D54" fill-rule="evenodd"/><path d="M746.603 369.639C746.2 370.241 745.798 370.642 745.195 371.043 764.703 390.693 777.575 410.144 780.994 425.784 781.397 427.99 781.799 429.995 781.799 432 782 429.193 781.598 426.185 780.994 422.977 777.776 407.537 765.307 388.688 746.603 369.639M713.619 340.564C713.619 341.567 713.82 342.569 713.82 343.572 723.876 351.392 733.127 359.413 741.373 367.433 741.977 366.832 742.379 366.431 742.982 365.829 734.334 357.408 724.479 348.785 713.619 340.564M659.316 305.875C658.511 306.476 657.506 306.877 656.5 307.278 666.355 312.492 676.411 318.106 686.065 324.322 693.909 329.135 701.35 334.348 708.389 339.561 708.389 338.559 708.188 337.356 707.987 336.353 701.149 331.14 693.708 326.127 686.065 321.314 677.216 315.7 668.366 310.687 659.316 305.875M614.868 286.625C614.466 287.427 614.264 288.43 614.063 289.232 625.728 293.242 637.796 298.255 650.265 304.27 651.07 303.669 652.075 303.268 653.081 302.666 640.008 296.25 627.136 290.836 614.868 286.625M565.794 277C550.509 277 539.849 281.211 534.62 288.831 532.207 292.64 531 297.252 531.201 302.666 531.402 298.455 532.609 294.846 534.62 291.638 539.849 284.018 550.509 280.008 565.794 280.008 578.062 280.008 592.744 282.615 608.633 287.627 608.834 286.625 609.236 285.823 609.438 284.82 593.147 279.807 578.264 277 565.794 277" fill="#D9D9D9" fill-rule="evenodd"/><path d="M707.399 336.613C707.599 337.609 707.8 338.805 707.8 339.801 708 339.801 708 339.801 708 340 708 339.004 708 337.808 707.8 336.812 707.8 336.812 707.599 336.812 707.399 336.613M613.802 287C613.601 287.797 613.2 288.594 613 289.59 613.2 289.59 613.601 289.789 613.802 289.789 614.002 288.992 614.203 287.996 614.603 287.199 614.203 287.199 614.002 287 613.802 287" fill="#B9B9B9" fill-rule="evenodd"/><path d="M708.528 336.952C708.73 337.959 708.73 339.167 708.73 340.174 710.555 341.382 712.379 342.792 714 344 714 342.993 713.797 341.986 713.797 340.98 711.973 339.57 710.352 338.362 708.528 336.952M608.811 285C608.608 286.007 608.203 286.812 608 287.819 609.621 288.222 611.04 288.625 612.662 289.229 612.864 288.222 613.27 287.416 613.472 286.611 611.851 286.007 610.432 285.604 608.811 285" fill="#093447" fill-rule="evenodd"/><path d="M706.232 451.188C706.031 452.189 705.83 452.99 705.428 453.991 711.457 455.593 717.083 457.195 722.508 458.196 721.704 457.395 721.102 456.194 720.7 454.992 716.078 453.991 711.256 452.589 706.232 451.188M659.213 432.564C658.409 432.965 657.404 433.565 656.4 433.966 671.47 441.575 686.339 447.783 700.204 452.189 700.405 451.388 700.606 450.387 701.008 449.586 687.545 445.38 673.479 439.573 659.213 432.564M784.799 432.164C784.598 436.97 783.192 441.175 780.78 444.779 775.154 453.591 763.5 458.196 747.224 458.196 743.607 458.196 739.588 457.796 735.569 457.395 734.765 458.397 733.761 459.398 732.555 459.999 737.78 460.599 742.602 461 747.224 461 763.5 461 775.154 456.394 780.78 447.783 783.794 443.378 785 438.171 784.799 432.164M603.955 398.921C603.955 399.923 604.156 400.924 604.156 401.925 610.987 406.932 618.02 411.738 625.254 416.143 633.493 421.35 641.731 426.356 650.17 430.762 650.974 430.161 651.979 429.76 652.984 429.36 643.74 424.554 634.296 419.147 625.254 413.34 617.819 408.734 610.787 403.928 603.955 398.921M569.192 369.885C568.79 370.285 568.389 370.886 567.786 371.286 577.029 380.498 587.478 389.309 598.931 397.92 598.73 396.919 598.73 395.918 598.73 394.916 587.88 386.906 578.034 378.496 569.192 369.885M528 303C528 306.004 528.201 309.408 529.005 312.812 532.019 327.231 542.669 344.452 559.748 362.876 561.155 364.478 562.561 366.08 564.169 367.682 564.571 367.081 564.973 366.681 565.575 366.08 563.566 364.077 561.557 362.075 559.748 360.072 542.669 341.649 532.019 324.227 529.005 309.809 528.402 307.406 528.201 305.203 528 303" fill="#D9D9D9" fill-rule="evenodd"/><path d="M705.2 451C705 452 704.8 452.8 704.6 453.6 704.8 453.8 705 453.8 705.2 454 705.6 453 705.8 452.2 706 451.2 705.8 451.2 705.6 451.2 705.2 451M599 395C599 396 599 397 599.2 398 599.2 398.2 599.2 398.2 599.4 398.2 599.2 397.2 599.2 396.2 599.2 395.2 599 395.2 599 395.2 599 395" fill="#B9B9B9" fill-rule="evenodd"/><path d="M700.6 449.959C700.2 450.767 700 451.777 699.8 452.586 701.4 453.192 702.8 453.596 704.4 454 704.6 453.192 704.8 452.384 705 451.373 703.6 450.969 702 450.565 700.6 449.959M599 395C599 396.01 599 397.021 599.2 398.031 600.8 399.445 602.6 400.658 604.2 401.87 604.2 400.86 604 399.849 604 398.839 602.2 397.627 600.6 396.212 599 395" fill="#093447" fill-rule="evenodd"/><path d="M747.391 458C715.821 458 668.967 440.781 625.332 413.151 599.592 396.934 577.071 378.514 559.777 359.893 542.685 341.473 532.027 324.054 529.011 309.639 527 300.829 528.005 293.221 532.027 287.214 537.859 278.605 549.321 274 565.81 274 597.38 274 644.033 291.219 687.87 318.849 713.408 335.066 736.13 353.486 753.424 372.107 770.315 390.527 780.973 407.745 784.19 422.161 786 431.171 784.995 438.779 780.973 444.585 775.342 453.395 763.679 458 747.391 458M565.81 277.203C550.527 277.203 539.87 281.408 534.641 289.016 531.223 294.222 530.418 301.029 532.027 309.038 538.261 337.669 576.467 378.514 626.94 410.548 670.174 437.778 716.223 454.797 747.391 454.797 762.473 454.797 773.332 450.592 778.359 442.984 781.777 437.778 782.783 430.971 780.973 422.962 774.739 394.131 736.734 353.486 686.06 321.452 642.826 294.222 596.777 277.203 565.81 277.203" fill="#0A3D54" fill-rule="evenodd"/><path d="M566.225 369.639C547.706 388.688 535.227 407.537 531.805 422.977 531.201 426.185 531 429.193 531 432 531.201 429.995 531.403 427.99 531.805 425.784 535.227 410.144 548.31 390.693 567.634 371.043 567.231 370.642 566.627 370.241 566.225 369.639M599.235 340.564C588.567 348.785 578.704 357.408 570.049 365.829 570.451 366.431 571.055 366.832 571.458 367.433 579.711 359.413 588.97 351.392 599.034 343.572 599.235 342.569 599.235 341.567 599.235 340.564M653.581 305.875C644.725 310.687 635.667 315.7 626.811 321.314 619.162 326.127 611.916 331.14 604.871 336.353 604.67 337.356 604.67 338.559 604.468 339.561 611.715 334.348 619.162 329.135 626.811 324.322 636.674 318.106 646.536 312.492 656.399 307.278 655.594 306.877 654.588 306.476 653.581 305.875M698.266 286.625C685.988 290.836 673.106 296.25 660.022 302.666 660.828 303.268 661.834 303.669 662.84 304.27 675.119 298.255 687.397 293.242 699.071 289.232 698.669 288.43 698.468 287.427 698.266 286.625M747.379 277C734.9 277 719.804 279.807 703.5 284.82 703.902 285.823 704.103 286.625 704.305 287.627 720.206 282.615 735.101 280.008 747.379 280.008 762.476 280.008 773.345 284.018 778.377 291.638 780.39 294.846 781.597 298.455 781.799 302.666 782 297.252 780.994 292.64 778.377 288.831 773.345 281.211 762.476 277 747.379 277" fill="#D9D9D9" fill-rule="evenodd"/><path d="M604.601 336.613C604.401 336.812 604.401 336.812 604.2 336.812 604.2 337.808 604 339.004 604 340 604 339.801 604.2 339.801 604.2 339.801 604.401 338.805 604.401 337.609 604.601 336.613M698.399 287C697.998 287 697.797 287.199 697.597 287.199 697.797 287.996 697.998 288.992 698.399 289.789 698.599 289.789 698.8 289.59 699 289.59 698.8 288.793 698.599 287.797 698.399 287" fill="#B9B9B9" fill-rule="evenodd"/><path d="M604.421 336.952C602.815 338.362 601.008 339.57 599.201 340.98 599.201 341.986 599.201 342.993 599 344 600.807 342.792 602.413 341.382 604.22 340.174 604.22 339.167 604.421 337.959 604.421 336.952M703.197 285C701.792 285.604 700.185 286.007 698.78 286.611 698.981 287.416 699.182 288.423 699.382 289.229 700.989 288.625 702.595 288.222 704 287.819 703.799 286.812 703.598 286.007 703.197 285" fill="#093447" fill-rule="evenodd"/><path d="M567.409 368.217C567.006 368.614 566.403 369.211 566 369.608 566.403 370.205 567.006 370.602 567.409 371 568.013 370.602 568.416 370.006 568.818 369.608 568.416 369.211 568.013 368.614 567.409 368.217M656.182 305C655.377 305.398 654.37 305.994 653.364 306.392 654.37 306.988 655.377 307.386 656.182 307.783 657.188 307.386 658.195 306.988 659 306.392 658.195 305.994 657.188 305.398 656.182 305" fill="#B9B9B9" fill-rule="evenodd"/><path d="M570.41 366.189C569.607 366.991 568.803 367.793 568 368.596 568.603 368.997 569.004 369.599 569.406 370 570.209 369.198 571.013 368.395 571.816 367.793 571.414 367.192 570.812 366.79 570.41 366.189M660.188 303C658.983 303.602 657.778 304.204 656.573 304.805 657.577 305.207 658.581 305.808 659.385 306.21 660.59 305.608 661.795 305.006 663 304.605 661.996 304.003 660.992 303.602 660.188 303" fill="#093447" fill-rule="evenodd"/><path d="M653.689 432.564C639.434 439.573 625.379 445.38 612.127 449.586 612.328 450.587 612.529 451.388 612.73 452.189 626.784 447.783 641.642 441.575 656.5 433.966 655.496 433.565 654.693 432.965 653.689 432.564M528.201 432.164C528 438.171 529.405 443.378 532.216 447.783 537.838 456.394 549.484 461 565.948 461 565.948 461 565.948 461 565.948 461 577.794 461 592.049 458.597 607.509 453.991 607.309 452.99 607.108 452.189 606.907 451.188 591.648 455.793 577.794 458.196 565.948 458.196 565.948 458.196 565.948 458.196 565.948 458.196 549.484 458.196 537.838 453.591 532.216 444.779 529.807 441.175 528.402 436.97 528.201 432.164M708.904 398.921C702.278 403.928 695.05 408.734 687.822 413.34 678.586 419.147 669.35 424.554 660.114 429.36 660.917 429.76 661.921 430.161 662.925 430.762 671.157 426.356 679.59 421.35 687.822 416.143 695.05 411.738 702.077 406.932 708.703 401.925 708.904 400.924 708.904 399.923 708.904 398.921M743.639 369.885C734.805 378.496 724.966 386.906 714.325 394.916 714.124 395.918 714.124 396.919 714.124 397.92 725.368 389.309 735.809 380.498 745.045 371.286 744.643 370.886 744.041 370.285 743.639 369.885M773.355 334.24C768.134 342.45 761.509 351.061 753.277 360.072 751.269 362.075 749.462 364.077 747.454 366.08 747.855 366.681 748.257 367.081 748.859 367.682 750.265 366.08 751.871 364.478 753.277 362.876 762.111 353.264 769.339 343.852 774.559 334.84 774.158 334.64 773.756 334.44 773.355 334.24M784.799 303C784.799 305.203 784.398 307.406 783.996 309.809 783.394 312.812 782.39 315.616 781.185 318.62 781.587 318.82 781.787 319.02 782.189 319.02 782.791 316.818 783.394 314.815 783.996 312.812 784.598 309.408 785 306.004 784.799 303" fill="#D9D9D9" fill-rule="evenodd"/><path d="M607.6 451C607.4 451.2 607.2 451.2 607 451.2 607.2 452.2 607.4 453 607.6 454 607.8 453.8 608 453.8 608.2 453.8 608 452.8 607.8 452 607.6 451M714 395C713.8 395.2 713.8 395.2 713.8 395.2 713.6 396.2 713.6 397.2 713.6 398.2 713.6 398.2 713.6 398.2 713.8 398 713.8 397 713.8 396 714 395" fill="#B9B9B9" fill-rule="evenodd"/><path d="M611.635 449.771C610.023 450.375 608.411 450.778 607 451.181 607.201 452.188 607.403 452.993 607.604 454 609.217 453.396 610.829 452.993 612.239 452.389 612.038 451.584 611.836 450.778 611.635 449.771M714 395C712.186 396.208 710.574 397.618 708.761 398.826 708.761 399.833 708.761 400.84 708.559 401.846 710.373 400.638 711.985 399.43 713.798 398.02 713.798 397.014 713.798 396.007 714 395" fill="#093447" fill-rule="evenodd"/><path d="M655.818 431.174C654.812 431.578 654.006 431.982 653 432.587 654.006 432.991 654.812 433.596 655.818 434 656.825 433.596 657.831 432.991 658.636 432.587 657.831 431.982 656.825 431.578 655.818 431.174M744.591 368C744.188 368.404 743.584 369.009 743.182 369.413 743.584 369.817 744.188 370.422 744.591 370.826 745.195 370.422 745.597 370.018 746 369.413 745.597 369.009 745.195 368.404 744.591 368" fill="#B9B9B9" fill-rule="evenodd"/><path d="M659.639 428.819C658.426 429.416 657.213 430.012 656 430.608 657.011 431.006 658.022 431.404 658.83 432 660.043 431.404 661.257 430.807 662.47 430.211 661.459 429.614 660.448 429.217 659.639 428.819M747.585 366C746.776 366.795 745.967 367.59 745.159 368.386 745.765 368.783 746.17 369.38 746.574 369.777 747.383 368.982 748.191 368.187 749 367.59 748.393 366.994 747.989 366.596 747.585 366" fill="#093447" fill-rule="evenodd"/><path d="M565.81 458C565.81 458 565.81 458 565.81 458 549.321 458 537.658 453.395 532.027 444.585 528.005 438.779 527 431.171 529.011 422.161 532.027 407.745 542.685 390.527 559.777 372.107 577.071 353.486 599.592 335.066 625.332 318.849 668.967 291.219 715.821 274 747.391 274 763.679 274 775.342 278.605 780.973 287.214 784.995 293.221 786 300.829 784.19 309.639 780.973 324.054 770.315 341.473 753.424 359.893 736.13 378.514 713.408 396.934 687.87 413.151 644.033 440.781 597.38 458 565.81 458M747.391 277.203C716.223 277.203 670.174 294.222 626.94 321.452 576.467 353.486 538.261 394.131 532.027 422.962 530.418 430.971 531.223 437.778 534.641 442.984 539.87 450.592 550.527 454.797 565.81 454.797 565.81 454.797 565.81 454.797 565.81 454.797 596.777 454.797 642.826 437.778 686.06 410.548 736.734 378.514 774.739 337.669 780.973 309.038 782.783 301.029 781.777 294.222 778.359 289.016 773.332 281.408 762.473 277.203 747.391 277.203" fill="#0A3D54" fill-rule="evenodd"/><path d="M636 364C636 351.297 646.745 341 660 341 673.255 341 684 351.297 684 364 684 376.703 673.255 387 660 387 646.745 387 636 376.703 636 364Z" fill="#D9D9D9" fill-rule="evenodd"/><path d="M633 361C633 348.297 643.521 338 656.5 338 669.479 338 680 348.297 680 361 680 373.703 669.479 384 656.5 384 643.521 384 633 373.703 633 361Z" fill="#FF7664" fill-rule="evenodd"/><path d="M781.944 318.782C780.124 323.667 777.697 328.943 774.258 334.218 775.472 334.805 776.685 335 778.101 335 782.955 335 787 331.287 787 326.598 787 323.08 784.978 320.149 781.944 318.782M777.697 318C772.843 318.195 769 321.908 769 326.598 769 328.356 769.607 329.92 770.618 331.287 773.449 326.793 775.876 322.299 777.697 318" fill="#D9D9D9" fill-rule="evenodd"/><path d="M780.977 318C779.136 323.247 776.477 328.704 773 334.37 773.409 334.58 773.818 334.79 774.227 335 777.705 329.333 780.159 323.667 782 318.42 781.591 318.42 781.386 318.21 780.977 318" fill="#B9B9B9" fill-rule="evenodd"/><path d="M778.255 318C778.059 318 778.059 318 777.863 318 776.098 322.4 773.745 327 771 331.6 771.588 332.6 772.373 333.4 773.353 334 776.686 328.6 779.235 323.4 781 318.4 780.216 318.2 779.235 318 778.255 318" fill="#093447" fill-rule="evenodd"/><path d="M765 324C765 319.029 769.029 315 774 315 778.971 315 783 319.029 783 324 783 328.971 778.971 333 774 333 769.029 333 765 328.971 765 324Z" fill="#66BEE5" fill-rule="evenodd"/><path d="M722.048 458.333C723.687 459.974 725.94 461 728.398 461 729.831 461 731.06 460.59 732.289 460.179 729.012 459.564 725.53 459.154 722.048 458.333M728.398 445C724.301 445 720.614 447.872 720 451.564 725.94 453 731.47 453.821 736.795 454.436 736.795 454.026 737 453.41 737 453 737 448.487 733.108 445 728.398 445" fill="#D9D9D9" fill-rule="evenodd"/><path d="M721 455C721.378 456.2 721.946 457.4 722.703 458.2 725.919 459 729.135 459.4 732.162 460 733.297 459.4 734.243 458.4 735 457.4 730.649 457 725.919 456 721 455" fill="#B9B9B9" fill-rule="evenodd"/><path d="M720.205 452C720.205 452.345 720 452.862 720 453.207 720 453.724 720.205 454.414 720.41 454.931 725.735 455.793 730.855 456.655 735.566 457 736.386 456.31 736.795 455.276 737 454.414 731.675 453.897 726.145 453.207 720.205 452" fill="#093447" fill-rule="evenodd"/><path d="M722 451.5C722 447.358 725.806 444 730.5 444 735.194 444 739 447.358 739 451.5 739 455.642 735.194 459 730.5 459 725.806 459 722 455.642 722 451.5Z" fill="#F0E160" fill-rule="evenodd"/><path d="M656.254 233.6C653.296 233.6 650.535 234.2 647.577 235.6 649.944 240 654.676 243 660 243 663.944 243 667.493 241.4 670.056 238.8 665.521 235.4 660.986 233.6 656.254 233.6M660 215C652.507 215 646.394 220.8 646 228.2 649.352 226.6 652.704 225.8 656.254 225.8 662.366 225.8 668.085 228.2 673.606 232.4 673.803 231.4 674 230.2 674 229 674 221.2 667.69 215 660 215" fill="#D9D9D9" fill-rule="evenodd"/><path d="M656.111 231C652.81 231 649.302 231.976 646 233.537 646.206 234.317 646.619 235.098 647.032 235.878 650.127 234.512 653.016 233.927 656.111 233.927 661.063 233.927 665.81 235.683 670.556 239 671.175 238.415 671.587 237.829 672 237.244 666.841 233.146 661.476 231 656.111 231" fill="#B9B9B9" fill-rule="evenodd"/><path d="M655.901 226C652.199 226 648.702 226.786 645.206 228.357 645.206 228.554 645 228.946 645 229.143 645 230.518 645.411 231.893 645.823 233.268 649.113 231.696 652.61 230.714 655.901 230.714 661.248 230.714 666.596 232.875 671.738 237 672.766 235.625 673.589 234.25 674 232.482 668.241 228.357 662.277 226 655.901 226" fill="#093447" fill-rule="evenodd"/><path d="M642 226C642 218.268 648.492 212 656.5 212 664.508 212 671 218.268 671 226 671 233.732 664.508 240 656.5 240 648.492 240 642 233.732 642 226Z" fill="#49C47B" fill-rule="evenodd"/><path d="M799.517 157C797.086 157 794.655 157.599 793.44 158.596 793.44 158.596 791.414 160.991 791.211 164.184 789.591 162.987 787.97 162.587 786.147 162.587 781.487 162.587 776.828 166.179 777.03 170.969 768.319 171.767 767.306 178.352 767.914 183.74 767.711 183.74 767.711 183.74 767.509 183.74 762.241 183.74 759.81 196.312 765.685 198.307 759 199.904 760.216 210.679 766.698 213.473 766.293 215.269 764.875 216.865 764.875 218.861 764.875 220.857 765.28 221.854 766.496 223.65 767.306 225.047 770.75 227.043 770.75 227.043 770.75 227.043 768.927 233.628 773.181 237.22 774.194 238.018 775.612 238.617 777.233 238.617 778.246 238.617 779.259 238.217 780.069 237.619 779.461 239.415 784.526 244.603 784.526 244.603 786.147 245.601 788.375 246 790.401 246 793.237 246 796.073 245.401 798.099 244.603 802.961 242.807 803.569 239.614 806 235.623 806 161.191 806 161.191 806 161.191 806 158.197 802.759 157 799.517 157" fill="#D9D9D9" fill-rule="evenodd"/><path d="M763.698 211.673C757.216 208.879 756 198.103 762.685 196.507 756.608 194.511 759.444 181.14 764.914 181.739 764.306 176.351 765.319 169.965 774.03 169.167 773.625 162.382 782.539 158.39 788.211 162.182 788.414 159.189 790.44 156.794 790.44 156.794 793.276 154.2 803 154 803 159.388 803 233.825 803 233.825 803 233.825 800.569 237.816 799.961 240.809 795.099 242.805 791.25 244.202 785.172 245 781.526 242.805 781.526 242.805 776.461 237.417 777.069 235.621 775.448 237.417 771.802 236.818 770.181 235.421 765.927 231.629 767.75 225.044 767.75 225.044 767.75 225.044 764.306 223.048 763.496 221.651 762.28 220.055 761.875 218.857 761.875 217.061 761.875 215.066 763.293 213.27 763.698 211.673Z" fill="#E2CCCF" fill-rule="evenodd"/><path d="M803.393 235C802.786 235 802.583 234.601 802.583 234.202 802.583 159.586 802.583 159.586 802.583 159.586 802.583 158.389 801.774 157.392 800.357 156.793 797.524 155.596 792.869 156.195 791.25 157.791 788.821 159.985 788.821 163.377 789.833 165.771 790.845 168.564 793.274 170.559 795.702 170.759 796.107 170.759 796.512 171.158 796.512 171.557 796.512 171.956 796.107 172.155 795.702 172.155 792.464 172.155 789.631 169.761 788.214 166.369 787 162.778 787.607 158.988 790.238 156.594 792.464 154.599 797.726 154 800.964 155.397 802.988 156.195 804 157.791 804 159.586 804 234.202 804 234.202 804 234.202 804 234.601 803.798 235 803.393 235Z" fill="#0A3D54" fill-rule="evenodd"/><path d="M776.893 196C776.099 196 775.305 196 774.511 195.799 770.145 194.391 765.977 189.967 764.786 186.549 763 180.918 763.595 174.685 766.374 171.065 768.16 169.054 770.542 167.848 773.321 167.848 773.519 165.033 775.305 162.418 778.084 160.81 781.656 159 785.626 159 788.405 161.212 788.802 161.413 789 161.815 788.603 162.217 788.405 162.62 788.008 162.62 787.611 162.418 785.229 160.609 781.855 160.609 778.878 162.217 776.298 163.625 774.71 166.038 774.908 168.652 774.908 169.054 774.71 169.255 774.71 169.255 774.511 169.457 774.313 169.658 774.115 169.658 771.336 169.255 769.153 170.06 767.763 172.071 765.183 175.288 764.588 180.918 766.374 186.147 767.168 188.761 770.74 192.984 774.908 194.19 777.29 194.793 779.473 194.391 781.26 192.783 781.656 192.38 782.252 192.38 782.45 192.783 782.649 193.185 782.649 193.587 782.45 193.989 780.664 195.397 778.878 196 776.893 196Z" fill="#0A3D54" fill-rule="evenodd"/><path d="M784.288 215C783.299 215 782.113 215 781.124 214.801 778.751 214.205 777.169 213.012 776.379 211.62 775.588 212.415 774.401 213.211 772.819 213.608 768.864 214.602 764.119 213.211 761.548 211.62 758.78 209.632 757 205.456 757.593 201.678 757.989 199.094 759.373 197.304 761.35 196.31 759.373 194.719 758.186 191.936 758.384 188.953 758.582 185.772 760.362 181.994 763.921 181 764.316 181 764.712 181.199 764.712 181.596 764.91 181.994 764.712 182.392 764.316 182.591 761.548 183.386 760.164 186.368 759.966 188.953 759.768 191.339 760.559 194.52 763.328 195.713 763.723 195.713 763.921 196.111 763.723 196.509 763.723 196.708 763.525 197.105 763.13 197.105 760.362 197.901 759.373 200.485 759.175 201.877 758.78 205.058 760.164 208.637 762.537 210.228 764.712 211.819 769.062 212.813 772.424 212.018 774.203 211.62 775.39 210.626 775.983 209.433 776.181 209.234 776.576 209.035 776.972 209.035 777.169 209.035 777.565 209.433 777.565 209.83 777.763 212.018 780.136 212.813 781.52 213.211 785.079 214.006 789.429 213.211 790.616 211.421 790.814 211.023 791.209 210.825 791.604 211.023 792 211.421 792 211.819 791.802 212.216 790.616 214.205 787.452 215 784.288 215Z" fill="#0A3D54" fill-rule="evenodd"/><path d="M794.4 215C794 215 793.4 214.8 793 214.8 791 213.8 789.6 211.2 789.2 209 789 208.6 789.4 208.2 789.8 208 790.2 208 790.6 208.2 790.6 208.6 791 210.4 792.2 212.6 793.6 213.2 794.2 213.6 795 213.4 795.8 213 796.2 212.8 796.6 212.8 796.8 213.2 797 213.6 797 214 796.6 214.4 795.8 214.8 795.2 215 794.4 215Z" fill="#0A3D54" fill-rule="evenodd"/><path d="M774.268 238C772.61 238 770.744 237.396 769.707 236.388 765.768 233.164 766.39 227.724 766.805 225.91 765.768 225.306 763.488 223.694 762.659 222.485 761.207 220.672 761 219.261 761 217.246 761 215.231 761.207 213.418 761.829 211.604 761.829 211.201 762.451 211 762.866 211.201 763.281 211.201 763.488 211.604 763.281 212.007 762.866 213.821 762.659 215.433 762.659 217.246 762.659 219.06 762.866 220.067 763.902 221.679 764.11 221.679 764.11 221.679 764.11 221.679 764.524 222.687 766.805 224.097 768.256 224.903 768.463 224.903 768.671 225.306 768.463 225.709 768.463 225.709 766.805 231.955 770.744 235.179 771.573 235.985 773.232 236.388 774.476 236.388 775.512 236.388 776.134 236.187 776.549 235.582 776.963 235.381 777.378 235.381 777.793 235.582 778 235.784 778 236.388 777.793 236.791 776.963 237.396 775.927 238 774.683 238 774.476 238 774.476 238 774.268 238Z" fill="#0A3D54" fill-rule="evenodd"/><path d="M787.6 245C785.4 245 783.2 244.606 781.6 243.423 773 237.905 777 224.701 780.2 218.591 780.4 218.197 781 218 781.2 218.197 781.6 218.394 781.8 218.788 781.6 219.182 778.6 225.095 774.8 237.314 782.4 242.044 785.6 244.015 791.2 243.423 795 242.044 798.4 240.664 799.4 238.891 800.8 236.131 801.4 235.343 801.8 234.358 802.4 233.569 802.6 233.175 803.2 232.978 803.6 233.175 803.8 233.569 804 233.964 803.8 234.358 803.2 235.146 802.6 236.131 802.2 236.92 800.8 239.679 799.4 241.847 795.6 243.423 793.6 244.212 790.6 245 787.6 245Z" fill="#0A3D54" fill-rule="evenodd"/><path d="M782 190C781.786 190 781.571 190 781.357 190 778.786 189.773 776.857 188.409 776 186.364 776 185.909 776.214 185.455 776.643 185.227 777.071 185 777.5 185.227 777.714 185.682 778.143 187.273 779.643 188.182 781.571 188.182 783.5 188.409 785.429 187.5 786.5 185.909 786.714 185.455 787.143 185.227 787.571 185.682 788 185.909 788 186.364 787.786 186.818 786.714 188.864 784.357 190 782 190Z" fill="#0A3D54" fill-rule="evenodd"/><path d="M788.483 199C786.207 199 783.931 198.165 782.483 196.703 780.621 194.824 780 192.319 780.828 189.396 781.034 188.978 781.448 188.56 781.862 188.769 782.276 188.978 782.483 189.396 782.483 189.813 781.862 192.11 782.276 194.198 783.724 195.659 785.379 197.33 788.276 197.747 790.759 197.121 796.759 195.242 802.552 187.308 802.552 180.835 802.552 180.418 802.759 180 803.379 180 803.793 180 804 180.418 804 180.835 804 187.934 797.793 196.703 791.172 198.582 790.345 199 789.517 199 788.483 199Z" fill="#0A3D54" fill-rule="evenodd"/><path d="M782.361 202C781.771 202 781.18 202 780.787 201.828 780.393 201.828 780 201.483 780.197 201.138 780.197 200.621 780.59 200.448 780.984 200.448 783.738 200.966 788.852 199.931 790.426 197.517 790.623 197.172 791.016 197 791.41 197.172 791.803 197.345 792 197.862 791.803 198.034 790.033 200.621 785.508 202 782.361 202Z" fill="#0A3D54" fill-rule="evenodd"/><path d="M817.345 157C814.172 157 811 158.197 811 161.191 811 235.623 811 235.623 811 235.623 813.578 239.614 813.974 242.807 818.733 244.603 820.914 245.401 823.69 246 826.267 246 828.448 246 830.431 245.601 832.017 244.603 832.017 244.603 836.974 239.415 836.578 237.619 837.172 238.217 838.164 238.617 839.155 238.617 840.741 238.617 842.328 238.018 843.121 237.22 847.284 233.628 845.5 227.043 845.5 227.043 845.5 227.043 849.069 225.047 849.664 223.65 851.052 221.854 851.25 220.857 851.25 218.861 851.25 216.865 849.862 215.269 849.466 213.473 855.81 210.679 857 199.904 850.457 198.307 856.207 196.312 853.828 183.74 848.672 183.74 848.672 183.74 848.474 183.74 848.276 183.74 848.871 178.352 847.879 171.767 839.552 170.969 839.75 166.179 834.991 162.587 830.431 162.587 828.647 162.587 827.06 162.987 825.474 164.184 825.276 160.991 823.293 158.596 823.293 158.596 822.103 157.599 819.724 157 817.345 157" fill="#D9D9D9" fill-rule="evenodd"/><path d="M846.466 211.673C852.81 208.879 854 198.103 847.457 196.507 853.405 194.511 850.828 181.14 845.276 181.739 845.871 176.351 844.879 169.965 836.552 169.167 836.75 162.382 828.026 158.39 822.474 162.182 822.276 159.189 820.293 156.794 820.293 156.794 817.517 154.2 808 154 808 159.388 808 233.825 808 233.825 808 233.825 810.578 237.816 810.974 240.809 815.733 242.805 819.5 244.202 825.448 245 829.017 242.805 829.017 242.805 833.974 237.417 833.578 235.621 834.966 237.417 838.534 236.818 840.121 235.421 844.284 231.629 842.5 225.044 842.5 225.044 842.5 225.044 846.069 223.048 846.664 221.651 848.052 220.055 848.25 218.857 848.25 217.061 848.25 215.066 846.862 213.27 846.466 211.673Z" fill="#E2CCCF" fill-rule="evenodd"/><path d="M807.81 235C807.202 235 807 234.601 807 234.202 807 159.586 807 159.586 807 159.586 807 157.791 808.012 156.195 810.036 155.397 813.274 154 818.536 154.599 820.762 156.594 823.393 158.988 824 162.778 822.786 166.369 821.369 169.761 818.536 172.155 815.5 172.155 814.893 172.155 814.69 171.956 814.69 171.557 814.488 171.158 814.893 170.759 815.298 170.759 817.929 170.559 820.155 168.564 821.167 165.771 822.179 163.377 822.179 159.985 819.75 157.591 818.131 156.195 813.476 155.596 810.643 156.793 809.226 157.392 808.619 158.389 808.619 159.586 808.619 234.202 808.619 234.202 808.619 234.202 808.619 234.601 808.214 235 807.81 235Z" fill="#0A3D54" fill-rule="evenodd"/><path d="M834 196C832 196 830.2 195.397 828.6 193.989 828.2 193.587 828.2 193.185 828.4 192.783 828.8 192.38 829.2 192.38 829.6 192.783 831.4 194.391 833.6 194.793 836 194.19 840.2 192.984 843.8 188.56 844.6 186.147 846.4 180.918 845.8 175.288 843.4 172.071 841.8 170.06 839.6 169.255 837 169.658 836.8 169.658 836.4 169.457 836.4 169.255 836.2 169.255 836 169.054 836 168.652 836.2 166.038 834.6 163.625 832 162.217 829.2 160.609 825.6 160.609 823.2 162.418 823 162.62 822.4 162.62 822.2 162.217 822 161.815 822 161.413 822.4 161.212 825.2 159 829.4 159 832.8 160.81 835.6 162.418 837.4 165.033 837.6 167.848 840.4 167.848 842.8 169.054 844.6 171.065 847.4 174.685 848 180.918 846.2 186.549 845 189.967 840.8 194.391 836.4 195.799 835.6 196 834.8 196 834 196Z" fill="#0A3D54" fill-rule="evenodd"/><path d="M825.932 215C822.678 215 819.424 214.205 818.203 212.216 818 211.819 818 211.421 818.407 211.023 818.814 210.825 819.424 211.023 819.627 211.421 820.644 213.211 825.119 214.006 828.78 213.211 830.203 212.813 832.644 212.018 832.847 209.83 833.051 209.433 833.254 209.035 833.661 209.035 833.864 209.035 834.271 209.234 834.475 209.433 835.085 210.626 836.305 211.62 838.136 212.018 841.593 212.813 846.068 211.819 848.508 210.228 850.949 208.637 852.373 205.058 851.763 201.877 851.559 200.485 850.746 197.901 847.695 197.105 847.288 197.105 847.085 196.708 847.085 196.509 847.085 196.111 847.288 195.713 847.492 195.713 850.339 194.52 851.153 191.339 850.949 188.953 850.746 186.368 849.322 183.386 846.475 182.591 846.068 182.392 845.864 181.994 846.068 181.596 846.068 181.199 846.475 181 847.085 181 850.542 181.994 852.373 185.772 852.576 188.953 852.78 191.936 851.559 194.719 849.525 196.31 851.559 197.304 852.983 199.094 853.39 201.678 854 205.456 852.373 209.632 849.322 211.62 846.678 213.211 841.797 214.602 837.729 213.608 836.305 213.211 834.881 212.415 834.068 211.62 833.254 213.012 831.627 214.205 829.186 214.801 828.169 215 826.949 215 825.932 215Z" fill="#0A3D54" fill-rule="evenodd"/><path d="M815.6 215C815 215 814.2 214.8 813.4 214.4 813 214 813 213.6 813.2 213.2 813.4 212.8 813.8 212.8 814.2 213 815 213.4 815.8 213.6 816.4 213.2 818 212.6 819 210.4 819.4 208.6 819.4 208.2 819.8 208 820.4 208 820.8 208.2 821 208.6 820.8 209 820.4 211.2 819 213.8 817 214.8 816.6 214.8 816.2 215 815.6 215Z" fill="#0A3D54" fill-rule="evenodd"/><path d="M836.512 238C836.512 238 836.317 238 836.317 238 834.951 238 833.976 237.396 833.195 236.791 833 236.388 833 235.784 833.39 235.582 833.585 235.381 834.171 235.381 834.366 235.582 834.756 236.187 835.537 236.388 836.317 236.388 837.488 236.388 839.049 235.985 839.829 235.381 843.537 231.955 841.976 225.709 841.976 225.709 841.781 225.306 841.976 224.903 842.366 224.903 843.537 224.097 845.683 222.687 846.073 221.679 846.268 221.679 846.268 221.679 846.268 221.679 847.439 220.067 847.634 219.06 847.634 217.246 847.634 215.433 847.244 213.821 846.854 212.007 846.659 211.604 846.854 211.201 847.439 211.201 847.829 211 848.219 211.201 848.219 211.604 848.805 213.418 849 215.231 849 217.246 849 219.261 848.805 220.672 847.439 222.485 846.854 223.694 844.512 225.306 843.537 225.91 843.927 227.724 844.512 233.164 840.805 236.388 839.829 237.396 838.073 238 836.512 238Z" fill="#0A3D54" fill-rule="evenodd"/><path d="M823.4 245C820.4 245 817.4 244.212 815.4 243.423 811.6 241.847 810.2 239.679 808.8 236.92 808.4 236.131 807.8 235.146 807.2 234.358 807 233.964 807.2 233.569 807.6 233.175 807.8 232.978 808.4 233.175 808.6 233.569 809.2 234.358 809.6 235.343 810.2 236.131 811.6 238.891 812.6 240.664 816 242.044 819.8 243.423 825.6 244.015 828.6 242.044 836.2 237.314 832.4 225.095 829.4 219.182 829.2 218.788 829.4 218.394 829.8 218.197 830.2 218 830.6 218.197 830.8 218.591 834 224.701 838 237.905 829.6 243.423 827.8 244.606 825.6 245 823.4 245Z" fill="#0A3D54" fill-rule="evenodd"/><path d="M828.404 190C826.281 190 824.158 188.864 823.193 186.818 823 186.364 823 185.909 823.386 185.682 823.772 185.455 824.158 185.455 824.544 185.909 825.316 187.5 827.053 188.409 828.982 188.182 830.526 188.182 831.877 187.273 832.456 185.682 832.456 185.227 833.035 185 833.421 185.227 833.807 185.455 834 185.909 833.807 186.364 833.035 188.409 831.298 189.773 828.982 190 828.789 190 828.596 190 828.404 190Z" fill="#0A3D54" fill-rule="evenodd"/><path d="M821.871 199C821.078 199 820.086 199 819.293 198.582 812.948 196.703 807 187.934 807 180.835 807 180.418 807.198 180 807.793 180 808.19 180 808.586 180.418 808.586 180.835 808.586 187.308 813.94 195.242 819.69 197.121 822.267 197.747 824.845 197.33 826.629 195.659 828.017 194.198 828.414 192.11 827.621 189.813 827.621 189.396 827.819 188.978 828.216 188.769 828.612 188.56 829.009 188.978 829.207 189.396 830 192.319 829.405 194.824 827.621 196.703 826.233 198.165 824.052 199 821.871 199Z" fill="#0A3D54" fill-rule="evenodd"/><path d="M828.443 202C825.033 202 820.131 200.621 818.213 198.034 818 197.862 818.213 197.345 818.639 197.172 819.066 197 819.492 197.172 819.705 197.517 821.41 199.931 826.951 200.966 829.934 200.448 830.361 200.448 830.787 200.621 830.787 201.138 831 201.483 830.574 201.828 830.148 201.828 829.721 202 829.082 202 828.443 202Z" fill="#0A3D54" fill-rule="evenodd"/><path d="M648 157.82C646 157.82 643.8 157.009 642 155.387 639 152.143 639 147.074 642.4 144.032 644 142.41 646 141.802 648 141.802 650.2 141.802 652.4 142.613 654.2 144.235 657.2 147.479 657.2 152.548 653.8 155.59 652.2 157.212 650.2 157.82 648 157.82M646 127C645.2 127 644.4 127.811 644.4 128.622 644.2 131.055 644.2 131.055 644.2 131.055 642.6 131.461 641 132.069 639.4 132.677 637.6 131.055 637.6 131.055 637.6 131.055 637.4 130.65 636.8 130.447 636.4 130.447 636 130.447 635.6 130.65 635.4 130.853 630.6 135.516 630.6 135.516 630.6 135.516 629.8 136.124 629.8 136.935 630.4 137.544 631.8 138.963 631.8 138.963 631.8 138.963 630.8 140.382 630.2 141.802 629.6 143.424 627.8 143.424 627.8 143.424 627.8 143.424 627.8 143.424 627.6 143.424 627.6 143.424 626.8 143.424 626.2 144.032 626.2 144.843 626 146.871 626 146.871 626 146.871 626.6 146.871 626.6 146.871 626.6 146.871 627.6 147.074 628 147.885 628 148.696 627.4 151.332 627.4 151.332 627.4 151.332 628.8 151.94 630 152.751 631.2 153.562 633.4 151.94 633.4 151.94 633.4 151.94 633.8 151.737 634 151.737 634.4 151.737 634.8 151.737 635.4 151.94 635.6 152.346 639.6 157.618 639.6 157.618 639.6 157.618 640.2 158.226 640 159.24 639.4 159.645 637.2 161.267 637.2 161.267 637.2 161.267 638 162.889 638.4 164.512 638.6 166.134 641 166.539 641 166.539 641 166.539 641.8 166.742 642.2 167.35 642.2 167.959 642.4 168.161 642.6 168.161 642.6 168.161 642.6 169.175 642.6 169.175 642.6 169.175 642.6 169.986 643.2 170.594 644 170.797 650.8 171 650.8 171 650.8 171 650.8 171 650.8 171 650.8 171 651.8 171 652.4 170.392 652.4 169.581 652.6 168.364 652.6 168.364 652.6 168.364 654.6 167.959 656.4 167.147 658.2 166.134 659.2 167.147 659.2 167.147 659.2 167.147 659.6 167.35 660 167.553 660.4 167.553 660.8 167.553 661.2 167.35 661.4 167.147 666.4 162.687 666.4 162.687 666.4 162.687 667 162.078 667 161.065 666.4 160.456 665.2 159.24 665.2 159.24 665.2 159.24 666 157.82 666.6 156.198 667.2 154.576 669.2 154.779 669.2 154.779 669.2 154.779 669.2 154.779 669.2 154.779 669.2 154.779 670 154.779 670.8 154.171 670.8 153.359 671 146.668 671 146.668 671 146.668 671 145.857 670.4 145.249 669.6 145.046 667.2 145.046 667.2 145.046 667.2 145.046 666.6 143.424 666 141.802 665.2 140.382 667 138.558 667 138.558 667 138.558 667.6 137.949 667.6 136.935 667 136.327 662.4 131.664 662.4 131.664 662.4 131.664 662.2 131.258 661.8 131.258 661.2 131.258 661 131.258 660.6 131.258 660.2 131.664 658.2 133.488 658.2 133.488 658.2 133.488 657 132.677 655.6 132.069 654.2 131.664 654.2 129.028 654.2 129.028 654.2 129.028 654.4 128.014 653.6 127.406 652.8 127.406 646 127 646 127 646 127 646 127 646 127 646 127" fill="#E4DEDB" fill-rule="evenodd"/><path d="M618.596 178.899C615.368 178.899 612.14 177.486 610.123 174.661 606.693 170.22 607.702 163.761 612.342 160.33 614.36 159.119 616.579 158.514 618.596 158.514 622.026 158.514 625.254 159.927 627.272 162.55 630.702 167.193 629.693 173.45 625.053 176.881 623.035 178.294 620.816 178.899 618.596 178.899M619.404 146C618.596 146 617.991 146.404 617.789 147.211 617.386 149.633 617.386 149.633 617.386 149.633 615.57 149.835 613.754 150.239 612.14 150.642 610.728 148.826 610.728 148.826 610.728 148.826 610.325 148.422 609.921 148.22 609.316 148.22 609.114 148.22 608.711 148.22 608.509 148.422 602.86 152.257 602.86 152.257 602.86 152.257 602.254 152.862 602.053 153.872 602.658 154.477 603.868 156.092 603.868 156.092 603.868 156.092 602.658 157.303 601.649 158.716 601.044 160.128 599.228 159.725 599.228 159.725 599.228 159.725 599.026 159.725 599.026 159.725 598.825 159.725 598.219 159.725 597.412 160.33 597.412 161.138 596.202 167.395 596.202 167.395 596.202 167.395 596 168.202 596.605 169.009 597.412 169.211 598.825 169.413 598.825 169.413 598.825 169.413 599.026 171.431 599.43 173.45 600.237 175.266 599.228 176.073 599.228 176.073 599.228 176.073 598.421 176.477 598.219 177.486 598.825 178.092 602.86 183.339 602.86 183.339 602.86 183.339 603.061 183.743 603.667 183.945 604.07 183.945 604.474 183.945 604.675 183.945 605.079 183.743 605.886 183.138 605.886 183.138 605.886 183.138 607.298 184.349 609.114 185.358 610.728 186.165 610.526 186.972 610.526 186.972 610.526 186.972 610.526 187.982 611.132 188.587 611.939 188.789 618.596 190 618.596 190 618.596 190 618.798 190 618.798 190 618.798 190 619.605 190 620.412 189.395 620.412 188.587 620.614 187.578 620.614 187.578 620.614 187.578 622.833 187.376 624.851 186.771 626.667 185.963 627.675 186.972 627.675 186.972 627.675 186.972 627.877 187.376 628.281 187.78 628.886 187.78 629.289 187.78 629.491 187.578 629.895 187.376 635.342 183.541 635.342 183.541 635.342 183.541 635.947 183.138 636.149 182.128 635.544 181.321 634.535 180.11 634.535 180.11 634.535 180.11 635.544 178.697 636.351 177.284 637.158 175.67 639.175 176.073 639.175 176.073 639.175 176.073 639.175 176.073 639.175 176.073 639.377 176.073 640.184 176.073 640.789 175.468 640.991 174.862 642 168.404 642 168.404 642 168.404 642 168.202 642 168.202 642 168 642 167.395 641.596 166.789 640.789 166.587 638.368 166.183 638.368 166.183 638.368 166.183 638.167 164.569 637.763 162.954 636.956 161.339 639.175 159.725 639.175 159.725 639.175 159.725 639.781 159.321 639.982 158.312 639.377 157.706 635.342 152.459 635.342 152.459 635.342 152.459 635.14 152.055 634.535 151.853 634.132 151.853 633.728 151.853 633.526 151.853 633.123 152.055 630.904 153.67 630.904 153.67 630.904 153.67 629.693 152.862 628.482 152.055 627.07 151.45 627.675 148.826 627.675 148.826 627.675 148.826 627.675 148.018 627.272 147.211 626.263 147.009 625.658 147.009 625.658 147.009 625.658 147.009 619.605 146 619.605 146 619.605 146 619.605 146 619.404 146 619.404 146" fill="#E4DEDB" fill-rule="evenodd"/><path d="M686.6 181.301C684.4 181.301 682.2 179.876 681.4 177.434 680.4 174.584 682 171.531 684.8 170.717 685.4 170.513 686 170.31 686.6 170.31 689 170.31 691.2 171.735 692 173.973 693 176.823 691.4 179.876 688.4 180.894 687.8 181.097 687.2 181.301 686.6 181.301M685.2 164C685 164 685 164 684.8 164 681.4 165.018 681.4 165.018 681.4 165.018 681 165.221 680.8 165.628 681 166.035 681.4 167.053 681.4 167.053 681.4 167.053 680.6 167.46 679.8 168.071 679.2 168.681 678.4 168.274 678.4 168.274 678.4 168.274 678.2 168.274 678.2 168.274 678 168.274 677.6 168.274 677.4 168.274 677.2 168.681 675.6 171.735 675.6 171.735 675.6 171.735 675.4 172.142 675.6 172.549 676 172.752 676.6 173.159 676.6 173.159 676.6 173.159 676.4 174.177 676.2 175.195 676.2 176.416 675.6 176.619 675.6 176.619 675.6 176.619 675.2 176.619 675 177.23 675.2 177.637 676.4 180.894 676.4 180.894 676.4 180.894 676.4 181.097 676.8 181.301 677 181.301 677.2 181.301 677.2 181.301 677.4 181.301 677.8 181.097 677.8 181.097 677.8 181.097 678.4 182.115 679 182.726 679.8 183.336 679.6 183.947 679.6 183.947 679.6 183.947 679.4 184.354 679.6 184.761 680 184.965 683.2 186.593 683.2 186.593 683.2 186.593 683.2 186.593 683.4 186.593 683.4 186.593 683.8 186.593 684 186.389 684.2 186.186 684.6 185.575 684.6 185.575 684.6 185.575 685.2 185.779 686 185.779 686.6 185.779 687 185.779 687.4 185.779 687.8 185.779 688 186.389 688 186.389 688 186.389 688.2 186.796 688.6 187 688.8 187 689 187 689 187 689.2 187 692.4 185.982 692.4 185.982 692.4 185.982 693 185.779 693.2 185.372 693 184.761 692.6 183.947 692.6 183.947 692.6 183.947 693.4 183.54 694 182.929 694.6 182.115 695.6 182.726 695.6 182.726 695.6 182.726 695.8 182.726 695.8 182.726 696 182.726 696.2 182.726 696.6 182.522 696.8 182.319 698.4 179.265 698.4 179.265 698.4 179.265 698.6 178.858 698.4 178.451 698 178.044 696.8 177.637 696.8 177.637 696.8 177.637 697 176.619 697 175.805 697 174.788 698.2 174.381 698.2 174.381 698.2 174.381 698.8 174.177 699 173.77 698.8 173.363 697.6 170.106 697.6 170.106 697.6 170.106 697.6 169.699 697.2 169.496 696.8 169.496 696.8 169.496 696.6 169.496 696.6 169.699 695.2 170.106 695.2 170.106 695.2 170.106 694.8 169.496 694.2 168.885 693.6 168.274 694.4 167.053 694.4 167.053 694.4 167.053 694.6 166.646 694.4 166.239 694 166.035 690.8 164.407 690.8 164.407 690.8 164.407 690.8 164.407 690.6 164.204 690.4 164.204 690.2 164.204 689.8 164.407 689.8 164.814 689 166.035 689 166.035 689 166.035 688.2 165.832 687.4 165.628 686.6 165.628 686.6 165.628 686.4 165.628 686.4 165.628 686 164.407 686 164.407 686 164.407 685.8 164.204 685.4 164 685.2 164" fill="#E4DEDB" fill-rule="evenodd"/><path d="M666.018 134.271C661.438 129.537 661.438 129.537 661.438 129.537 660.841 128.945 659.845 128.945 659.248 129.537 657.257 131.312 657.257 131.312 657.257 131.312 655.863 130.523 654.668 129.931 653.274 129.537 653.274 126.972 653.274 126.972 653.274 126.972 653.473 126.183 652.677 125.394 651.881 125.394 645.111 125.197 645.111 125.197 645.111 125.197 644.314 125 643.518 125.789 643.518 126.578 643.319 128.945 643.319 128.945 643.319 128.945 641.726 129.339 639.934 129.931 638.54 130.72 636.748 128.945 636.748 128.945 636.748 128.945 636.15 128.353 635.155 128.353 634.557 128.945 629.58 133.284 629.58 133.284 629.58 133.284 628.982 133.876 628.982 134.862 629.58 135.454 630.973 136.835 630.973 136.835 630.973 136.835 629.978 138.216 629.381 139.596 628.783 140.977 626.991 140.977 626.991 140.977 626.991 140.977 625.996 140.977 625.398 141.569 625.199 142.358 625 148.67 625 148.67 625 148.67 625 149.656 625.597 150.248 626.394 150.248 627.987 150.445 627.987 150.445 627.987 150.445 628.186 152.22 628.982 154.193 629.978 155.968 628.982 156.757 628.982 156.757 628.982 156.757 628.385 157.349 628.385 158.138 628.982 158.729 633.562 163.463 633.562 163.463 633.562 163.463 634.159 164.055 635.155 164.055 635.752 163.463 636.549 162.872 636.549 162.872 636.549 162.872 638.142 163.858 639.934 164.647 641.726 165.041 641.726 166.028 641.726 166.028 641.726 166.028 641.726 166.817 642.323 167.605 643.119 167.605 649.889 167.803 649.889 167.803 649.889 167.803 650.686 168 651.482 167.211 651.482 166.422 651.482 165.239 651.482 165.239 651.482 165.239 653.673 164.844 655.465 164.055 657.257 163.069 658.252 164.055 658.252 164.055 658.252 164.055 658.85 164.647 659.845 164.647 660.443 164.055 665.42 159.716 665.42 159.716 665.42 159.716 666.018 159.124 666.018 158.138 665.42 157.546 664.226 156.362 664.226 156.362 664.226 156.362 665.022 154.982 665.619 153.404 666.018 152.023 668.208 152.023 668.208 152.023 668.208 152.023 669.004 152.023 669.801 151.431 669.801 150.642 670 144.33 670 144.33 670 144.33 670 143.344 669.403 142.752 668.606 142.752 666.217 142.555 666.217 142.555 666.217 142.555 665.619 140.977 665.022 139.399 664.226 138.018 666.018 136.243 666.018 136.243 666.018 136.243 666.615 135.651 666.615 134.862 666.018 134.271ZM653.075 141.963C656.261 144.922 656.062 149.853 652.876 153.009 649.491 155.968 644.314 155.771 641.128 152.615 638.142 149.459 638.142 144.528 641.527 141.569 644.911 138.61 650.089 138.807 653.075 141.963Z" fill="#E2B04D" fill-rule="evenodd"/><path d="M638.188 154.8C634.17 149.6 634.17 149.6 634.17 149.6 633.769 149 632.764 148.8 631.961 149.4 629.751 151 629.751 151 629.751 151 628.546 150 627.341 149.2 625.935 148.6 626.537 146 626.537 146 626.537 146 626.537 145.2 625.935 144.4 625.131 144.2 618.502 143.2 618.502 143.2 618.502 143.2 617.699 143 616.895 143.6 616.694 144.4 616.293 147 616.293 147 616.293 147 614.485 147 612.677 147.4 611.07 148 609.664 146 609.664 146 609.664 146 609.061 145.4 608.057 145.2 607.454 145.8 601.83 149.6 601.83 149.6 601.83 149.6 601.227 150 601.026 151 601.629 151.6 602.834 153.2 602.834 153.2 602.834 153.2 601.629 154.4 600.624 155.8 600.022 157.2 598.214 157 598.214 157 598.214 157 597.21 156.8 596.406 157.4 596.205 158.2 595.201 164.6 595.201 164.6 595.201 164.6 595 165.4 595.603 166.2 596.406 166.2 597.812 166.4 597.812 166.4 597.812 166.4 598.013 168.4 598.415 170.4 599.017 172.4 598.214 173 598.214 173 598.214 173 597.41 173.6 597.21 174.4 597.812 175.2 601.83 180.4 601.83 180.4 601.83 180.4 602.231 181 603.236 181.2 604.039 180.6 604.843 180 604.843 180 604.843 180 606.249 181.2 608.057 182.2 609.664 183 609.463 184 609.463 184 609.463 184 609.463 184.8 610.065 185.6 610.869 185.6 617.498 186.8 617.498 186.8 617.498 186.8 618.301 187 619.105 186.4 619.306 185.6 619.507 184.4 619.507 184.4 619.507 184.4 621.515 184.2 623.725 183.8 625.533 182.8 626.336 184 626.336 184 626.336 184 626.939 184.6 627.943 184.8 628.546 184.2 634.17 180.4 634.17 180.4 634.17 180.4 634.773 180 634.974 179 634.371 178.4 633.367 177 633.367 177 633.367 177 634.371 175.6 635.175 174.2 635.777 172.8 637.786 173 637.786 173 637.786 173 638.79 173.2 639.594 172.6 639.795 171.8 640.799 165.4 640.799 165.4 640.799 165.4 641 164.6 640.397 163.8 639.594 163.8 637.183 163.4 637.183 163.4 637.183 163.4 636.983 161.6 636.38 160 635.777 158.4 637.786 157 637.786 157 637.786 157 638.59 156.4 638.79 155.6 638.188 154.8ZM626.135 159.8C629.55 164.2 628.546 170.6 623.926 173.8 619.105 177.2 612.476 176.2 609.061 171.6 605.646 167.2 606.651 160.8 611.271 157.6 616.092 154.2 622.721 155.2 626.135 159.8Z" fill="#868686" fill-rule="evenodd"/><path d="M697.8 171.4C696.6 168.2 696.6 168.2 696.6 168.2 696.4 167.8 696 167.6 695.6 167.8 694.2 168.2 694.2 168.2 694.2 168.2 693.8 167.6 693.2 167 692.6 166.6 693.4 165.2 693.4 165.2 693.4 165.2 693.6 164.8 693.4 164.4 693 164.2 689.8 162.6 689.8 162.6 689.8 162.6 689.4 162.4 689 162.6 688.8 163 688 164.2 688 164.2 688 164.2 687.2 164 686.2 163.8 685.4 164 684.8 162.8 684.8 162.8 684.8 162.8 684.8 162.2 684.2 162 683.8 162.2 680.4 163.4 680.4 163.4 680.4 163.4 680 163.4 679.8 164 680 164.4 680.2 165.4 680.2 165.4 680.2 165.4 679.6 165.8 678.8 166.2 678.2 166.8 677.4 166.4 677.4 166.4 677.4 166.4 677 166.2 676.4 166.4 676.2 166.8 674.6 169.8 674.6 169.8 674.6 169.8 674.4 170.2 674.6 170.8 675 171 675.6 171.2 675.6 171.2 675.6 171.2 675.4 172.2 675.2 173.4 675.2 174.4 674.6 174.6 674.6 174.6 674.6 174.6 674.2 174.8 674 175.2 674.2 175.6 675.2 178.8 675.2 178.8 675.2 178.8 675.4 179.2 676 179.4 676.4 179.4 676.8 179.2 676.8 179.2 676.8 179.2 677.4 180 678 180.8 678.8 181.4 678.6 181.8 678.6 181.8 678.6 181.8 678.4 182.2 678.6 182.6 679 182.8 682.2 184.4 682.2 184.4 682.2 184.4 682.6 184.6 683 184.4 683.2 184 683.6 183.6 683.6 183.6 683.6 183.6 684.6 183.8 685.6 183.8 686.8 183.6 687 184.4 687 184.4 687 184.4 687.2 184.8 687.6 185 688 184.8 691.4 183.8 691.4 183.8 691.4 183.8 691.8 183.6 692.2 183.2 692 182.8 691.6 181.8 691.6 181.8 691.6 181.8 692.4 181.4 693 180.8 693.6 180.2 694.6 180.6 694.6 180.6 694.6 180.6 695 180.8 695.4 180.6 695.8 180.2 697.4 177.2 697.4 177.2 697.4 177.2 697.6 176.8 697.4 176.4 697 176.2 695.8 175.6 695.8 175.6 695.8 175.6 696 174.8 696 173.8 696 173 697.2 172.6 697.2 172.6 697.2 172.6 697.8 172.4 698 172 697.8 171.4ZM691 172.2C691.8 174.8 690.4 178 687.4 178.8 684.6 179.8 681.4 178.4 680.4 175.6 679.4 172.8 681 169.8 683.8 168.8 686.8 167.8 690 169.4 691 172.2Z" fill="#F0E160" fill-rule="evenodd"/><path d="M618.354 176C614.569 176 611.183 174.392 609.39 171.778 607.598 169.365 607 166.55 607.398 163.937 607.996 160.921 609.789 158.307 612.776 156.296 638.472 141.217 638.472 141.217 638.472 141.217 641.659 139.206 644.646 138 647.236 138 650.024 138 652.415 139.206 654.008 141.418 655.402 143.429 656 145.64 655.602 147.852 655.004 150.868 653.012 153.683 649.427 155.894 626.122 173.587 626.122 173.587 626.122 173.587 623.732 175.196 620.943 176 618.354 176ZM647.236 139.608C644.846 139.608 642.256 140.614 639.268 142.423 613.573 157.503 613.573 157.503 613.573 157.503 610.984 159.312 609.39 161.524 608.992 164.138 608.594 166.55 608.992 168.762 610.585 170.772 612.179 173.185 614.967 174.593 618.354 174.593 620.744 174.593 623.134 173.788 625.325 172.381 648.63 154.688 648.63 154.688 648.63 154.688 651.817 152.677 653.61 150.063 654.207 147.651 654.406 145.841 654.008 144.032 652.813 142.423 651.419 140.413 649.626 139.608 647.236 139.608Z" fill="#0A3D54" fill-rule="evenodd"/><path d="M685.774 180C683.566 180 681.358 179.2 678.95 177.6 641.817 154.6 641.817 154.6 641.817 154.6 637 151 637 145.8 639.609 142.2 639.609 142.2 639.609 142.2 639.609 142.2 639.609 142.2 639.609 142.2 639.609 142.2 641.014 140.2 643.824 139 646.835 139 649.043 139 651.05 139.6 652.656 140.8 686.778 166.2 686.778 166.2 686.778 166.2 691.394 169.2 693 173.6 690.993 177.4 690.993 177.4 690.993 177.4 690.993 177.4 690.591 177.8 690.591 177.8 690.591 177.8 689.387 179.4 687.781 180 685.774 180ZM641.014 143C641.014 143 641.014 143 641.014 143 640.814 143 640.814 143 640.814 143 638.806 145.8 638.405 150.2 642.62 153.4 679.753 176.4 679.753 176.4 679.753 176.4 681.76 177.8 683.968 178.6 685.774 178.6 687.38 178.6 688.584 178 689.387 177 689.789 176.6 689.789 176.6 689.789 176.6 691.394 173.6 689.989 170 685.975 167.4 651.853 142 651.853 142 651.853 142 650.047 140.8 648.039 140.6 646.835 140.6 644.226 140.6 642.018 141.4 641.014 143Z" fill="#0A3D54" fill-rule="evenodd"/><path d="M475.272 168C474.67 168 474.269 168 474.069 168 473.868 168 473.868 168 473.868 168 473.668 168 473.668 168 473.668 168 473.668 168 473.668 168 473.668 168 472.464 168 471.863 168.607 471.662 169.011 471.261 170.225 472.063 171.641 474.47 174.068 474.47 201.982 474.47 201.982 474.47 201.982 448.604 245.268 448.604 245.268 448.604 245.268 448.404 245.47 447 247.695 447 250.932 447 254.37 450.208 257 454.82 257 517.98 257 517.98 257 517.98 257 517.98 257 517.98 257 517.98 257 522.591 257 525.799 254.573 526 250.932 526 247.695 524.396 245.673 524.195 245.268 498.53 201.982 498.53 201.982 498.53 201.982 498.53 174.068 498.53 174.068 498.53 174.068 500.937 171.641 501.739 170.225 501.338 169.011 501.137 168.809 500.736 168 499.332 168 499.132 168 499.132 168 498.931 168 498.731 168 498.33 168 497.728 168 497.127 168 496.325 168 496.124 168 476.876 168 476.876 168 476.876 168 476.675 168 475.873 168 475.272 168" fill="#D9D9D9" fill-rule="evenodd"/><path d="M515.18 254C452.02 253.8 452.02 253.8 452.02 253.8 447.409 253.8 444 251.406 444 247.814 444 244.621 445.604 242.626 445.805 242.227 471.67 199.723 471.67 199.723 471.67 199.723 471.67 171.986 471.67 171.986 471.67 171.986 469.264 169.791 468.462 168.195 468.863 167.197 469.063 166.798 469.665 166.2 470.868 166.2 471.069 166.2 471.069 166.2 471.269 166.2 471.47 166.2 471.871 166 472.472 166 473.074 166 473.876 166.2 474.076 166.2 493.325 166.2 493.325 166.2 493.325 166.2 493.525 166.2 494.327 166.2 494.929 166.2 495.53 166.2 495.931 166.2 496.132 166.2 496.332 166.2 496.332 166.2 496.533 166.2 497.937 166.2 498.338 166.798 498.538 167.197 498.939 168.395 498.137 169.791 495.731 172.186 495.731 199.723 495.731 199.723 495.731 199.723 521.396 242.426 521.396 242.426 521.396 242.426 521.596 242.626 523 244.821 523 248.014 523 251.406 519.792 254 515.18 254" fill="#FFFFFF" fill-rule="evenodd"/><path d="M473.551 208C450.826 242.557 450.826 242.557 450.826 242.557 450.826 242.557 449 245.772 449.812 247.982 450.623 250.192 451.232 251.799 458.739 251.799 512.304 251.799 512.304 251.799 512.304 251.799 512.304 251.799 517.174 252 518.188 248.183 519 244.566 517.58 242.758 514.536 238.338 511.696 234.119 495.87 208 495.87 208 473.551 208 473.551 208 473.551 208" fill="#F0E160" fill-rule="evenodd"/><path d="M477 219C477 217.895 477.895 217 479 217 480.105 217 481 217.895 481 219 481 220.105 480.105 221 479 221 477.895 221 477 220.105 477 219Z" fill="#F9F7EA" fill-rule="evenodd"/><path d="M500 243C500 241.895 500.895 241 502 241 503.105 241 504 241.895 504 243 504 244.105 503.105 245 502 245 500.895 245 500 244.105 500 243Z" fill="#F9F7EA" fill-rule="evenodd"/><path d="M460 243C460 241.343 461.119 240 462.5 240 463.881 240 465 241.343 465 243 465 244.657 463.881 246 462.5 246 461.119 246 460 244.657 460 243Z" fill="#F9F7EA" fill-rule="evenodd"/><path d="M475 234.5C475 233.672 475.672 233 476.5 233 477.328 233 478 233.672 478 234.5 478 235.328 477.328 236 476.5 236 475.672 236 475 235.328 475 234.5Z" fill="#F9F7EA" fill-rule="evenodd"/><path d="M488 226.5C488 224.015 490.015 222 492.5 222 494.985 222 497 224.015 497 226.5 497 228.985 494.985 231 492.5 231 490.015 231 488 228.985 488 226.5Z" fill="#F9F7EA" fill-rule="evenodd"/><path d="M487 157C487 154.791 488.791 153 491 153 493.209 153 495 154.791 495 157 495 159.209 493.209 161 491 161 488.791 161 487 159.209 487 157Z" fill="#D9D9D9" fill-rule="evenodd"/><path d="M484 155C484 152.791 485.791 151 488 151 490.209 151 492 152.791 492 155 492 157.209 490.209 159 488 159 485.791 159 484 157.209 484 155Z" fill="#F0E160" fill-rule="evenodd"/><path d="M474 144.5C474 141.462 476.462 139 479.5 139 482.538 139 485 141.462 485 144.5 485 147.538 482.538 150 479.5 150 476.462 150 474 147.538 474 144.5Z" fill="#D9D9D9" fill-rule="evenodd"/><path d="M471 142.5C471 139.462 473.462 137 476.5 137 479.538 137 482 139.462 482 142.5 482 145.538 479.538 148 476.5 148 473.462 148 471 145.538 471 142.5Z" fill="#F0E160" fill-rule="evenodd"/><path d="M492 139C492 137.343 493.343 136 495 136 496.657 136 498 137.343 498 139 498 140.657 496.657 142 495 142 493.343 142 492 140.657 492 139Z" fill="#D9D9D9" fill-rule="evenodd"/><path d="M489 137C489 135.343 490.567 134 492.5 134 494.433 134 496 135.343 496 137 496 138.657 494.433 140 492.5 140 490.567 140 489 138.657 489 137Z" fill="#F0E160" fill-rule="evenodd"/><path d="M844.601 326C840.774 326 836.947 326.787 833.523 328.36 821.035 334.259 816 348.222 822.042 359.824 826.474 368.084 835.336 373 844.601 373 846.816 373 849.032 372.607 851.247 372.017 850.039 369.854 850.039 369.854 850.039 369.854 855.678 367.1 855.678 367.1 855.678 367.1 857.088 369.854 857.088 369.854 857.088 369.854 868.569 363.757 873 350.188 867.159 338.979 862.728 330.72 853.866 326 844.601 326" fill="#D9D9D9" fill-rule="evenodd"/><path d="M863.979 336.783C870 348.713 864.982 363.272 852.539 369.136 840.296 375 825.243 370.147 819.021 358.217 813 346.287 818.018 331.728 830.461 325.864 842.704 320 857.757 324.853 863.979 336.783Z" fill="#FF7664" fill-rule="evenodd"/><path d="M858.316 370 857 370.571 860.684 378 862 377.143 858.316 370Z" fill="#D9D9D9" fill-rule="evenodd"/><path d="M867 389.209 861.333 392 850 370.791 855.667 368 867 389.209Z" fill="#575756" fill-rule="evenodd"/><path d="M865.183 375 862.387 376.405 869.656 390.736 864.065 393.264 862.667 390.455 861.269 391.298 855.398 379.777 854 380.339 868.817 409 880 403.661 865.183 375Z" fill="#D9D9D9" fill-rule="evenodd"/><path d="M862.452 377 861 377.85 867.097 389.183 862.742 391.167 864.194 394 870 391.45 862.452 377Z" fill="#B9B9B9" fill-rule="evenodd"/><path d="M860.854 378 855 380.52 861.146 392 862.61 391.16 867 389.2 860.854 378Z" fill="#4A4A49" fill-rule="evenodd"/><path d="M877 401.9 865.817 407 851 378.383 862.183 373 877 401.9Z" fill="#FF7664" fill-rule="evenodd"/><path d="M833.057 331.4C837.68 329.2 842.706 329 847.531 330.4 852.155 332 856.175 335.2 858.387 339.4 860.598 343.8 861 348.6 859.392 353.2 857.784 357.6 854.366 361.4 849.943 363.4 845.32 365.6 840.294 366 835.469 364.4 830.644 362.8 826.825 359.6 824.613 355.4 822.402 351 822 346.2 823.608 341.6 825.216 337.2 828.634 333.4 833.057 331.4Z" fill="#ABDDEF" fill-rule="evenodd"/><path d="M834 354.406C832.6 355 830.6 354.406 829.8 353.02 828.2 349.851 828 346.485 829.2 343.119 830.4 339.951 832.8 337.376 836 335.792 837.6 335 839.4 335.594 840.2 337.178 841 338.564 840.4 340.347 838.8 341.139 837 341.931 835.8 343.317 835.2 345.099 834.4 346.881 834.6 348.663 835.4 350.446 836.2 351.832 835.6 353.614 834 354.406Z" fill="#E6F7FC" fill-rule="evenodd"/><path d="M412 401.2C412 407.4 412 407.4 412 407.4 412 409.4 413.565 411 415.717 411 435.283 410.8 435.283 410.8 435.283 410.8 437.435 410.8 439 409.2 439 407.2 439 401.2 439 401.2 439 401.2 439 399.2 437.239 397.6 435.283 397.6 432.152 397.6 432.152 397.6 432.152 397.6 431.957 394 431.957 394 431.957 394 431.957 393.8 431.957 393.6 431.957 393.6 432.348 393.6 432.348 393.6 432.348 393.6 433.717 393.6 434.891 392.4 434.891 391.2 434.891 389.8 433.717 388.8 432.348 388.8 426.674 388.8 426.674 388.8 426.674 388.8 426.674 386 426.674 386 426.674 386 426.674 388.8 426.674 388.8 426.674 388.8 418.457 388.8 418.457 388.8 418.457 388.8 417.087 388.8 416.109 389.8 416.109 391.2 416.109 392.6 417.087 393.6 418.457 393.6 418.848 393.6 418.848 393.6 418.848 393.6 418.848 393.8 418.848 393.8 418.848 394 418.848 397.6 418.848 397.6 418.848 397.6 415.522 397.6 415.522 397.6 415.522 397.6 413.565 397.6 412 399.2 412 401.2Z" fill="#70706E" fill-rule="evenodd"/><path d="M426.71 377C426.71 377 420 386 426.71 386 426.71 386 426.71 386 426.71 386 426.71 386 426.919 386 427.129 386 433 385.609 426.71 377 426.71 377Z" fill="#70706E" fill-rule="evenodd"/><path d="M485 411.952C467.163 411.952 467.163 411.952 467.163 411.952 467.163 324.151 467.163 324.151 467.163 324.151 469.568 323.145 471.171 320.728 471.171 317.909 471.171 315.09 469.568 312.874 467.163 311.867 467.163 302 467.163 302 467.163 302 462.153 302 462.153 302 462.153 302 462.153 311.666 462.153 311.666 462.153 311.666 460.149 312.472 458.746 314.083 458.145 315.895 437.903 315.895 437.903 315.895 437.903 315.895 437.302 314.888 436.3 314.083 435.097 314.083 436.099 313.478 436.901 312.27 436.901 311.062 436.901 309.048 435.298 307.639 433.293 307.639 418.864 307.639 418.864 307.639 418.864 307.639 417.06 307.639 415.457 309.25 415.457 311.062 415.457 312.472 416.258 313.478 417.26 314.083 416.258 314.284 415.457 315.09 414.855 315.895 408.643 315.895 408.643 315.895 408.643 315.895 408.643 319.923 408.643 319.923 408.643 319.923 414.855 319.923 414.855 319.923 414.855 319.923 415.657 321.131 416.859 321.936 418.262 321.936 418.864 321.936 418.864 321.936 418.864 321.936 418.864 330.193 418.864 330.193 418.864 330.193 411.048 333.012 405.636 340.262 405.636 348.719 405.636 359.795 415.056 368.656 426.479 368.656 437.903 368.656 447.122 359.594 447.122 348.719 446.921 340.463 441.711 333.415 434.295 330.394 434.295 321.936 434.295 321.936 434.295 321.936 434.295 321.936 434.295 321.936 434.295 321.936 435.899 321.936 437.101 321.131 437.903 319.923 458.145 319.923 458.145 319.923 458.145 319.923 458.746 321.936 460.149 323.346 462.153 324.151 462.153 411.952 462.153 411.952 462.153 411.952 388 412.153 388 412.153 388 412.153 388 419 388 419 388 419 485 418.597 485 418.597 485 418.597 485 411.952 485 411.952 485 411.952" fill="#70706E" fill-rule="evenodd"/><path d="M434.145 396.241C430.899 396.241 430.899 396.241 430.899 396.241 430.899 392.545 430.899 392.545 430.899 392.545 430.899 392.339 430.696 392.134 430.696 392.134 431.101 392.134 431.101 392.134 431.101 392.134 432.522 391.929 433.739 390.902 433.739 389.464 433.739 388.232 432.522 387 431.101 387 416.696 387.205 416.696 387.205 416.696 387.205 415.275 387.205 414.261 388.232 414.261 389.67 414.261 390.902 415.275 392.134 416.696 392.134 417.101 392.134 417.101 392.134 417.101 392.134 417.101 392.134 417.101 392.339 417.101 392.545 417.101 396.241 417.101 396.241 417.101 396.241 413.855 396.241 413.855 396.241 413.855 396.241 411.623 396.241 410 397.884 410 399.938 410 406.304 410 406.304 410 406.304 410 408.357 411.623 410 413.855 410 434.348 409.795 434.348 409.795 434.348 409.795 436.377 409.795 438 408.152 438 406.098 438 399.938 438 399.938 438 399.938 438 397.884 436.377 396.241 434.145 396.241" fill="#FFFFFF" fill-rule="evenodd"/><path d="M436 401C436 405.421 436 405.421 436 405.421 436 406.711 434.623 407.816 432.656 407.816 415.344 408 415.344 408 415.344 408 413.574 408 412 406.895 412 405.421 412 401.184 412 401.184 412 401.184" fill="#E2B04D" fill-rule="evenodd"/><path d="M425.2 404C425.2 404 425.4 404 425.8 404 426.2 404 426.8 404 427.2 403.6 427.8 403.4 428 402.8 428 401.8 428 401.6 428 401.2 427.8 400.8 427.8 400.2 427.6 399.8 427.2 399.4 426.8 399 426.4 398.8 426 398.6 426 398.4 425.8 398.2 425.6 398 425.6 397.8 425.6 397.4 425.6 396.8 425.4 385 425.4 385 425.4 385 425 385 425 385 425 385 425 396.8 425 396.8 425 396.8 425 397.6 425 398.2 425.2 398.6 425.6 399 426.2 399.2 426.4 399.6 426.8 399.8 427.2 400 427.4 400.8 427.4 401.2 427.4 401.6 427.4 401.8 427.4 402.6 427.2 403 427 403.2 426.6 403.4 426.2 403.6 425.8 403.6 425.8 403.6 425.6 403.6 425.4 403.4 425.4 403.4 425.4 403.4 425.4 403.4 425.4 403.4 425.4 403.4 425.4 403.4 425.2 404 425.2 404 425.2 404Z" fill="#9A9A9A" fill-rule="evenodd"/><path d="M425 376C425 376 419 385 425 385 431 385 425 376 425 376Z" fill="#FF755A" fill-rule="evenodd"/><path d="M425 379C425 379 421 385 425 385 429 385 425 379 425 379Z" fill="#F0E160" fill-rule="evenodd"/><path d="M432.324 328.749C432.324 312.644 432.324 312.644 432.324 312.644 433.71 312.241 434.899 310.832 434.899 309.422 434.899 307.409 433.314 306 431.531 306 417.072 306 417.072 306 417.072 306 415.29 306 413.705 307.611 413.705 309.422 413.705 311.234 415.29 312.644 417.072 312.845 417.072 328.548 417.072 328.548 417.072 328.548 409.546 331.366 404 338.614 404 347.069 404 358.142 413.309 367 424.599 367 435.889 367 445 357.941 445 347.069 445 338.815 439.652 331.568 432.324 328.749" fill="#FFFFFF" fill-rule="evenodd"/><path d="M407 347C407 356.4 414.91 364 424.599 364 434.288 364 442 356.2 442 347 407 347 407 347 407 347" fill="#FF755A" fill-rule="evenodd"/><path d="M422 358C422 357.448 422.672 357 423.5 357 424.328 357 425 357.448 425 358 425 358.552 424.328 359 423.5 359 422.672 359 422 358.552 422 358Z" fill="#FFF1EF" fill-rule="evenodd"/><path d="M427 351.5C427 350.672 427.895 350 429 350 430.105 350 431 350.672 431 351.5 431 352.328 430.105 353 429 353 427.895 353 427 352.328 427 351.5Z" fill="#FFF1EF" fill-rule="evenodd"/><path d="M425 354C425 353.448 425.448 353 426 353 426.552 353 427 353.448 427 354 427 354.552 426.552 355 426 355 425.448 355 425 354.552 425 354Z" fill="#FFF1EF" fill-rule="evenodd"/><path d="M427 358C427 357.448 427.224 357 427.5 357 427.776 357 428 357.448 428 358 428 358.552 427.776 359 427.5 359 427.224 359 427 358.552 427 358Z" fill="#FFF1EF" fill-rule="evenodd"/><path d="M425 361C425 360.448 425.448 360 426 360 426.552 360 427 360.448 427 361 427 361.552 426.552 362 426 362 425.448 362 425 361.552 425 361Z" fill="#FFF1EF" fill-rule="evenodd"/><path d="M422 351C422 350.448 422.448 350 423 350 423.552 350 424 350.448 424 351 424 351.552 423.552 352 423 352 422.448 352 422 351.552 422 351Z" fill="#FFF1EF" fill-rule="evenodd"/><path d="M483 416.462 386 417 386 410.538 483 410 483 416.462Z" fill="#575756" fill-rule="evenodd"/><rect x="407" y="315" width="54" height="4" fill="#575756"/><path d="M437 316.5C437 318.975 435.125 321 432.833 321 416.167 321 416.167 321 416.167 321 413.667 321 412 318.975 412 316.5 412 314.025 413.667 312 416.167 312 432.833 312 432.833 312 432.833 312 435.125 312 437 314.025 437 316.5Z" fill="#585756" fill-rule="evenodd"/><rect x="460" y="301" width="5" height="113" fill="#575756"/><path d="M456 316.5C456 312.91 458.91 310 462.5 310 466.09 310 469 312.91 469 316.5 469 320.09 466.09 323 462.5 323 458.91 323 456 320.09 456 316.5Z" fill="#575756" fill-rule="evenodd"/><path d="M459 316.5C459 314.015 460.791 312 463 312 465.209 312 467 314.015 467 316.5 467 318.985 465.209 321 463 321 460.791 321 459 318.985 459 316.5Z" fill="#70706E" fill-rule="evenodd"/><path d="M465 496.405 468.094 493 483 511.446 479.062 514 465 496.405Z" fill-rule="evenodd"/><path d="M488.526 572 488 542 492.474 540 493 572 488.526 572Z" fill-rule="evenodd"/><path d="M520.438 535 503 532.87 503.281 528 521 529.826 520.438 535Z" fill-rule="evenodd"/><path d="M501.333 520 498 516.609 519.944 494 523 497.674 501.333 520Z" fill-rule="evenodd"/><path d="M474 537.091 460.133 545 458 541.182 471.867 533 474 537.091Z" fill-rule="evenodd"/><path d="M458.505 470.413C467.495 468 476.892 473.228 479.548 482.076 482 490.924 476.688 500.174 467.495 502.587 458.505 505 448.903 499.772 446.452 490.924 444 482.076 449.312 472.826 458.505 470.413Z" fill-rule="evenodd"/><path d="M514 494.5C514 489.806 518.029 486 523 486 527.971 486 532 489.806 532 494.5 532 499.194 527.971 503 523 503 518.029 503 514 499.194 514 494.5Z" fill-rule="evenodd"/><path d="M450.311 558.193C444.059 559 438.412 554.563 437.807 548.311 437 542.059 441.437 536.613 447.689 535.807 453.941 535 459.588 539.437 460.193 545.689 461 551.941 456.563 557.387 450.311 558.193Z" fill-rule="evenodd"/><path d="M483 575.5C483 570.806 487.029 567 492 567 496.971 567 501 570.806 501 575.5 501 580.194 496.971 584 492 584 487.029 584 483 580.194 483 575.5Z" fill-rule="evenodd"/><path d="M520 534C520 527.925 525.149 523 531.5 523 537.851 523 543 527.925 543 534 543 540.075 537.851 545 531.5 545 525.149 545 520 540.075 520 534Z" fill-rule="evenodd"/><path d="M469 528C469 516.954 477.954 508 489 508 500.046 508 509 516.954 509 528 509 539.046 500.046 548 489 548 477.954 548 469 539.046 469 528Z" fill-rule="evenodd"/><path d="M462 494.405 465.094 491 480 509.446 476.062 512 462 494.405Z" fill="#0A3D54" fill-rule="evenodd"/><path d="M485.632 570 485 539.714 490.368 538 491 569.714 485.632 570Z" fill="#0A3D54" fill-rule="evenodd"/><path d="M518.415 533 500 530.958 500.585 526 519 528.042 518.415 533Z" fill="#0A3D54" fill-rule="evenodd"/><path d="M498.571 518 495 514.609 516.978 492 520 495.674 498.571 518Z" fill="#0A3D54" fill-rule="evenodd"/><path d="M472 535.091 457.267 543 455 538.909 469.733 531 472 535.091Z" fill="#0A3D54" fill-rule="evenodd"/><path d="M456.124 468.4C464.876 466 474.027 471.2 476.613 480 479 489 473.828 498 464.876 500.4 456.124 503 446.774 497.8 444.387 488.8 442 480 447.172 471 456.124 468.4Z" fill="#F0E160" fill-rule="evenodd"/><path d="M512 492.5C512 487.806 515.806 484 520.5 484 525.194 484 529 487.806 529 492.5 529 497.194 525.194 501 520.5 501 515.806 501 512 497.194 512 492.5Z" fill="#FF7664" fill-rule="evenodd"/><path d="M447.311 556.39C441.059 557 435.412 552.525 434.605 546.424 434 540.119 438.437 534.424 444.689 533.814 450.941 533 456.588 537.475 457.193 543.78 458 549.881 453.563 555.576 447.311 556.39Z" fill="#49C47B" fill-rule="evenodd"/><path d="M480 573.5C480 568.806 484.029 565 489 565 493.971 565 498 568.806 498 573.5 498 578.194 493.971 582 489 582 484.029 582 480 578.194 480 573.5Z" fill="#FF755A" fill-rule="evenodd"/><path d="M518 532C518 525.925 522.925 521 529 521 535.075 521 540 525.925 540 532 540 538.075 535.075 543 529 543 522.925 543 518 538.075 518 532Z" fill="#9491C6" fill-rule="evenodd"/><path d="M466 525.5C466 514.73 474.954 506 486 506 497.046 506 506 514.73 506 525.5 506 536.27 497.046 545 486 545 474.954 545 466 536.27 466 525.5Z" fill="#66BEE5" fill-rule="evenodd"/><path d="M658.881 560C642.119 560 642.119 560 642.119 560 640.364 560 639 561.422 639 563.046 639 564.671 639 564.671 639 564.671 639 566.295 640.364 567.514 642.119 567.514 642.119 567.514 642.119 567.514 642.119 567.514 642.119 567.92 642.119 568.123 642.119 568.529 642.314 617.471 642.314 617.471 642.314 617.471 642.314 622.142 646.017 626 650.89 626 655.568 626 659.271 622.142 659.271 617.471 659.076 568.529 659.076 568.529 659.076 568.529 659.076 568.123 659.076 567.717 659.076 567.514 660.636 567.514 662 566.092 662 564.468 662 562.843 662 562.843 662 562.843 662 561.218 660.636 560 658.881 560" fill="#FFFFFF" fill-rule="evenodd"/><path d="M659 557.105C659 558.158 658.19 559 656.976 559 643.821 559 643.821 559 643.821 559 642.81 559 642 558.158 642 557.105 642 556.053 642.81 555.211 643.821 555 656.976 555 656.976 555 656.976 555 658.19 555 659 555.842 659 557.105" fill="#575756" fill-rule="evenodd"/><path d="M657 561.688 644 562 644 557 657 557 657 561.688Z" fill="#575756" fill-rule="evenodd"/><path d="M657.806 574C658 617.028 658 617.028 658 617.028 658 620.813 654.889 624 651.194 624 647.306 624 644.194 621.012 644.194 617.227 644 574 644 574 644 574 657.806 574 657.806 574 657.806 574" fill="#F0E160" fill-rule="evenodd"/><path d="M650 616C650 614.895 650.895 614 652 614 653.105 614 654 614.895 654 616 654 617.105 653.105 618 652 618 650.895 618 650 617.105 650 616Z" fill="#F7F3CE" fill-rule="evenodd"/><path d="M646 608C646 607.448 646.672 607 647.5 607 648.328 607 649 607.448 649 608 649 608.552 648.328 609 647.5 609 646.672 609 646 608.552 646 608Z" fill="#F7F3CE" fill-rule="evenodd"/><path d="M652 602C652 601.448 652.448 601 653 601 653.552 601 654 601.448 654 602 654 602.552 653.552 603 653 603 652.448 603 652 602.552 652 602Z" fill="#F7F3CE" fill-rule="evenodd"/><path d="M653 609C653 608.448 653.448 608 654 608 654.552 608 655 608.448 655 609 655 609.552 654.552 610 654 610 653.448 610 653 609.552 653 609Z" fill="#F7F3CE" fill-rule="evenodd"/><path d="M623.746 560C606.051 560 606.051 560 606.051 560 604.424 560.202 603 561.417 603 563.037 603 564.656 603 564.656 603 564.656 603 566.276 604.424 567.693 606.051 567.693 606.254 567.693 606.254 567.693 606.254 567.693 606.051 567.896 606.051 568.301 606.051 568.503 606.254 617.497 606.254 617.497 606.254 617.497 606.254 622.153 610.322 626 615.203 625.798 620.085 625.798 624.153 621.951 624.153 617.294 623.949 568.503 623.949 568.503 623.949 568.503 623.949 568.301 623.949 567.896 623.949 567.491 625.576 567.491 627 566.276 626.797 564.656 626.797 563.037 626.797 563.037 626.797 563.037 626.797 561.417 625.373 560 623.746 560" fill="#FFFFFF" fill-rule="evenodd"/><path d="M624 556.895C624 557.947 623 559 622 559 609 559 609 559 609 559 608 559 607 558.158 607 556.895 607 555.842 608 555 609 555 622 555 622 555 622 555 623 555 624 555.842 624 556.895" fill="#575756" fill-rule="evenodd"/><rect x="608" y="557" width="14" height="5" fill="#575756"/><path d="M624 556.895C624 557.947 623 559 622 559 609 559 609 559 609 559 608 559 607 558.158 607 556.895 607 555.842 608 555 609 555 622 555 622 555 622 555 623 555 624 555.842 624 556.895" fill="#575756" fill-rule="evenodd"/><rect x="608" y="557" width="14" height="5" fill="#575756"/><path d="M622.792 584C623 617.166 623 617.166 623 617.166 623 620.985 619.667 624 615.5 624 611.333 624 608 620.985 608 617.166 608 584.201 608 584.201 608 584.201 622.792 584 622.792 584 622.792 584" fill="#49C47B" fill-rule="evenodd"/><path d="M612 612C612 610.895 612.895 610 614 610 615.105 610 616 610.895 616 612 616 613.105 615.105 614 614 614 612.895 614 612 613.105 612 612Z" fill="#D6EDD4" fill-rule="evenodd"/><path d="M614 603.5C614 602.672 614.672 602 615.5 602 616.328 602 617 602.672 617 603.5 617 604.328 616.328 605 615.5 605 614.672 605 614 604.328 614 603.5Z" fill="#D6EDD4" fill-rule="evenodd"/><path d="M614 619C614 618.448 614.448 618 615 618 615.552 618 616 618.448 616 619 616 619.552 615.552 620 615 620 614.448 620 614 619.552 614 619Z" fill="#D6EDD4" fill-rule="evenodd"/><path d="M618 608C618 607.448 618.448 607 619 607 619.552 607 620 607.448 620 608 620 608.552 619.552 609 619 609 618.448 609 618 608.552 618 608Z" fill="#D6EDD4" fill-rule="evenodd"/><path d="M694.923 560C677.077 560 677.077 560 677.077 560 675.231 560 674 561.4 674 563 674 564.6 674 564.6 674 564.6 674 566.2 675.436 567.6 677.077 567.6 677.077 567.6 677.077 567.6 677.077 567.6 677.077 567.8 677.077 568.2 677.077 568.4 677.282 616.6 677.282 616.6 677.282 616.6 677.282 621.4 681.385 625 686.308 625 691.231 625 695.333 621.2 695.333 616.6 695.128 568.4 695.128 568.4 695.128 568.4 695.128 568 695.128 567.8 694.923 567.4 696.769 567.4 698 566.2 698 564.6 698 563 698 563 698 563 698 561.4 696.564 560 694.923 560" fill="#FFFFFF" fill-rule="evenodd"/><path d="M695 556.895C695 557.947 694 558.789 693 558.789 680 559 680 559 680 559 678.8 559 678 557.947 678 556.895 678 555.842 678.8 555 680 555 693 555 693 555 693 555 694 555 695 555.842 695 556.895" fill="#575756" fill-rule="evenodd"/><rect x="679" y="557" width="14" height="4" fill="#575756"/><path d="M693.792 600C693.792 617.256 693.792 617.256 693.792 617.256 694 621.025 690.667 624 686.5 624 682.333 624 679 621.025 679 617.256 679 600 679 600 679 600 693.792 600 693.792 600 693.792 600" fill="#66BEE5" fill-rule="evenodd"/><path d="M682 607C682 605.895 682.895 605 684 605 685.105 605 686 605.895 686 607 686 608.105 685.105 609 684 609 682.895 609 682 608.105 682 607Z" fill="#DCECE9" fill-rule="evenodd"/><path d="M688 612C688 611.448 688.448 611 689 611 689.552 611 690 611.448 690 612 690 612.552 689.552 613 689 613 688.448 613 688 612.552 688 612Z" fill="#DCECE9" fill-rule="evenodd"/><path d="M683 617.5C683 616.672 683.448 616 684 616 684.552 616 685 616.672 685 617.5 685 618.328 684.552 619 684 619 683.448 619 683 618.328 683 617.5Z" fill="#DCECE9" fill-rule="evenodd"/><rect x="584" y="591" width="139" height="4" fill="#575756"/><rect x="633" y="593" width="4" height="40" fill="#575756"/><rect x="669" y="593" width="3" height="40" fill="#575756"/><path d="M631 634C631 634 631 634 631 634 631 633 631.8 632 632.8 632 637.4 632 637.4 632 637.4 632 638.2 632 639 633 639 634" fill="#3C3C3B" fill-rule="evenodd"/><path d="M639 634C638.182 634 638.182 634 638.182 634 638.182 633.333 637.568 632.667 636.955 632.667 632.25 632.667 632.25 632.667 632.25 632.667 631.432 632.667 630.818 633.333 630.818 634 630 634 630 634 630 634 630 633 631.023 632 632.25 632 636.955 632 636.955 632 636.955 632 637.977 632 639 633 639 634Z" fill="#575756" fill-rule="evenodd"/><path d="M667 634C667 634 667 634 667 634 667 633 667.7 632 668.575 632 672.425 632 672.425 632 672.425 632 673.3 632 674 633 674 634" fill="#3C3C3B" fill-rule="evenodd"/><path d="M675 634C674.182 634 674.182 634 674.182 634 674.182 633.333 673.568 632.667 672.75 632.667 668.25 632.667 668.25 632.667 668.25 632.667 667.432 632.667 666.818 633.333 666.818 634 666 634 666 634 666 634 666 633 667.023 632 668.25 632 672.75 632 672.75 632 672.75 632 673.977 632 675 633 675 634Z" fill="#575756" fill-rule="evenodd"/><path d="M833.383 419C832.179 419 831.176 419.805 830.975 420.811 830.172 423.628 830.172 423.628 830.172 423.628 829.771 424.835 830.373 425.841 831.376 426.444 816.122 474.732 816.122 474.732 816.122 474.732 815.52 474.531 815.52 474.531 815.52 474.531 811.505 487.407 811.505 487.407 811.505 487.407 814.115 488.212 814.115 488.212 814.115 488.212 814.115 488.413 813.914 488.614 813.914 489.017 813.312 490.626 813.914 492.437 815.319 493.644 812.308 504.71 812.308 504.71 812.308 504.71 811.907 506.119 812.91 507.527 814.315 507.929 824.552 510.545 824.552 510.545 824.552 510.545 824.753 510.545 825.154 510.746 825.355 510.746 826.559 510.746 827.763 509.74 828.165 508.533 830.975 497.869 830.975 497.869 830.975 497.869 832.581 497.668 833.986 496.461 834.387 494.852 834.588 494.65 834.588 494.449 834.588 494.248 837.197 494.852 837.197 494.852 837.197 494.852 841.412 481.975 841.412 481.975 841.412 481.975 840.609 481.774 840.609 481.774 840.609 481.774 842.215 477.146 842.215 477.146 842.215 477.146 843.219 477.347 844.222 477.548 845.226 477.548 847.835 477.548 850.444 476.341 852.05 474.732 870.115 479.158 883.161 495.053 883.161 513.965 883.161 530.665 872.724 544.95 857.871 551.187 855.061 548.37 851.047 546.76 846.832 546.76 841.211 546.76 836.194 549.577 833.383 553.601 824.552 551.992 816.523 547.565 810.502 540.926 845.427 540.926 845.427 540.926 845.427 540.926 845.427 530.665 845.427 530.665 845.427 530.665 795.849 530.665 795.849 530.665 795.849 530.665 795.849 540.926 795.849 540.926 795.849 540.926 797.254 540.926 797.254 540.926 797.254 540.926 797.455 541.529 797.656 541.932 798.057 542.334 805.685 553.4 817.527 561.046 830.975 563.661 830.975 564.868 830.975 566.075 830.975 567.283 793.842 567.283 793.842 567.283 793.842 567.283 787.419 567.283 782 576.135 782 587 884.165 587 884.165 587 884.165 587 884.165 576.135 878.745 567.283 872.323 567.283 862.487 567.283 862.487 567.283 862.487 567.283 862.487 565.673 862.487 563.862 862.487 561.85 862.487 561.448 862.487 560.844 862.487 560.442 880.953 552.595 894 534.689 894 513.965 894 490.023 876.939 469.903 854.057 464.471 852.853 462.056 850.645 460.044 847.835 459.24 856.065 433.084 856.065 433.084 856.065 433.084 856.265 433.084 856.265 433.084 856.265 433.084 856.667 433.084 856.867 433.285 857.068 433.285 858.072 433.285 859.075 432.48 859.477 431.474 860.28 428.657 860.28 428.657 860.28 428.657 860.681 427.45 859.878 426.042 858.473 425.64 833.986 419.201 833.986 419.201 833.986 419.201 833.785 419 833.584 419 833.383 419" fill="#E6EAEF" fill-rule="evenodd"/><path d="M837.907 562C820.543 562 804.377 553.8 794.597 539.8 793 537.4 793.599 534.2 796.193 532.8 798.589 531.2 801.782 531.8 803.578 534.2 811.163 545.2 824.136 551.8 837.907 551.8 860.86 551.8 879.422 533.8 879.422 511.6 879.422 489.4 860.86 471.2 837.907 471.2 834.914 471.2 832.518 469 832.518 466.2 832.518 463.4 834.914 461 837.907 461 866.648 461 890 483.8 890 511.6 890 539.4 866.648 562 837.907 562Z" fill="#062E66" fill-rule="evenodd"/><path d="M842 539 842 539 792 539 792 529 842 529 842 539Z" fill="#E2B04D" fill-rule="evenodd"/><path d="M779 585C779 585 779 585 779 585 779 573.98 784.411 565 791.024 565 869.177 565 869.177 565 869.177 565 875.79 565 881 573.98 881 585" fill="#E2B04D" fill-rule="evenodd"/><path d="M859 560.2C859 585 851.911 575.2 843 575.2 834.089 575.2 827 585 827 560.2 827 551.8 834.089 545 843 545 851.911 545 859 551.8 859 560.2Z" fill="#E2B04D" fill-rule="evenodd"/><path d="M839 557.5C839 555.015 841.015 553 843.5 553 845.985 553 848 555.015 848 557.5 848 559.985 845.985 562 843.5 562 841.015 562 839 559.985 839 557.5Z" fill="#062E66" fill-rule="evenodd"/><path d="M824.849 506.817C824.453 508.206 822.868 509 821.481 508.603 811.377 506.221 811.377 506.221 811.377 506.221 809.792 505.824 809 504.237 809.396 502.847 814.151 485.183 814.151 485.183 814.151 485.183 814.547 483.794 816.132 483 817.519 483.397 827.623 485.779 827.623 485.779 827.623 485.779 829.208 486.176 830 487.763 829.604 489.153L824.849 506.817Z" fill="#062E66" fill-rule="evenodd"/><path d="M831.2 493.03C830.4 495.537 827.8 497 825.4 496.164 813.8 492.612 813.8 492.612 813.8 492.612 811.2 491.985 810 489.269 810.6 486.97 811.4 484.463 814 483 816.4 483.836 828 487.388 828 487.388 828 487.388 830.6 488.015 832 490.731 831.2 493.03Z" fill="#062E66" fill-rule="evenodd"/><path d="M833.538 492 809 485.033 828.462 424 853 430.967 833.538 492Z" fill="#062E66" fill-rule="evenodd"/><path d="M834 493 808 485.778 812 473 838 480.5 834 493Z" fill="#E2B04D" fill-rule="evenodd"/><path d="M855.792 429.945C855.39 431.178 853.981 432 852.773 431.589 828.214 425.014 828.214 425.014 828.214 425.014 826.805 424.603 826 423.37 826.403 421.932 827.208 419.055 827.208 419.055 827.208 419.055 827.61 417.822 829.019 417 830.227 417.411 854.987 423.986 854.987 423.986 854.987 423.986 856.195 424.397 857 425.836 856.597 427.068L855.792 429.945Z" fill="#E2B04D" fill-rule="evenodd"/><path d="M832 466.5C832 461.253 836.253 457 841.5 457 846.747 457 851 461.253 851 466.5 851 471.747 846.747 476 841.5 476 836.253 476 832 471.747 832 466.5Z" fill="#E2B04D" fill-rule="evenodd"/></g></svg>