<svg width="696" height="502" xmlns="http://www.w3.org/2000/svg" xmlns:xlink="http://www.w3.org/1999/xlink" overflow="hidden"><defs><clipPath id="clip0"><rect x="292" y="109" width="696" height="502"/></clipPath></defs><g clip-path="url(#clip0)" transform="translate(-292 -109)"><path d="M301.009 610C978.991 610 978.991 610 978.991 610 983.396 610 987 606.553 987 602.34 987 599.66 987 599.66 987 599.66 987 595.447 983.396 592 978.991 592 301.009 592 301.009 592 301.009 592 296.604 592 293 595.447 293 599.66 293 602.34 293 602.34 293 602.34 293 606.553 296.604 610 301.009 610Z" fill="#D6DCFC" fill-rule="evenodd"/><path d="M928.798 410C909.78 410 894 394.445 894 375.699 894 356.555 909.78 341 928.798 341 948.22 341 964 356.555 964 375.699 964 394.445 948.22 410 928.798 410ZM928.798 344.191C911.399 344.191 897.237 358.15 897.237 375.699 897.237 392.85 911.399 406.809 928.798 406.809 946.601 406.809 960.763 392.85 960.763 375.699 960.763 358.15 946.601 344.191 928.798 344.191Z" fill="#D6DCFC" fill-rule="evenodd"/><path d="M928.799 348C913.489 348 901 360.266 901 375.698 901 390.734 913.489 403 928.799 403 944.511 403 957 390.734 957 375.698 957 360.266 944.511 348 928.799 348ZM928.799 391.921C919.935 391.921 912.281 384.403 912.281 375.698 912.281 366.597 919.935 359.079 928.799 359.079 938.065 359.079 945.719 366.597 945.719 375.698 945.719 384.403 938.065 391.921 928.799 391.921Z" fill="#D6DCFC" fill-rule="evenodd"/><path d="M921 375.5C921 370.806 924.582 367 929 367 933.418 367 937 370.806 937 375.5 937 380.194 933.418 384 929 384 924.582 384 921 380.194 921 375.5Z" fill="#D6DCFC" fill-rule="evenodd"/><path d="M967.344 336.686 965.812 329 955.094 339.761 956.242 345.333 954.711 347.063 954.711 347.063 929.637 372.427 929.637 369.353 926 369.353 926 378 934.805 378 934.805 374.541 931.551 374.541 957.008 349.369 957.008 349.369 958.539 347.831 964.09 348.984 975 338.224 967.344 336.686ZM958.539 340.914 963.707 335.341 964.09 337.455 958.922 343.027 958.539 340.914ZM962.941 345.333 961.027 344.949 966.578 339.761 968.492 340.145 962.941 345.333Z" fill="#D6DCFC" fill-rule="evenodd"/><path d="M947.556 354C939 362.556 939 362.556 939 362.556 940.222 362.963 941.037 363.778 941.444 365 950 356.444 950 356.444 950 356.444 949.185 355.63 948.37 354.815 947.556 354Z" fill="#F9FBFC" fill-rule="evenodd"/><path d="M933.6 368C929.6 372.4 929.6 372.4 929.6 372.4 929.6 369.2 929.6 369.2 929.6 369.2 926 369.2 926 369.2 926 369.2 926 378 926 378 926 378 934.8 378 934.8 378 934.8 378 934.8 374.4 934.8 374.4 934.8 374.4 931.6 374.4 931.6 374.4 931.6 374.4 936 370.4 936 370.4 936 370.4 935.2 369.6 934.4 368.8 933.6 368Z" fill="#F9FBFC" fill-rule="evenodd"/><path d="M800.156 169.6C802.148 169.6 802.148 169.6 802.148 169.6 802.148 169.6 802.148 169.2 802.148 168.8 802.148 168.8 802.148 168.8 802.148 168.8 802.148 162.4 807.727 157.2 814.102 157.2 823.266 157.2 823.266 157.2 823.266 157.2 823.266 156.8 823.266 156.8 823.266 156.4 823.266 149.6 828.844 144 835.617 144 838.008 144 838.008 144 838.008 144 844.781 144 850.359 149.6 850.359 156.4 850.359 156.8 850.359 156.8 850.359 157.2 862.312 157.2 862.312 157.2 862.312 157.2 868.688 157.2 873.867 162.4 873.867 168.8 873.867 168.8 873.867 168.8 873.867 168.8 873.867 169.2 873.867 169.6 873.867 169.6 879.844 169.6 879.844 169.6 879.844 169.6 886.219 169.6 891 174.8 891 180.8 891 186.8 886.219 192 879.844 192 800.156 192 800.156 192 800.156 192 794.18 192 789 186.8 789 180.8 789 174.8 794.18 169.6 800.156 169.6Z" fill="#D6DCFC" fill-rule="evenodd"/><path d="M427.022 244.892C425.826 244.892 425.826 244.892 425.826 244.892 425.826 244.494 425.826 244.494 425.826 244.096 425.826 244.096 425.826 244.096 425.826 244.096 425.826 239.723 422.236 236.145 417.449 236.145 411.067 236.145 411.067 236.145 411.067 236.145 411.067 235.747 411.067 235.747 411.067 235.747 411.067 230.976 407.079 227 402.691 227 400.697 227 400.697 227 400.697 227 395.91 227 392.32 230.976 392.32 235.747 392.32 235.747 392.32 235.747 392.32 236.145 384.343 236.145 384.343 236.145 384.343 236.145 379.556 236.145 375.966 239.723 375.966 244.096 375.966 244.096 375.966 244.096 375.966 244.096 375.966 244.494 375.966 244.494 375.966 244.892 371.978 244.892 371.978 244.892 371.978 244.892 367.59 244.892 364 248.072 364 252.446 364 256.819 367.59 260 371.978 260 427.022 260 427.022 260 427.022 260 431.41 260 435 256.819 435 252.446 435 248.072 431.41 244.892 427.022 244.892Z" fill="#D6DCFC" fill-rule="evenodd"/><path d="M355.4 326.447C359.4 322.475 364.2 317.709 364.2 310.56 359.4 310.56 359.4 310.56 359.4 310.56 359.4 315.723 355.4 319.298 351.8 322.872 348.6 326.05 345.8 328.83 345.8 332.801 345.4 332.801 345.4 332.801 345.4 332.801 345.4 332.801 345.8 332.801 345.8 332.801 345.8 332.801 345.4 333.199 345.4 333.199 345.8 333.199 345.8 333.199 345.8 333.199 345.8 336.773 348.6 339.95 351.8 342.73 355.4 346.702 359.4 350.277 359.4 355.44 364.2 355.44 364.2 355.44 364.2 355.44 364.2 348.291 359.4 343.525 355.4 339.553 353 337.17 350.6 334.787 350.6 332.801 350.6 330.816 353 328.83 355.4 326.447ZM335 339.553C331 343.525 326.2 348.291 326.2 355.44 331 355.44 331 355.44 331 355.44 331 350.277 335 346.702 338.6 342.73 341.8 339.95 344.6 336.773 345 333.199 345 333.199 345 333.199 345 333.199 345 333.199 345 332.801 345 332.801 345 332.801 345 332.801 345 332.801 345 332.801 345 332.801 345 332.801 344.6 328.83 341.8 326.05 338.6 322.872 335 319.298 331 315.723 331 310.56 326.2 310.56 326.2 310.56 326.2 310.56 326.2 317.709 331 322.475 335 326.447 337.4 328.83 339.8 330.816 339.8 332.801 339.8 334.787 337.4 337.17 335 339.553ZM323 361C367 361 367 361 367 361 367 356.234 367 356.234 367 356.234 323 356.234 323 356.234 323 356.234L323 361ZM323 305C323 309.766 323 309.766 323 309.766 367 309.766 367 309.766 367 309.766 367 305 367 305 367 305L323 305ZM341 324.461C342.2 326.05 343.8 327.241 344.6 329.227 345 330.021 345 330.418 345.4 330.816 345.4 330.816 345.4 330.418 345.4 330.418 345.8 329.227 346.2 328.433 346.6 327.638 347.8 326.447 349 324.858 350.2 323.667 351.8 322.475 353 320.887 354.6 319.298 336.2 319.298 336.2 319.298 336.2 319.298 337.4 321.284 339.4 322.872 341 324.461ZM345.4 334.787C345.4 334.787 345.4 334.787 345.4 334.787 345.4 334.787 345.4 334.787 345.4 334.787ZM345.4 334.787C345.4 345.908 334.2 350.674 332.6 351.468 332.6 352.262 332.2 353.454 332.2 355.44 358.2 355.44 358.2 355.44 358.2 355.44 358.2 352.262 358.2 351.865 357.8 351.468 357.8 351.468 357.8 351.468 357.8 351.468 357.8 351.468 357.8 351.468 357.8 351.468 357.8 351.468 345.4 346.702 345.4 334.787 345.4 334.787 345.4 334.787 345.4 334.787Z" fill="#D6DCFC" fill-rule="evenodd"/><path d="M402 601C381.956 590.622 337.458 587.429 324.63 569.468 321.824 565.077 319.018 560.687 318.617 555.897 318.216 550.708 320.22 545.12 324.63 542.725 328.238 541.129 333.048 541.129 335.855 538.335 338.26 535.94 338.661 531.948 337.057 528.755 335.855 525.562 333.449 523.167 330.643 520.773 324.63 514.785 317.414 509.597 314.207 501.614 311 493.631 313.004 482.854 321.022 480.06 325.833 478.064 331.846 479.262 335.053 475.67 338.661 472.476 337.859 466.888 335.454 462.897 333.048 458.906 329.04 456.112 326.233 452.12 322.225 446.133 320.621 438.15 322.626 430.966 324.63 424.18 330.242 417.794 337.057 415L402 601Z" fill="#7782E0" fill-rule="evenodd"/><path d="M401.921 601C411.139 580.643 444 550.707 442.798 528.355 442.397 523.565 441.596 518.376 438.79 513.985 436.386 509.994 431.176 506.8 426.367 507.599 422.36 508.397 418.753 511.59 414.345 511.191 411.139 510.393 408.333 507.599 407.532 504.006 406.73 500.813 407.131 497.221 407.532 494.028 409.135 485.645 411.139 476.864 408.734 468.881 406.33 460.898 397.914 453.713 389.899 456.108 385.09 457.705 381.082 462.096 376.273 461.696 371.464 460.898 368.659 456.108 368.258 451.718 367.457 446.928 368.659 442.138 368.659 437.747 368.258 430.163 364.251 422.979 358.24 418.987 352.228 414.597 344.213 413 337 414.996L401.921 601Z" fill="#878CF0" fill-rule="evenodd"/><path d="M345.192 448C344.788 448 344.788 448 344.788 448 325.404 438 325.404 438 325.404 438 325 437.6 325 437.2 325 436.8 325.404 436.4 325.808 436 326.212 436.4 345.192 446.4 345.192 446.4 345.192 446.4 345.596 446.8 346 447.2 345.596 447.6 345.596 448 345.192 448 345.192 448Z" fill="#878CF0" fill-rule="evenodd"/><path d="M352.25 447C351.833 447 351.833 447 351.833 447 351.417 447 351 446.6 351.417 445.8 359.333 425.8 359.333 425.8 359.333 425.8 359.75 425.4 360.167 425 360.583 425 361 425.4 361 425.8 361 426.2 352.667 446.6 352.667 446.6 352.667 446.6 352.667 447 352.25 447 352.25 447Z" fill="#7782E0" fill-rule="evenodd"/><path d="M377.189 509C376.792 509 376.792 509 376.792 509 376.396 509 376 508.212 376.396 507.817 395.415 468.788 395.415 468.788 395.415 468.788 395.811 468.394 396.208 468 396.604 468.394 397 468.394 397 468.788 397 469.183 377.585 508.606 377.585 508.606 377.585 508.606 377.585 509 377.189 509 377.189 509Z" fill="#7782E0" fill-rule="evenodd"/><path d="M392.796 565C392.398 565 392.398 565 392.398 564.602 392 564.204 392 563.806 392 563.407 429.408 522.398 429.408 522.398 429.408 522.398 429.806 522 430.204 522 430.602 522.398 430.602 522.796 431 523.194 430.602 523.593 393.194 564.602 393.194 564.602 393.194 564.602 393.194 564.602 393.194 565 392.796 565Z" fill="#7782E0" fill-rule="evenodd"/><path d="M362.795 512C362.795 512 362.795 512 362.795 512 319.402 492.556 319.402 492.556 319.402 492.556 319 492.556 319 492.167 319 491.778 319.402 491.389 319.804 491 320.205 491.389 363.196 510.444 363.196 510.444 363.196 510.444 363.598 510.444 364 511.222 363.598 511.611 363.598 511.611 363.196 512 362.795 512Z" fill="#878CF0" fill-rule="evenodd"/><path d="M384.192 569C384.192 569 384.192 569 383.788 569 324.404 552.565 324.404 552.565 324.404 552.565 324 552.565 324 552.174 324 551.783 324 551.391 324.404 551 324.808 551 384.596 567.435 384.596 567.435 384.596 567.435 385 567.435 385 567.826 385 568.217 385 568.609 384.596 569 384.192 569Z" fill="#878CF0" fill-rule="evenodd"/><path d="M923 593C937.8 583.349 972.2 578.121 981 563.241 983 559.622 985 556.003 985 551.981 985 547.96 983 543.938 979.4 542.33 976.6 541.123 972.6 541.525 970.2 539.515 968.2 537.504 967.8 534.689 968.6 531.874 969.8 529.461 971.4 527.45 973.4 525.44 977.8 520.614 982.6 515.788 985 509.354 987 502.92 984.6 494.475 978.2 492.866 974.2 491.66 969.8 492.866 967 490.453 964.2 488.04 964.2 483.617 965.8 480.399 967.4 477.182 970.2 474.367 972.2 471.552 975 466.324 975.8 459.89 973.8 454.662 971.8 449.032 967 444.609 961.4 443L923 593Z" fill="#7782E0" fill-rule="evenodd"/><path d="M922.497 593C914.075 577.338 886.401 556.455 886 538.785 886 534.769 886 530.753 888.005 527.138 890.011 523.926 893.62 521.114 897.631 521.516 900.84 521.918 903.647 523.926 906.856 523.122 909.663 522.721 911.267 520.311 912.07 517.5 912.471 514.689 911.668 512.279 911.267 509.468 909.663 503.043 907.257 496.617 908.861 489.79 910.064 483.364 916.08 477.34 922.497 478.545 926.508 479.75 929.717 482.963 933.727 482.16 936.936 481.356 938.941 477.34 939.342 473.726 939.342 470.112 938.139 466.497 938.139 462.883 937.738 456.859 940.545 451.237 944.957 447.221 949.369 443.606 955.385 442 961 443.205L922.497 593Z" fill="#878CF0" fill-rule="evenodd"/><path d="M958.2 468C957.8 468 957.4 468 957.4 467.593 957 467.593 957.4 466.778 957.8 466.778 971.8 457.407 971.8 457.407 971.8 457.407 972.2 457 972.6 457.407 972.6 457.407 973 457.815 973 458.63 972.6 458.63 958.6 468 958.6 468 958.6 468 958.2 468 958.2 468 958.2 468Z" fill="#878CF0" fill-rule="evenodd"/><path d="M951.263 466C950.895 466 950.526 466 950.526 465.622 945.368 453.135 945.368 453.135 945.368 453.135 945 452.757 945.368 452 945.737 452 946.105 452 946.474 452 946.474 452.378 951.632 465.243 951.632 465.243 951.632 465.243 952 465.622 951.632 466 951.263 466 951.263 466 951.263 466 951.263 466Z" fill="#7782E0" fill-rule="evenodd"/><path d="M949.192 517C948.795 517 948.397 516.6 948.397 516.6 948 516.2 948.397 515.4 948.795 515.4 977.41 501 977.41 501 977.41 501 977.808 501 978.603 501 978.603 501.4 979 501.8 978.603 502.2 978.205 502.6 949.192 517 949.192 517 949.192 517 949.192 517 949.192 517 949.192 517Z" fill="#878CF0" fill-rule="evenodd"/><path d="M936.208 513C935.811 513 935.811 513 935.415 512.597 916.396 487.612 916.396 487.612 916.396 487.612 916 487.209 916 486.403 916.396 486.403 916.792 486 917.189 486 917.585 486.403 937 511.791 937 511.791 937 511.791 937 512.194 937 512.597 936.604 512.597 936.604 513 936.208 513 936.208 513Z" fill="#7782E0" fill-rule="evenodd"/><path d="M927.205 565C927.205 565 926.807 564.605 926.807 564.605 895.398 532.581 895.398 532.581 895.398 532.581 895 532.186 895 531.791 895.398 531.395 895.795 531 896.193 531 896.59 531.395 928 563.419 928 563.419 928 563.419 928 563.814 928 564.209 928 564.605 927.602 564.605 927.602 565 927.205 565Z" fill="#7782E0" fill-rule="evenodd"/><path d="M935.195 566C934.797 566 934.398 566 934.398 565.614 934 565.227 934.398 564.841 934.797 564.841 979.805 549 979.805 549 979.805 549 980.203 549 980.602 549.386 980.602 549.773 981 550.159 980.602 550.545 980.203 550.545 935.195 566 935.195 566 935.195 566 935.195 566 935.195 566 935.195 566Z" fill="#878CF0" fill-rule="evenodd"/><path d="M481.217 568C480.826 568 480.435 567.609 480.435 567.609 473.391 560.174 473.391 560.174 473.391 560.174 473 560.174 473 559.391 473.391 559.391 473.783 559 474.174 559 474.565 559.391 481.609 566.435 481.609 566.435 481.609 566.435 482 566.826 482 567.217 481.609 567.609 481.609 567.609 481.217 568 481.217 568Z" fill="#7782E0" fill-rule="evenodd"/><path d="M407.234 572.911C411.646 570.921 416.859 570.921 421.271 572.115 421.672 562.565 426.484 553.414 433.703 547.843 444.13 540.283 458.969 539.487 471 546.251 470.599 541.476 472.604 537.099 476.615 535.11 481.026 532.723 486.24 533.12 489.849 536.702 490.25 534.712 495.062 524.764 506.693 521.183 517.12 518 528.75 521.183 536.37 529.937 542.385 525.958 549.604 525.162 556.021 528.346 562.438 531.529 566.448 537.497 566.849 544.66 578.88 539.487 592.115 541.079 601.339 548.241 608.156 554.209 612.167 563.361 611.766 572.911 619.786 576.492 625 584.848 624.599 594 618.182 594 611.766 594 605.349 594 595.323 594 585.297 594 575.271 594 531.557 594 487.443 594 443.729 594 437.714 594 432.099 594 426.484 594 415.656 594 405.229 594 394.401 594 394 584.848 399.214 576.492 407.234 572.911Z" fill="#878CF0" fill-rule="evenodd"/><path d="M411.2 594C450.8 594 490.8 594 530.4 594 532 587.63 529.6 581.259 524.8 578.074 518.8 574.491 512.8 576.88 512 576.88 514 571.704 512.8 565.333 508.4 561.75 504.4 558.167 498.4 557.37 493.2 559.759 492.4 558.963 484 551 471.6 553.389 458.8 555.778 454 566.528 453.6 567.722 451.2 563.741 446.8 561.75 442.4 562.546 437.2 563.343 433.6 567.722 433.6 573.296 428 570.111 420.8 570.509 416 574.491 410 578.87 408 586.833 411.2 594Z" fill="#7782E0" fill-rule="evenodd"/><path d="M473.2 593C472.4 593 472 592.597 472 592.194 472 569.21 472 569.21 472 569.21 472 568.403 472.4 568 473.2 568 473.6 568 474 568.403 474 569.21 474 592.194 474 592.194 474 592.194 474 592.597 473.6 593 473.2 593Z" fill="#878CF0" fill-rule="evenodd"/><path d="M475.812 585C475.812 585 475.406 585 475 584.6 475 584.2 475 583.4 475.406 583.4 499.375 571.4 499.375 571.4 499.375 571.4 499.781 571 500.594 571.4 500.594 571.8 501 572.2 500.594 572.6 500.188 573 476.219 585 476.219 585 476.219 585 476.219 585 476.219 585 475.812 585Z" fill="#878CF0" fill-rule="evenodd"/><path d="M464.837 586C464.837 586 464.449 586 464.449 585.6 447.388 571.6 447.388 571.6 447.388 571.6 447 571.2 447 570.8 447.388 570.4 447.776 570 448.163 570 448.551 570 465.612 584.4 465.612 584.4 465.612 584.4 466 584.8 466 585.2 465.612 585.6 465.612 586 465.224 586 464.837 586Z" fill="#878CF0" fill-rule="evenodd"/><path d="M522.8 589C522.4 589 522 588.605 522 588.21 522 542.79 522 542.79 522 542.79 522 542.395 522.4 542 522.8 542 523.6 542 524 542.395 524 542.79 524 588.21 524 588.21 524 588.21 524 588.605 523.6 589 522.8 589Z" fill="#7782E0" fill-rule="evenodd"/><path d="M523.814 576C523.407 576 523 575.59 523 575.18 523 574.769 523 573.949 523.814 573.949 567.779 560 567.779 560 567.779 560 568.186 560 568.593 560.41 569 560.82 569 561.231 568.593 562.051 568.186 562.051 524.221 575.59 524.221 575.59 524.221 575.59 524.221 576 523.814 576 523.814 576Z" fill="#7782E0" fill-rule="evenodd"/><path d="M547.2 567C547.2 567 547.2 567 546.8 567 546.4 567 546 566.211 546.4 565.816 550 552.789 550 552.789 550 552.789 550.4 552.395 550.8 552 551.2 552 551.6 552.395 552 552.789 552 553.184 548 566.605 548 566.605 548 566.605 548 567 547.6 567 547.2 567Z" fill="#7782E0" fill-rule="evenodd"/><path d="M673 141.228C673 157.772 673 157.772 673 157.772 673 159.386 672.206 161 671.411 161 663.863 161 663.863 161 663.863 161 657.507 159.789 650.753 158.982 644 158.982 637.247 158.982 630.493 159.789 623.74 161 616.589 161 616.589 161 616.589 161 615.794 161 615 159.386 615 157.772 615 141.228 615 141.228 615 141.228 615 139.614 615.794 138 616.589 138 671.411 138 671.411 138 671.411 138 672.206 138 673 139.614 673 141.228Z" fill="#56548C" fill-rule="evenodd"/><path d="M607.596 110C679.404 110 679.404 110 679.404 110 680.202 110 681 110.795 681 111.59 681 141.41 681 141.41 681 141.41 681 142.205 680.202 143 679.404 143 671.027 143 671.027 143 671.027 143 615.973 143 615.973 143 615.973 143 607.596 143 607.596 143 607.596 143 606.798 143 606 142.205 606 141.41 606 111.59 606 111.59 606 111.59 606 110.795 606.798 110 607.596 110Z" fill="#FF8578" fill-rule="evenodd"/><path d="M664 155C623 155 623 155 623 155 629.901 154.333 636.802 154 643.703 154 650.604 154 657.505 154.333 664 155Z" fill="#B1B2F3" fill-rule="evenodd"/><rect x="801" y="367" width="27" height="8" fill="#56548C"/><path d="M518.8 192.103C530 184.956 538.4 179 538.4 179 540 180.985 540 180.985 540 180.985 504.4 206 504.4 206 504.4 206 502 202.824 502 202.824 502 202.824L518.8 192.103Z" fill="#B1B2F3" fill-rule="evenodd"/><path d="M448.4 374.1C448.4 482.051 536 569.611 644 569.611 663.6 569.611 682.8 566.812 700.8 561.215 707.6 584.804 707.6 584.804 707.6 584.804 707.2 584.804 706.8 584.804 706.8 584.804 703.2 586.004 700 586.803 696.4 587.603 679.6 591.601 662 594 644 594 522.4 594 424 495.645 424 374.1 424 305.731 454.8 244.559 504 204.178 504 204.178 504 204.178 504 204.178 539.2 180.588 539.2 180.588 539.2 180.588 539.2 180.588 539.2 180.588 539.2 180.588 564.8 166.595 593.2 157.799 623.6 155 664 155 664 155 664 155 776.4 164.995 864 259.352 864 374.1 864 405.686 857.2 435.672 845.2 463.26 844 465.658 842.8 468.457 841.6 471.256 819.6 460.461 819.6 460.461 819.6 460.461 832.4 434.473 839.6 405.286 839.6 374.1 839.6 266.149 752 178.189 644 178.189 536 178.189 448.4 266.149 448.4 374.1Z" fill="#B1B2F3" fill-rule="evenodd"/><path d="M819.959 460.688C832.785 434.662 840 405.432 840 374.2 840 266.09 752.221 178 644 178 535.779 178 448 266.09 448 374.2 448 482.311 535.779 570 644 570 663.64 570 682.879 567.197 700.916 561.591 687.689 514.744 687.689 514.744 687.689 514.744 665.644 435.463 665.644 435.463 665.644 435.463 650.012 379.406 650.012 379.406 650.012 379.406 648.409 381.007 646.405 382.208 644 382.208 642.798 382.208 641.595 381.808 640.793 381.408 577.464 447.075 577.464 447.075 577.464 447.075 566.642 451.079 566.642 451.079 566.642 451.079 570.25 440.268 570.25 440.268 570.25 440.268 636.384 376.603 636.384 376.603 636.384 376.603 635.984 375.802 635.984 375.001 635.984 374.2 635.984 370.596 637.988 367.794 640.793 366.592 638.789 241.265 638.789 241.265 638.789 241.265 644 227.25 644 227.25 644 227.25 648.81 240.864 648.81 240.864 648.81 240.864 647.207 366.592 647.207 366.592 647.207 366.592 650.012 367.794 652.016 370.596 652.016 374.2 652.016 375.802 651.215 377.804 650.413 379.005L819.959 460.688ZM801.521 366.993C827.975 366.993 827.975 366.993 827.975 366.993 827.975 375.401 827.975 375.401 827.975 375.401 801.521 375.401 801.521 375.401 801.521 375.401L801.521 366.993ZM484.474 375.401C458.02 375.401 458.02 375.401 458.02 375.401 458.02 366.993 458.02 366.993 458.02 366.993 484.474 366.993 484.474 366.993 484.474 366.993L484.474 375.401ZM638.789 529.559C647.207 529.559 647.207 529.559 647.207 529.559 647.207 556.386 647.207 556.386 647.207 556.386 638.789 556.386 638.789 556.386 638.789 556.386L638.789 529.559ZM647.207 213.236C638.789 213.236 638.789 213.236 638.789 213.236 638.789 186.409 638.789 186.409 638.789 186.409 647.207 186.409 647.207 186.409 647.207 186.409L647.207 213.236Z" fill="#56548C" fill-rule="evenodd"/><path d="M650 378.5C649.5 378.5 649.5 379 649.5 379 649 378 649 378 649 378L650 378.5Z" fill="#B1B2F3" fill-rule="evenodd"/><rect x="639" y="529" width="8" height="27" fill="#3EBFB4"/><rect x="639" y="186" width="8" height="27" fill="#B1B2F3"/><path d="M649 240.58C647.4 366 647.4 366 647.4 366 646.2 365.601 645.4 365.601 644.2 365.601 643 365.601 641.8 365.601 641 366 639 240.98 639 240.98 639 240.98 644.2 227 644.2 227 644.2 227L649 240.58Z" fill="#F9FBFC" fill-rule="evenodd"/><path d="M636.6 376C637.4 378.419 639 380.032 641 380.839 577.8 446.968 577.8 446.968 577.8 446.968 567 451 567 451 567 451 570.6 440.113 570.6 440.113 570.6 440.113L636.6 376Z" fill="#F9FBFC" fill-rule="evenodd"/><path d="M507 175.247C527.122 162 527.122 162 527.122 162 527.524 162 528.329 162 528.732 162.39 539.598 178.364 539.598 178.364 539.598 178.364 540 178.753 540 179.532 539.598 179.922 539.195 180.312 539.195 180.312 539.195 180.312 539.195 180.312 539.195 180.312 539.195 180.312 531.951 183.818 525.512 187.714 519.073 192 517.463 190.442 517.463 190.442 517.463 190.442 517.061 189.662 517.061 189.662 517.061 189.662 509.012 177.584 509.012 177.584 509.012 177.584 508.207 177.195 508.207 177.195 508.207 177.195L507 175.247Z" fill="#FF8578" fill-rule="evenodd"/><path d="M519 192.2C513.704 195.8 508.407 199.8 503.519 203.8 503.519 203.8 503.519 203.8 503.519 203.8 499.444 206.6 499.444 206.6 499.444 206.6 498.63 207 498.222 207 497.815 206.2 486.407 189.8 486.407 189.8 486.407 189.8 486 189.4 486.407 188.6 486.815 188.2 506.778 175 506.778 175 506.778 175 508 177 508 177 508 177 508.815 177.4 508.815 177.4 508.815 177.4 516.963 189.8 516.963 189.8 516.963 189.8 517.37 190.6 517.37 190.6 517.37 190.6L519 192.2Z" fill="#FF8578" fill-rule="evenodd"/><rect x="458" y="367" width="26" height="8" fill="#F9FBFC"/><rect x="639" y="529" width="8" height="27" fill="#56548C"/><rect x="458" y="367" width="26" height="8" fill="#56548C"/><path d="M652 374C652 370.8 650 367.6 647.2 366.4 646 366 645.2 366 644 366 642.8 366 641.6 366 640.8 366.4 638 367.6 636 370.8 636 374 636 374.8 636 375.6 636.4 376.4 637.2 378.8 638.8 380.4 640.8 381.2 641.6 381.6 642.8 382 644 382 646.4 382 648.4 380.8 650 379.2 649.6 378.4 649.6 378.4 649.6 378.4 650.4 378.8 650.4 378.8 650.4 378.8 651.2 377.6 652 375.6 652 374Z" fill="#B1B2F3" fill-rule="evenodd"/><path d="M640.923 366 639 241.035 644.192 227 649 240.65 647.269 366 640.923 366Z" fill="#B1B2F3" fill-rule="evenodd"/><path d="M641 380.839C577.8 446.968 577.8 446.968 577.8 446.968 567 451 567 451 567 451 570.6 440.113 570.6 440.113 570.6 440.113 636.6 376 636.6 376 636.6 376 637.4 378.419 639 380.032 641 380.839Z" fill="#B1B2F3" fill-rule="evenodd"/><path d="M647.2 231C646 233.812 646 233.812 646 233.812 648.4 240.642 648.4 240.642 648.4 240.642 646.8 366.786 646.8 366.786 646.8 366.786 648 367.59 649.2 368.795 650 370 652 245.061 652 245.061 652 245.061L647.2 231Z" fill="#44447A" fill-rule="evenodd"/><path d="M651.154 371C651.154 371.833 651.538 372.667 651.538 373.917 651.538 375.583 650.769 377.667 650 378.917 654.231 381 654.231 381 654.231 381 654.615 380.167 655 379.333 655 378.083 655 375.167 653.077 372.25 651.154 371Z" fill="#44447A" fill-rule="evenodd"/><path d="M651 384.63C649.404 379 649.404 379 649.404 379 647.808 380.608 645.813 381.815 643.419 381.815 642.222 381.815 641.025 381.413 640.227 381.011 577.182 446.958 577.182 446.958 577.182 446.958 571.995 448.968 571.995 448.968 571.995 448.968 570 455 570 455 570 455 580.773 450.979 580.773 450.979 580.773 450.979 643.818 385.032 643.818 385.032 643.818 385.032 644.616 385.434 645.813 385.836 647.01 385.836 648.207 385.836 649.803 385.434 651 384.63Z" fill="#44447A" fill-rule="evenodd"/><path d="M552.778 210 566 232.787 558.806 237 545 214.021 552.778 210Z" fill="#B1B2F3" fill-rule="evenodd"/><path d="M482.472 277 506 290.806 501.528 298 478 284.778 482.472 277Z" fill="#B1B2F3" fill-rule="evenodd"/><rect x="456" y="371" width="27" height="8" fill="#B1B2F3"/><path d="M480 464.593 503.007 452 507 458.852 483.993 472 480 464.593Z" fill="#B1B2F3" fill-rule="evenodd"/><path d="M547 535.17 560.472 512 568 516.404 554.33 539 547 535.17Z" fill="#B1B2F3" fill-rule="evenodd"/><rect x="641" y="535" width="8" height="27" fill="#B1B2F3"/><rect x="805" y="369" width="26" height="8" fill="#B1B2F3"/><path d="M808 282.852 784.993 296 781 288.593 804.007 276 808 282.852Z" fill="#B1B2F3" fill-rule="evenodd"/><path d="M740 213.404 726.981 236 720 231.979 732.83 209 740 213.404Z" fill="#B1B2F3" fill-rule="evenodd"/><path d="M643.5 571C534.534 571 446 482.555 446 373.7 446 264.845 534.534 176 643.5 176 752.466 176 841 264.845 841 373.7 841 404.116 834.19 433.73 820.569 460.944 817.765 459.744 817.765 459.744 817.765 459.744 830.985 432.93 837.795 403.715 837.795 373.7 837.795 266.446 750.462 179.202 643.5 179.202 536.137 179.202 449.205 266.446 449.205 373.7 449.205 480.554 536.137 567.798 643.5 567.798 662.729 567.798 681.558 564.997 699.986 559.394 700.787 562.596 700.787 562.596 700.787 562.596 682.359 568.199 663.13 571 643.5 571Z" fill="#44447A" fill-rule="evenodd"/><path d="M687 514 644 430 665.31 435.524 687 514Z" fill="#44447A" fill-rule="evenodd"/><path d="M618.5 137C618 137 618 136.61 618 136.22 618 114.78 618 114.78 618 114.78 618 114.39 618 114 618.5 114 618.75 114 619 114.39 619 114.78 619 136.22 619 136.22 619 136.22 619 136.61 618.75 137 618.5 137Z" fill="#EF7767" fill-rule="evenodd"/><path d="M631 137C630.5 137 630 136.61 630 136.22 630 114.78 630 114.78 630 114.78 630 114.39 630.5 114 631 114 631.5 114 632 114.39 632 114.78 632 136.22 632 136.22 632 136.22 632 136.61 631.5 137 631 137Z" fill="#EF7767" fill-rule="evenodd"/><path d="M644 137C643.5 137 643 136.61 643 136.22 643 114.78 643 114.78 643 114.78 643 114.39 643.5 114 644 114 644.5 114 645 114.39 645 114.78 645 136.22 645 136.22 645 136.22 645 136.61 644.5 137 644 137Z" fill="#EF7767" fill-rule="evenodd"/><path d="M656 137C655.5 137 655 136.61 655 136.22 655 114.78 655 114.78 655 114.78 655 114.39 655.5 114 656 114 657 114 657 114.39 657 114.78 657 136.22 657 136.22 657 136.22 657 136.61 657 137 656 137Z" fill="#EF7767" fill-rule="evenodd"/><path d="M669 137C668.5 137 668 136.61 668 136.22 668 114.78 668 114.78 668 114.78 668 114.39 668.5 114 669 114 669.5 114 670 114.39 670 114.78 670 136.22 670 136.22 670 136.22 670 136.61 669.5 137 669 137Z" fill="#EF7767" fill-rule="evenodd"/><path d="M502.8 200C502.8 200 502.4 200 502.4 200 494 187.235 494 187.235 494 187.235 494 186.824 494 186.412 494.4 186 494.8 186 495.2 186 495.2 186.412 503.6 198.765 503.6 198.765 503.6 198.765 504 199.176 504 200 503.6 200 503.2 200 503.2 200 502.8 200Z" fill="#EF7767" fill-rule="evenodd"/><path d="M510.2 195C509.8 195 509.8 194.629 509.4 194.629 501.4 183.114 501.4 183.114 501.4 183.114 501 182.743 501 182.371 501.4 182.371 501.8 182 502.2 182 502.6 182.371 511 193.886 511 193.886 511 193.886 511 194.257 511 194.629 510.6 194.629 510.6 195 510.2 195 510.2 195Z" fill="#EF7767" fill-rule="evenodd"/><path d="M516.846 191C516.846 191 516.462 191 516.462 190.6 508.385 178.6 508.385 178.6 508.385 178.6 508 178.2 508.385 177.4 508.769 177.4 508.769 177 509.538 177 509.538 177.4 517.615 189.8 517.615 189.8 517.615 189.8 518 190.2 517.615 190.6 517.231 191 517.231 191 517.231 191 516.846 191Z" fill="#EF7767" fill-rule="evenodd"/><path d="M524.2 186C523.8 186 523.4 186 523.4 185.6 515 173.6 515 173.6 515 173.6 515 173.2 515 172.8 515.4 172.4 515.8 172 516.2 172.4 516.6 172.8 524.6 184.8 524.6 184.8 524.6 184.8 525 185.2 525 185.6 524.6 186 524.2 186 524.2 186 524.2 186Z" fill="#EF7767" fill-rule="evenodd"/><path d="M531.2 182C530.8 182 530.8 181.6 530.4 181.6 522.4 169.2 522.4 169.2 522.4 169.2 522 168.8 522 168.4 522.4 168 522.8 168 523.2 168 523.6 168.4 532 180.4 532 180.4 532 180.4 532 180.8 532 181.6 531.6 181.6 531.6 181.6 531.2 182 531.2 182Z" fill="#EF7767" fill-rule="evenodd"/><path d="M974 593 974 601 314.814 601 310 593 974 593Z" fill="#D6DCFC" fill-rule="evenodd"/><path d="M750.177 572.911C754.569 570.921 759.76 570.921 764.153 572.115 764.552 562.565 769.344 553.414 776.931 547.843 786.913 540.283 801.688 539.487 813.667 546.251 813.267 541.476 815.264 537.099 819.257 535.11 823.649 532.723 828.84 533.12 832.434 536.702 832.833 534.712 837.625 524.764 849.205 521.183 859.587 518 871.167 521.183 878.753 529.937 884.743 525.958 891.931 525.162 898.319 528.346 904.708 531.529 908.701 537.497 909.101 544.66 921.08 539.487 934.257 541.079 943.441 548.241 950.229 554.209 954.222 563.361 953.823 572.911 961.809 576.492 967 584.848 966.601 594 960.212 594 953.823 594 947.434 594 937.451 594 927.469 594 917.486 594 873.962 594 830.038 594 786.514 594 780.524 594 774.934 594 769.344 594 758.562 594 748.181 594 737.399 594 737 584.848 742.191 576.492 750.177 572.911Z" fill="#878CF0" fill-rule="evenodd"/><path d="M753.2 594C792.8 594 832.8 594 872.4 594 874 587.63 871.6 581.259 866.8 578.074 860.8 574.491 854.8 576.88 854 576.88 856 571.704 854.8 565.333 850.4 561.75 846.4 558.167 840.4 557.37 835.2 559.759 834.4 558.963 826 551 813.6 553.389 800.8 555.778 796 566.528 795.6 567.722 793.2 563.741 788.8 561.75 784.4 562.546 779.2 563.343 775.6 567.722 775.6 573.296 770 570.111 762.8 570.509 758 574.491 752 578.87 750 586.833 753.2 594Z" fill="#7782E0" fill-rule="evenodd"/><path d="M816.2 593C815.4 593 815 592.597 815 592.194 815 569.21 815 569.21 815 569.21 815 568.403 815.4 568 816.2 568 816.6 568 817 568.403 817 569.21 817 592.194 817 592.194 817 592.194 817 592.597 816.6 593 816.2 593Z" fill="#878CF0" fill-rule="evenodd"/><path d="M818.781 585C818.781 585 818.391 585 818 584.6 818 584.2 818 583.4 818.391 583.4 841.438 571.4 841.438 571.4 841.438 571.4 841.828 571 842.609 571.4 842.609 571.8 843 572.2 842.609 572.6 842.219 573 819.172 585 819.172 585 819.172 585 819.172 585 819.172 585 818.781 585Z" fill="#878CF0" fill-rule="evenodd"/><path d="M807.776 586C807.776 586 807.367 586 807.367 585.6 789.408 571.6 789.408 571.6 789.408 571.6 789 571.2 789 570.8 789.408 570.4 789.816 570 790.224 570 790.633 570 808.592 584.4 808.592 584.4 808.592 584.4 809 584.8 809 585.2 808.592 585.6 808.592 586 808.184 586 807.776 586Z" fill="#878CF0" fill-rule="evenodd"/><path d="M865.2 589C864.4 589 864 588.605 864 588.21 864 542.79 864 542.79 864 542.79 864 542.395 864.4 542 865.2 542 865.6 542 866 542.395 866 542.79 866 588.21 866 588.21 866 588.21 866 588.605 865.6 589 865.2 589Z" fill="#7782E0" fill-rule="evenodd"/><path d="M866.796 576C866.398 576 866 575.59 866 575.18 866 574.769 866 573.949 866.796 573.949 909.805 560 909.805 560 909.805 560 910.204 560 910.602 560.41 911 560.82 911 561.231 910.602 562.051 910.204 562.051 867.195 575.59 867.195 575.59 867.195 575.59 867.195 576 866.796 576 866.796 576Z" fill="#7782E0" fill-rule="evenodd"/><path d="M889.2 567C889.2 567 889.2 567 888.8 567 888.4 567 888 566.211 888.4 565.816 892 552.789 892 552.789 892 552.789 892.4 552.395 892.8 552 893.2 552 893.6 552.395 894 552.789 894 553.184 890 566.605 890 566.605 890 566.605 890 567 889.6 567 889.2 567Z" fill="#7782E0" fill-rule="evenodd"/><path d="M420.531 367C419.719 366.607 418.906 365.821 418.5 365.429 416.469 359.929 413.625 357.571 412 356.393 412.406 356 412.406 356 412.406 356 413.219 356.393 425 356.393 425 356.393 424.188 367 424.188 367 424.188 367 420.531 367 420.531 367 420.531 367Z" fill="#EDBF4C" fill-rule="evenodd"/><path d="M399.312 358.189C396.527 363.378 401.699 368.567 405.28 371.76 406.871 373.356 413.634 378.545 420 383.335 419.602 390.519 419.204 441.609 418.409 443.605 418.011 444.004 417.215 444.004 416.022 444.403 410.054 445.601 392.548 446 386.183 445.202 384.989 444.803 383.796 444.403 383.796 444.004 383 441.609 384.194 407.283 388.172 386.927 391.753 366.571 397.323 358.987 398.516 354.996 398.516 354.597 398.516 354.597 398.516 354.597 398.914 354.597 398.914 354.597 398.914 354.597 402.495 355.395 410.849 354.996 410.849 354.996 410.849 354.996 411.247 354.996 411.645 355.794 413.237 356.991 416.022 359.386 418.011 364.974 414.032 362.18 411.645 360.584 411.645 360.584 411.645 360.584 402.097 353 399.312 358.189Z" fill="#FBD15B" fill-rule="evenodd"/><path d="M411.91 338.2C411.104 338.6 409.493 338.6 409.493 339.4 409.493 340.6 410.298 343.4 409.09 343.4 407.881 343.8 407.075 338.2 405.06 339 403.851 339.8 402.642 341.8 403.851 343.8 403.851 343.8 403.851 343.8 403.851 343.8 403.851 343.8 401.433 349 399.015 351 398.612 351 398.612 351 398.612 351 398.612 347.8 397.806 345 397.806 342.2 397.403 338.2 397 332.2 403.851 327.4 411.104 323 423.194 329.8 423.597 330.6 424 331.4 419.97 334.6 419.97 334.6 419.97 334.6 414.328 333.8 413.522 334.2 412.716 335 412.716 337.4 411.91 338.2Z" fill="#56548C" fill-rule="evenodd"/><path d="M364.889 586.393C366.079 590.321 376 591.107 374.81 594.25 374.016 597 352.19 596.607 351.397 594.25 351 593.464 351.794 590.714 352.984 586 357.746 587.571 364.889 586.393 364.889 586.393Z" fill="#56548C" fill-rule="evenodd"/><path d="M454.606 595.857C455 599 429.788 595.857 429.788 595.857 429.788 595.857 429.394 593.107 429 589.179 435.697 590.357 442 588.393 442 588.393 442 588 442 588 442 588 443.97 589.179 454.212 593.107 454.606 595.857Z" fill="#56548C" fill-rule="evenodd"/><path d="M403 477.53C403 477.932 403 477.932 403 477.932 401.4 516.496 364.2 582.778 365 586.795 365 586.795 357.8 588 353 586.393 359 565.906 375.8 510.47 377 506.453 378.2 502.034 386.6 449.009 387 447 387.4 449.41 389.8 456.239 398.6 469.897 400.2 472.709 401.8 475.12 403 477.53Z" fill="#112B46" fill-rule="evenodd"/><path d="M441.597 587.204C442 587.603 442 587.603 442 587.603 442 588.003 442 588.003 442 588.003 442 588.003 435.554 590 428.705 588.802 426.288 569.229 419.842 512.107 418.633 507.314 417.424 502.121 412.187 492.934 402.518 477.755 401.309 475.358 399.698 472.961 398.086 470.165 389.223 456.584 386.806 449.793 386.403 447.397 386 446.198 386 445.799 386 445.799 392.446 446.598 410.173 446.198 416.216 445 427.094 467.769 433.54 492.934 436.36 502.521 439.583 512.107 441.194 586.405 441.597 587.204Z" fill="#112B46" fill-rule="evenodd"/><path d="M409.895 343.778C411.105 343.778 410.298 340.926 410.298 339.704 410.298 338.889 411.912 338.889 412.719 338.481 413.526 337.667 413.526 335.222 414.333 334.407 415.14 334 420.789 334.815 420.789 334.815 422 342.556 417.965 351.111 417.158 351.926 415.947 352.741 413.123 351.519 412.316 351.926 411.509 352.333 411.509 355.593 411.509 355.593 411.509 355.593 403.035 356 399.404 355.185 399 355.185 399 355.185 399 355.185 399.404 353.963 399.404 352.741 399.404 351.519 399.807 351.519 399.807 351.519 399.807 351.519 402.228 349.481 404.649 344.185 404.649 344.185 404.649 344.185 404.649 344.185 404.649 344.185 403.439 342.148 404.649 340.111 405.86 339.296 407.877 338.481 408.684 344.185 409.895 343.778Z" fill="#EED7BA" fill-rule="evenodd"/><path d="M485.326 373.039C486.116 374.247 494.419 368.208 495.209 371.026 496 373.844 494.814 377.468 492.047 378.675 488.884 379.883 482.953 380.688 481.372 380.688 479.791 380.688 450.535 397.195 444.209 397.597 438.279 398 428 387.532 428 387.532 434.721 377.468 434.721 377.468 434.721 377.468 443.814 383.909 442.628 383.104 443.419 383.507 445.395 383.909 479.791 375.455 479.791 375.455 479.791 375.455 480.186 371.026 481.767 369.416 483.744 367.805 486.116 367 486.907 367.805 487.302 369.013 484.14 371.831 485.326 373.039Z" fill="#EED7BA" fill-rule="evenodd"/><path d="M420.223 366.523C419.436 366.125 418.649 365.33 418.255 364.932 414.319 362.148 411.957 360.557 411.957 360.557 411.957 360.557 402.511 353 399.755 358.17 397 363.341 402.117 368.511 405.66 371.693 407.234 373.284 413.926 378.455 420.223 383.227 426.128 388 426.128 388 426.128 388 427.309 386.807 427.309 386.807 427.309 386.807 434 376.864 434 376.864 434 376.864 427.702 372.091 425.734 370.5 420.223 366.523Z" fill="#EDBF4C" fill-rule="evenodd"/><path d="M879.119 438.785C884 436 884 436 884 436 882.78 437.194 870.983 453.903 861.627 466.634 847.797 473 847.797 473 847.797 473 836 468.226 836 468.226 836 468.226L879.119 438.785Z" fill="#4B5CDB" fill-rule="evenodd"/><path d="M823.716 460.774C826.138 461.548 828.963 461.935 831.789 462.323 831.789 462.71 831.789 462.71 831.789 462.71 831.789 462.71 833 466.581 828.56 472 814.431 467.355 803.936 462.71 802.725 461.935 801.11 460.387 800.706 461.935 795.055 460 789.404 457.677 789 449.935 790.615 449.161 792.229 448 800.706 453.032 800.706 452.645 801.11 452.258 798.284 449.548 799.092 449.161 799.899 448.774 804.743 451.871 805.147 452.258 805.954 452.645 805.55 456.129 805.55 456.129 805.55 456.129 816.046 459.226 823.716 460.774Z" fill="#EED7BA" fill-rule="evenodd"/><path d="M852 471.146C846.479 474.268 842.93 477 837.803 475.439 825.577 471.537 824 470.756 824 470.756 827.549 461 827.549 461 827.549 461 851.211 468.024 851.211 468.024 851.211 468.024L852 471.146Z" fill="#4B5CDB" fill-rule="evenodd"/><path d="M726 566.466C766.875 541.742 796.93 503.061 810.956 458 830.592 463.184 830.592 463.184 830.592 463.184 835 463.982 835 463.982 835 463.982 818.971 515.423 784.507 560.086 737.221 588 734.816 583.613 734.816 583.613 734.816 583.613L726 566.466Z" fill="#B1B2F3" fill-rule="evenodd"/><path d="M809.8 457.346C811 457.346 811 457.346 811 457.346 797 502.485 767 541.233 726.2 566 725.4 564.003 725.4 564.003 725.4 564.003 649 417 649 417 649 417L809.8 457.346Z" fill="#56548C" fill-rule="evenodd"/><path d="M731.788 548 716 525.927 722.822 521 739 543.073 731.788 548Z" fill="#B1B2F3" fill-rule="evenodd"/><path d="M794.694 473 770 462.5 773.306 455 798 465.5 794.694 473Z" fill="#B1B2F3" fill-rule="evenodd"/><path d="M726.596 568C725 565.587 725 565.587 725 565.587 764.908 540.652 794.839 502.446 808.807 457 812 458.207 812 458.207 812 458.207 797.633 504.054 767.303 543.065 726.596 568Z" fill="#44447A" fill-rule="evenodd"/><path d="M945.75 576C945.75 576 948 599.593 944.25 600 943.5 600 942.75 599.186 942 597.966 942.375 597.966 942.375 597.966 942.375 597.966 944.25 589.424 942.75 576.407 942.75 576.407 942.75 576.407 942.75 576.407 942.75 576.407 944.625 576 945.75 576 945.75 576Z" fill="#FF8578" fill-rule="evenodd"/><path d="M881.544 438C881.942 439.6 881.942 441.2 882.738 442.8 884.33 445.2 888.707 443.2 889.901 446 890.696 448.8 888.707 452.8 893.084 455.2 893.88 455.6 894.277 455.6 895.073 455.6 905.419 473.6 909 511.2 908.204 513.2 907.806 513.2 907.408 513.6 906.215 513.6 900.644 514 883.534 513.2 876.77 511.2 875.974 511.2 875.178 510.8 874.78 510.8 874.382 510.4 873.984 510.4 873.984 510 872.393 507.6 879.555 500 876.372 480 875.974 478 870.403 472.4 870.403 472.4 861.251 484 853.293 494.4 848.518 495.6 845.335 496 841.754 494.8 833 491.6 837.377 486 835.785 481.6 835.785 481.6 835.785 481.6 835.785 481.6 835.785 481.6 842.55 482.4 844.937 482.4 846.131 482.4 846.927 482 846.529 481.6 852.497 473.2 862.047 460.4 873.586 443.6 874.382 442.4 875.974 441.2 875.974 441.2 875.974 441.2 881.544 438 881.544 438 881.544 438Z" fill="#606BF1" fill-rule="evenodd"/><path d="M877 511.8C877 511.8 874.179 519.8 870.955 530.6 870.552 530.6 870.552 530.6 870.552 530.6 870.552 530.6 842.746 535.8 842.343 537 842.343 537.4 845.567 543.4 849.597 552.2 847.582 553 841.537 556.2 835.896 559 835.493 559 835.493 559 835.493 559 828.642 547.8 823 536.6 824.612 531.4 827.836 521.4 870.955 511.8 874.985 511 875.388 511 876.194 511.4 877 511.4L877 511.8Z" fill="#112B46" fill-rule="evenodd"/><path d="M906 513.4C905.603 524.6 901.238 530.6 898.46 536.2 895.683 542.2 872.667 579.4 873.46 581 873.857 581.4 886.159 580.6 900.444 579.4 900.841 581 901.635 586.6 901.238 592.6 896.873 593.8 893.302 594.6 891.714 594.6 886.952 595 864.73 601 857.984 595 857.19 594.6 856.794 594.2 856.794 593.4 856.397 592.6 856 591.8 856 590.2 856 590.2 856.397 590.2 856.397 590.2 856 590.2 856 590.2 856 590.2 856 586.6 856.794 581.4 858.381 575.4 861.159 561.8 866.317 543.8 870.683 530.2 873.857 519.4 876.635 511.4 876.635 511.4 876.635 511 876.635 511 876.635 511 883.381 513 900.444 513.8 906 513.4Z" fill="#112B46" fill-rule="evenodd"/><path d="M856.8 593.5C856.8 594.375 857.2 594.812 858 595.25 857.6 595.688 857.6 595.688 857.6 595.688 857.6 595.688 842 597 842 594.812 842 593.938 843.2 592.625 844.8 591.312 846.4 591.75 852.4 592.188 856 590 856 591.75 856.4 592.625 856.8 593.5Z" fill="#FF8578" fill-rule="evenodd"/><path d="M856 590C856 590 856 590 856 590 852.464 593 846.571 592.4 845 591.8 845 591.8 845 591.8 845 591.8L856 590Z" fill="#EED7BA" fill-rule="evenodd"/><path d="M858 575.838C856.456 581.899 855.684 587.151 855.684 590.788 844.877 592 844.877 592 844.877 592 847.965 589.172 852.982 585.939 852.982 585.939 852.982 585.939 843.719 572.606 836 558.869 836.386 558.869 836.386 558.869 836.386 558.869 841.789 556.04 847.579 552.808 849.509 552 852.211 558.465 855.684 566.95 858 575.838Z" fill="#EED7BA" fill-rule="evenodd"/><path d="M941.611 598C939.222 594.038 937.63 584.924 937.63 584.528 937.232 584.132 915.333 590.076 901.796 593.245 902.194 587.302 901.398 581.755 901 580.17 916.528 578.981 934.843 577.396 942.407 577 942.407 577 942.407 577 942.407 577 942.407 577 944 589.679 942.009 598L941.611 598Z" fill="#EED7BA" fill-rule="evenodd"/><path d="M827.4 480.306C829.8 480.71 832.6 481.113 835.4 481.919 835.4 481.919 835.4 481.919 835.4 481.919 835.4 481.919 837 486.355 832.6 492 818.2 486.758 807.8 482.323 806.6 481.113 805 479.903 804.6 481.516 799 479.097 793.4 477.081 793 469.016 794.6 467.806 796.2 467 804.6 472.242 805 471.839 805 471.435 802.2 468.613 803 468.21 803.8 467.403 808.6 471.032 809.4 471.435 809.8 471.839 809.4 475.468 809.4 475.468 809.4 475.468 819.8 478.694 827.4 480.306Z" fill="#EED7BA" fill-rule="evenodd"/><path d="M882 437.837C876.305 441 876.305 441 876.305 441 876.305 441 873.051 433.884 872.644 433.884 871.831 433.884 869.797 437.047 867.763 436.256 865.322 435.86 858 427.558 858.814 424.791 858.814 424.791 862.475 426.372 865.322 426.372 867.763 425.977 869.797 424 871.424 425.581 873.051 427.163 873.458 431.907 875.492 433.093 877.525 434.674 879.966 433.093 881.186 435.465 881.593 436.256 882 437.047 882 437.837Z" fill="#EED7BA" fill-rule="evenodd"/><path d="M895.448 455.795C894.65 455.795 894.252 455.795 893.455 455.394 889.07 452.985 891.063 448.97 890.266 446.159 889.07 443.348 884.685 445.356 883.091 442.947 882.294 441.341 882.294 439.735 881.895 438.129 881.895 437.326 881.497 436.523 881.098 435.72 879.902 433.311 877.51 434.917 875.517 433.311 873.524 432.106 873.126 427.288 871.531 425.682 869.937 424.076 867.944 426.083 865.552 426.485 862.762 426.485 859.175 424.879 859.175 424.879 858.378 427.689 865.552 436.121 867.944 436.523 869.937 437.326 871.93 434.114 872.727 434.114 873.126 434.114 876.315 441.341 876.315 441.341 874.72 442.545 874.72 442.545 874.72 442.545 870.336 445.758 870.336 445.758 870.336 445.758 869.14 438.932 867.147 440.538 863.958 438.53 860.769 436.523 860.371 435.318 859.972 431.705 859.175 428.091 856.783 430.098 854.392 423.674 852 417.25 855.189 412.833 862.364 408.417 869.937 404 874.322 409.621 877.51 410.826 880.301 412.03 885.483 410.424 887.476 412.432 889.469 414.439 889.07 418.856 891.86 421.265 894.65 424.076 898.636 423.674 900.231 426.485 901.825 429.697 899.434 433.712 901.825 436.523 903.818 439.333 906.608 440.136 907.804 442.545 908.601 444.955 909 447.364 907.007 451.78 905.413 455.394 899.832 457 895.448 455.795Z" fill="#FF8578" fill-rule="evenodd"/><path d="M870 472.108C880.947 460 880.947 460 880.947 460 880.947 460 886 470.216 882.211 472.108 878.842 474 870 472.108 870 472.108Z" fill="#4B5CDB" fill-rule="evenodd"/><path d="M834.615 464 649 417.542 649 416 835 462.458 834.615 464Z" fill="#B1B2F3" fill-rule="evenodd"/></g></svg>